# This file uses centimeters as units for non-parametric coordinates.

mtllib TREEWALL_NEW.mtl
g default
v 0.000000 -10.974818 91.149788
v 0.000000 10.962928 91.149788
v 0.000000 -10.974818 -100.286659
v 0.000000 10.962928 -100.286659
v 0.000000 -10.974818 95.718224
v 0.000000 10.962928 95.718224
v 0.000000 -10.974818 -95.718224
v 0.000000 10.962928 -95.718224
vt 3.280232 0.997291
vt -2.287562 0.995975
vt -2.280232 -0.000658
vt 3.287562 0.000659
vt 3.280232 0.997291
vt -2.287562 0.995975
vt -2.280232 -0.000658
vt 3.287562 0.000659
vn -1.000000 0.000000 0.000000
vn -1.000000 0.000000 0.000000
vn -1.000000 0.000000 0.000000
vn -1.000000 0.000000 0.000000
vn -1.000000 0.000000 0.000000
vn -1.000000 0.000000 0.000000
vn -1.000000 0.000000 0.000000
vn -1.000000 0.000000 0.000000
s off
g TREE_WALL_NEW
usemtl lambert2SG
f 2/1/1 4/2/2 3/3/3 1/4/4
f 6/5/5 8/6/6 7/7/7 5/8/8
