# This file uses centimeters as units for non-parametric coordinates.

mtllib EMERALD.mtl
g default
v -0.624750 -0.892262 0.130029
v 0.624750 -0.892262 0.130029
v -0.577674 0.892262 0.130029
v 0.577674 0.892262 0.130029
v -0.577674 0.892262 -0.130029
v 0.577674 0.892262 -0.130029
v -0.624750 -0.892262 -0.130029
v 0.624750 -0.892262 -0.130029
v -0.400597 0.892262 -0.130029
v -0.415715 -0.892262 -0.130029
v -0.415715 -0.892262 0.130029
v -0.400597 0.892262 0.130029
v 0.398911 0.892262 -0.130029
v 0.414029 -0.892262 -0.130029
v 0.414029 -0.892262 0.130029
v 0.398911 0.892262 0.130029
v -0.702873 0.512482 -0.130029
v -0.702873 0.512482 0.130029
v -0.450702 0.512482 0.220995
v 0.449016 0.512482 0.220995
v 0.702873 0.512482 0.130029
v 0.702873 0.512482 -0.130029
v 0.449016 0.512482 -0.220995
v -0.450702 0.512482 -0.220995
v -0.702873 -0.538380 -0.130029
v -0.702873 -0.538380 0.130029
v -0.450702 -0.538380 0.220995
v 0.449016 -0.538380 0.220995
v 0.702873 -0.538380 0.130029
v 0.702873 -0.538380 -0.130029
v 0.449016 -0.538380 -0.220995
v -0.450702 -0.538380 -0.220995
vt 0.375000 0.196795
vt 0.419847 0.196795
vt 0.419847 0.250000
vt 0.375000 0.250000
vt 0.419847 0.500000
vt 0.375000 0.500000
vt 0.419847 0.553205
vt 0.375000 0.553205
vt 0.375000 0.750000
vt 0.419847 0.750000
vt 0.419847 1.000000
vt 0.375000 1.000000
vt 0.625000 0.196795
vt 0.875000 0.196795
vt 0.875000 0.250000
vt 0.625000 0.250000
vt 0.125000 0.196795
vt 0.125000 0.250000
vt 0.579854 0.500000
vt 0.579854 0.553205
vt 0.579854 0.750000
vt 0.579854 1.000000
vt 0.579854 0.196795
vt 0.579854 0.250000
vt 0.625000 0.500000
vt 0.625000 0.553205
vt 0.625000 0.750000
vt 0.625000 1.000000
vt 0.125000 0.049576
vt 0.375000 0.049576
vt 0.419847 0.049576
vt 0.579854 0.049576
vt 0.625000 0.049576
vt 0.875000 0.049576
vt 0.625000 0.700424
vt 0.579854 0.700424
vt 0.419847 0.700424
vt 0.375000 0.700424
vt 0.125000 0.000000
vt 0.375000 0.000000
vt 0.419847 0.000000
vt 0.579854 0.000000
vt 0.625000 0.000000
vt 0.875000 0.000000
vn -0.204547 0.162804 0.965223
vn -0.204547 0.162804 0.965223
vn -0.204547 0.162804 0.965223
vn -0.204547 0.162804 0.965223
vn 0.000000 1.000000 0.000000
vn 0.000000 1.000000 0.000000
vn 0.000000 1.000000 0.000000
vn 0.000000 1.000000 0.000000
vn -0.204547 0.162804 -0.965223
vn -0.204547 0.162804 -0.965223
vn -0.204547 0.162804 -0.965223
vn -0.204547 0.162804 -0.965223
vn 0.000000 -1.000000 0.000000
vn 0.000000 -1.000000 0.000000
vn 0.000000 -1.000000 0.000000
vn 0.000000 -1.000000 0.000000
vn 0.949724 0.313087 0.000000
vn 0.949724 0.313087 0.000000
vn 0.949724 0.313087 0.000000
vn 0.949724 0.313087 0.000000
vn -0.949724 0.313087 0.000000
vn -0.949724 0.313087 0.000000
vn -0.949724 0.313087 0.000000
vn -0.949724 0.313087 0.000000
vn 0.000000 0.232932 -0.972493
vn 0.000000 0.232932 -0.972493
vn 0.000000 0.232932 -0.972493
vn 0.000000 0.232932 -0.972493
vn 0.000000 -1.000000 0.000000
vn 0.000000 -1.000000 0.000000
vn 0.000000 -1.000000 0.000000
vn 0.000000 -1.000000 0.000000
vn 0.000000 0.232932 0.972493
vn 0.000000 0.232932 0.972493
vn 0.000000 0.232932 0.972493
vn 0.000000 0.232932 0.972493
vn 0.000000 1.000000 0.000000
vn 0.000000 1.000000 0.000000
vn 0.000000 1.000000 0.000000
vn 0.000000 1.000000 0.000000
vn 0.203031 0.162499 -0.965594
vn 0.203031 0.162499 -0.965594
vn 0.203031 0.162499 -0.965594
vn 0.203031 0.162499 -0.965594
vn 0.000000 -1.000000 0.000000
vn 0.000000 -1.000000 0.000000
vn 0.000000 -1.000000 0.000000
vn 0.000000 -1.000000 0.000000
vn 0.203031 0.162499 0.965594
vn 0.203031 0.162499 0.965594
vn 0.203031 0.162499 0.965594
vn 0.203031 0.162499 0.965594
vn 0.000000 1.000000 0.000000
vn 0.000000 1.000000 0.000000
vn 0.000000 1.000000 0.000000
vn 0.000000 1.000000 0.000000
vn -1.000000 0.000000 0.000000
vn -1.000000 0.000000 0.000000
vn -1.000000 0.000000 0.000000
vn -1.000000 0.000000 0.000000
vn -0.339326 0.000000 0.940669
vn -0.339326 0.000000 0.940669
vn -0.339326 0.000000 0.940669
vn -0.339326 0.000000 0.940669
vn 0.000000 0.000000 1.000000
vn 0.000000 0.000000 1.000000
vn 0.000000 0.000000 1.000000
vn 0.000000 0.000000 1.000000
vn 0.337329 0.000000 0.941387
vn 0.337329 0.000000 0.941387
vn 0.337329 0.000000 0.941387
vn 0.337329 0.000000 0.941387
vn 1.000000 0.000000 0.000000
vn 1.000000 0.000000 0.000000
vn 1.000000 0.000000 0.000000
vn 1.000000 0.000000 0.000000
vn 0.337329 0.000000 -0.941387
vn 0.337329 0.000000 -0.941387
vn 0.337329 0.000000 -0.941387
vn 0.337329 0.000000 -0.941387
vn 0.000000 0.000000 -1.000000
vn 0.000000 0.000000 -1.000000
vn 0.000000 0.000000 -1.000000
vn 0.000000 0.000000 -1.000000
vn -0.339326 0.000000 -0.940669
vn -0.339326 0.000000 -0.940669
vn -0.339326 0.000000 -0.940669
vn -0.339326 0.000000 -0.940669
vn -0.976488 -0.215571 0.000000
vn -0.976488 -0.215571 0.000000
vn -0.976488 -0.215571 0.000000
vn -0.976488 -0.215571 0.000000
vn -0.191163 -0.155120 0.969224
vn -0.191163 -0.155120 0.969224
vn -0.191163 -0.155120 0.969224
vn -0.191163 -0.155120 0.969224
vn 0.000000 -0.248957 0.968515
vn 0.000000 -0.248957 0.968515
vn 0.000000 -0.248957 0.968515
vn 0.000000 -0.248957 0.968515
vn 0.189833 -0.154944 0.969513
vn 0.189833 -0.154944 0.969513
vn 0.189833 -0.154944 0.969513
vn 0.189833 -0.154944 0.969513
vn 0.976488 -0.215571 0.000000
vn 0.976488 -0.215571 0.000000
vn 0.976488 -0.215571 0.000000
vn 0.976488 -0.215571 0.000000
vn 0.189833 -0.154944 -0.969513
vn 0.189833 -0.154944 -0.969513
vn 0.189833 -0.154944 -0.969513
vn 0.189833 -0.154944 -0.969513
vn 0.000000 -0.248957 -0.968515
vn 0.000000 -0.248957 -0.968515
vn 0.000000 -0.248957 -0.968515
vn 0.000000 -0.248957 -0.968515
vn -0.191163 -0.155120 -0.969224
vn -0.191163 -0.155120 -0.969224
vn -0.191163 -0.155120 -0.969224
vn -0.191163 -0.155120 -0.969224
s off
g Emerald:Emerald
usemtl Emerald:initialShadingGroup
f 18/1/1 19/2/2 12/3/3 3/4/4
f 3/4/5 12/3/6 9/5/7 5/6/8
f 5/6/9 9/5/10 24/7/11 17/8/12
f 7/9/13 10/10/14 11/11/15 1/12/16
f 21/13/17 22/14/18 6/15/19 4/16/20
f 17/17/21 18/1/22 3/4/23 5/18/24
f 9/5/25 13/19/26 23/20/27 24/7/28
f 11/11/29 10/10/30 14/21/31 15/22/32
f 12/3/33 19/2/34 20/23/35 16/24/36
f 9/5/37 12/3/38 16/24/39 13/19/40
f 13/19/41 6/25/42 22/26/43 23/20/44
f 15/22/45 14/21/46 8/27/47 2/28/48
f 16/24/49 20/23/50 21/13/51 4/16/52
f 13/19/53 16/24/54 4/16/55 6/25/56
f 25/29/57 26/30/58 18/1/59 17/17/60
f 26/30/61 27/31/62 19/2/63 18/1/64
f 20/23/65 19/2/66 27/31/67 28/32/68
f 21/13/69 20/23/70 28/32/71 29/33/72
f 29/33/73 30/34/74 22/14/75 21/13/76
f 23/20/77 22/26/78 30/35/79 31/36/80
f 24/7/81 23/20/82 31/36/83 32/37/84
f 17/8/85 24/7/86 32/37/87 25/38/88
f 7/39/89 1/40/90 26/30/91 25/29/92
f 1/40/93 11/41/94 27/31/95 26/30/96
f 28/32/97 27/31/98 11/41/99 15/42/100
f 29/33/101 28/32/102 15/42/103 2/43/104
f 2/43/105 8/44/106 30/34/107 29/33/108
f 31/36/109 30/35/110 8/27/111 14/21/112
f 32/37/113 31/36/114 14/21/115 10/10/116
f 25/38/117 32/37/118 10/10/119 7/9/120
