# This file uses centimeters as units for non-parametric coordinates.

mtllib BOOST.mtl
g default
v -2.494814 -0.022969 -1.074810
v -1.815952 -0.022969 -1.074810
v -2.494814 -0.022969 1.074625
v -1.815952 -0.022969 1.074625
v -2.494814 0.085180 1.074625
v -1.815952 0.085180 1.074625
v -2.494814 0.085180 -1.074810
v -1.815952 0.085180 -1.074810
v -1.581285 0.085180 0.206627
v -1.581285 -0.022969 0.206627
v -0.902423 -0.022969 0.206627
v -0.902423 0.085180 0.206627
v -1.581285 0.085180 -0.230311
v -1.581285 -0.022969 -0.230311
v -0.902423 -0.022969 -0.230311
v -0.902423 0.085180 -0.230311
v -1.144721 -0.010490 -1.583115
v -0.144721 -0.010490 -1.583115
v -1.144721 -0.010490 1.583115
v -0.144721 -0.010490 1.583115
v -1.144721 0.072702 1.583115
v -0.144721 0.072702 1.583115
v -1.144721 0.072702 -1.583115
v -0.144721 0.072702 -1.583115
v 0.200955 0.072702 0.304508
v 0.200955 -0.010490 0.304508
v 1.200955 -0.010490 0.304508
v 1.200955 0.072702 0.304508
v 0.200955 0.072702 -0.339124
v 0.200955 -0.010490 -0.339124
v 1.200955 -0.010490 -0.339124
v 1.200955 0.072702 -0.339124
v 0.855279 -0.010490 -1.583115
v 1.855279 -0.010490 -1.583115
v 0.855279 -0.010490 1.583115
v 1.855279 -0.010490 1.583115
v 0.855279 0.072702 1.583115
v 1.855279 0.072702 1.583115
v 0.855279 0.072702 -1.583115
v 1.855279 0.072702 -1.583115
v 2.200955 0.072702 0.304508
v 2.200955 -0.010490 0.304508
v 3.200955 -0.010490 0.304508
v 3.200955 0.072702 0.304508
v 2.200955 0.072702 -0.339124
v 2.200955 -0.010490 -0.339124
v 3.200955 -0.010490 -0.339124
v 3.200955 0.072702 -0.339124
v -3.144721 -0.010490 -1.583115
v -2.144721 -0.010490 -1.583115
v -3.144721 -0.010490 1.583115
v -2.144721 -0.010490 1.583115
v -3.144721 0.072702 1.583115
v -2.144721 0.072702 1.583115
v -3.144721 0.072702 -1.583115
v -2.144721 0.072702 -1.583115
v -1.799045 0.072702 0.304508
v -1.799045 -0.010490 0.304508
v -0.799045 -0.010490 0.304508
v -0.799045 0.072702 0.304508
v -1.799045 0.072702 -0.339124
v -1.799045 -0.010490 -0.339124
v -0.799045 -0.010490 -0.339124
v -0.799045 0.072702 -0.339124
v -4.000000 -0.047776 2.000000
v 4.000000 -0.047776 2.000000
v -4.000000 0.047776 2.000000
v 4.000000 0.047776 2.000000
v -4.000000 0.047776 -2.000000
v 4.000000 0.047776 -2.000000
v -4.000000 -0.047776 -2.000000
v 4.000000 -0.047776 -2.000000
v -0.495005 -0.022969 -1.074810
v 0.183857 -0.022969 -1.074810
v -0.495005 -0.022969 1.074625
v 0.183857 -0.022969 1.074625
v -0.495005 0.085180 1.074625
v 0.183857 0.085180 1.074625
v -0.495005 0.085180 -1.074810
v 0.183857 0.085180 -1.074810
v 0.418524 0.085180 0.206627
v 0.418524 -0.022969 0.206627
v 1.097386 -0.022969 0.206627
v 1.097386 0.085180 0.206627
v 0.418524 0.085180 -0.230311
v 0.418524 -0.022969 -0.230311
v 1.097386 -0.022969 -0.230311
v 1.097386 0.085180 -0.230311
v 1.504995 -0.022969 -1.074810
v 2.183857 -0.022969 -1.074810
v 1.504995 -0.022969 1.074625
v 2.183857 -0.022969 1.074625
v 1.504995 0.085180 1.074625
v 2.183857 0.085180 1.074625
v 1.504995 0.085180 -1.074810
v 2.183857 0.085180 -1.074810
v 2.418524 0.085180 0.206627
v 2.418524 -0.022969 0.206627
v 3.097386 -0.022969 0.206627
v 3.097386 0.085180 0.206627
v 2.418524 0.085180 -0.230311
v 2.418524 -0.022969 -0.230311
v 3.097386 -0.022969 -0.230311
v 3.097386 0.085180 -0.230311
vt 0.459603 0.012260
vt 0.540164 0.012260
vt 0.459603 0.092821
vt 0.540164 0.092821
vt 0.459603 0.173382
vt 0.540164 0.173382
vt 0.459603 0.253943
vt 0.540164 0.253943
vt 0.459603 0.334504
vt 0.540164 0.334504
vt 0.620725 0.012260
vt 0.620725 0.092821
vt 0.379042 0.012260
vt 0.379042 0.092821
vt 0.379042 0.080177
vt 0.459603 0.186026
vt 0.459603 0.080177
vt 0.540164 0.080177
vt 0.540164 0.186026
vt 0.620725 0.080177
vt 0.379042 0.021818
vt 0.459603 0.244386
vt 0.459603 0.021818
vt 0.540164 0.021818
vt 0.540164 0.244386
vt 0.620725 0.021818
vt 0.109855 0.665382
vt 0.189680 0.665382
vt 0.109855 0.745206
vt 0.189680 0.745206
vt 0.109855 0.825031
vt 0.189680 0.825031
vt 0.109855 0.904856
vt 0.189680 0.904856
vt 0.109855 0.984680
vt 0.189680 0.984680
vt 0.269505 0.665382
vt 0.269505 0.745206
vt 0.030031 0.665382
vt 0.030031 0.745206
vt 0.030031 0.732678
vt 0.109855 0.837559
vt 0.109855 0.732678
vt 0.189680 0.732678
vt 0.189680 0.837559
vt 0.269505 0.732678
vt 0.030031 0.674852
vt 0.109855 0.895386
vt 0.109855 0.674852
vt 0.189680 0.674852
vt 0.189680 0.895386
vt 0.269505 0.674852
vt 0.463910 0.673190
vt 0.543735 0.673190
vt 0.463910 0.753015
vt 0.543735 0.753015
vt 0.463910 0.832840
vt 0.543735 0.832840
vt 0.463910 0.912664
vt 0.543735 0.912664
vt 0.463910 0.992489
vt 0.543735 0.992489
vt 0.623560 0.673190
vt 0.623560 0.753015
vt 0.384086 0.673190
vt 0.384086 0.753015
vt 0.384086 0.740487
vt 0.463910 0.845368
vt 0.463910 0.740487
vt 0.543735 0.740487
vt 0.543735 0.845368
vt 0.623560 0.740487
vt 0.384086 0.682660
vt 0.463910 0.903194
vt 0.463910 0.682660
vt 0.543735 0.682660
vt 0.543735 0.903194
vt 0.623560 0.682660
vt 0.797416 0.674752
vt 0.877241 0.674752
vt 0.797416 0.754577
vt 0.877241 0.754577
vt 0.797416 0.834401
vt 0.877241 0.834401
vt 0.797416 0.914226
vt 0.877241 0.914226
vt 0.797416 0.994051
vt 0.877241 0.994051
vt 0.957065 0.674752
vt 0.957065 0.754577
vt 0.717591 0.674752
vt 0.717591 0.754577
vt 0.717591 0.742049
vt 0.797416 0.846930
vt 0.797416 0.742049
vt 0.877241 0.742049
vt 0.877241 0.846930
vt 0.957065 0.742049
vt 0.717591 0.684222
vt 0.797416 0.904756
vt 0.797416 0.684222
vt 0.877241 0.684222
vt 0.877241 0.904756
vt 0.957065 0.684222
vt 0.274889 0.507641
vt 0.274994 0.395112
vt 0.387418 0.507746
vt 0.387523 0.395217
vt 0.499948 0.507851
vt 0.500052 0.395322
vt 0.612477 0.507956
vt 0.612582 0.395427
vt 0.725006 0.508061
vt 0.725111 0.395532
vt 0.275099 0.282583
vt 0.387628 0.282688
vt 0.274784 0.620170
vt 0.387314 0.620275
vt 0.090753 0.013822
vt 0.171314 0.013822
vt 0.090753 0.094383
vt 0.171314 0.094383
vt 0.090753 0.174944
vt 0.171314 0.174944
vt 0.090753 0.255505
vt 0.171314 0.255505
vt 0.090753 0.336066
vt 0.171314 0.336066
vt 0.251875 0.013822
vt 0.251875 0.094383
vt 0.010192 0.013822
vt 0.010192 0.094383
vt 0.010192 0.081739
vt 0.090753 0.187588
vt 0.090753 0.081739
vt 0.171314 0.081739
vt 0.171314 0.187588
vt 0.251875 0.081739
vt 0.010192 0.023379
vt 0.090753 0.245948
vt 0.090753 0.023379
vt 0.171314 0.023379
vt 0.171314 0.245948
vt 0.251875 0.023379
vt 0.824902 0.021631
vt 0.905463 0.021631
vt 0.824902 0.102192
vt 0.905463 0.102192
vt 0.824902 0.182753
vt 0.905463 0.182753
vt 0.824902 0.263314
vt 0.905463 0.263314
vt 0.824902 0.343875
vt 0.905463 0.343875
vt 0.986024 0.021631
vt 0.986024 0.102192
vt 0.744341 0.021631
vt 0.744341 0.102192
vt 0.744341 0.089548
vt 0.824902 0.195396
vt 0.824902 0.089548
vt 0.905463 0.089548
vt 0.905463 0.195396
vt 0.986024 0.089548
vt 0.744341 0.031188
vt 0.824902 0.253756
vt 0.824902 0.031188
vt 0.905463 0.031188
vt 0.905463 0.253756
vt 0.986024 0.031188
vn 0.000000 -1.000000 0.000000
vn 0.000000 -1.000000 0.000000
vn 0.000000 -1.000000 0.000000
vn 0.000000 -1.000000 0.000000
vn 0.000000 0.000000 1.000000
vn 0.000000 0.000000 1.000000
vn 0.000000 0.000000 1.000000
vn 0.000000 0.000000 1.000000
vn 0.000000 1.000000 0.000000
vn 0.000000 1.000000 0.000000
vn 0.000000 1.000000 0.000000
vn 0.000000 1.000000 0.000000
vn 0.000000 0.000000 -1.000000
vn 0.000000 0.000000 -1.000000
vn 0.000000 0.000000 -1.000000
vn 0.000000 0.000000 -1.000000
vn 0.819210 0.000000 0.573494
vn 0.819210 0.000000 0.573494
vn 0.688810 0.000000 0.724942
vn 0.688810 0.000000 0.724942
vn -0.819210 0.000000 -0.573494
vn -0.819210 0.000000 -0.573494
vn -0.688810 0.000000 -0.724942
vn -0.688810 0.000000 -0.724942
vn -0.814269 0.000000 0.580488
vn -0.814269 0.000000 0.580488
vn -0.819210 0.000000 -0.573494
vn -0.819210 0.000000 -0.573494
vn 0.000000 -1.000000 0.000000
vn 0.000000 -1.000000 0.000000
vn 0.000000 -1.000000 0.000000
vn 0.000000 -1.000000 0.000000
vn 0.814269 0.000000 -0.580488
vn 0.814269 0.000000 -0.580488
vn 0.819210 0.000000 0.573494
vn 0.819210 0.000000 0.573494
vn 0.000000 1.000000 0.000000
vn 0.000000 1.000000 0.000000
vn 0.000000 1.000000 0.000000
vn 0.000000 1.000000 0.000000
vn -0.678819 0.000000 0.734306
vn -0.678819 0.000000 0.734306
vn -0.814269 0.000000 0.580488
vn -0.814269 0.000000 0.580488
vn 0.000000 -1.000000 0.000000
vn 0.000000 -1.000000 0.000000
vn 0.000000 -1.000000 0.000000
vn 0.000000 -1.000000 0.000000
vn 0.678819 0.000000 -0.734306
vn 0.678819 0.000000 -0.734306
vn 0.814269 0.000000 -0.580488
vn 0.814269 0.000000 -0.580488
vn 0.000000 1.000000 0.000000
vn 0.000000 1.000000 0.000000
vn 0.000000 1.000000 0.000000
vn 0.000000 1.000000 0.000000
vn 0.000000 -1.000000 0.000000
vn 0.000000 -1.000000 0.000000
vn 0.000000 -1.000000 0.000000
vn 0.000000 -1.000000 0.000000
vn 0.000000 0.000000 1.000000
vn 0.000000 0.000000 1.000000
vn 0.000000 0.000000 1.000000
vn 0.000000 0.000000 1.000000
vn 0.000000 1.000000 0.000000
vn 0.000000 1.000000 0.000000
vn 0.000000 1.000000 0.000000
vn 0.000000 1.000000 0.000000
vn 0.000000 0.000000 -1.000000
vn 0.000000 0.000000 -1.000000
vn 0.000000 0.000000 -1.000000
vn 0.000000 0.000000 -1.000000
vn 0.819210 0.000000 0.573494
vn 0.819210 0.000000 0.573494
vn 0.688810 0.000000 0.724942
vn 0.688810 0.000000 0.724942
vn -0.819210 0.000000 -0.573494
vn -0.819210 0.000000 -0.573494
vn -0.688810 0.000000 -0.724942
vn -0.688810 0.000000 -0.724942
vn -0.814269 0.000000 0.580488
vn -0.814269 0.000000 0.580488
vn -0.819210 0.000000 -0.573494
vn -0.819210 0.000000 -0.573494
vn 0.000000 -1.000000 0.000000
vn 0.000000 -1.000000 0.000000
vn 0.000000 -1.000000 0.000000
vn 0.000000 -1.000000 0.000000
vn 0.814269 0.000000 -0.580488
vn 0.814269 0.000000 -0.580488
vn 0.819210 0.000000 0.573494
vn 0.819210 0.000000 0.573494
vn 0.000000 1.000000 0.000000
vn 0.000000 1.000000 0.000000
vn 0.000000 1.000000 0.000000
vn 0.000000 1.000000 0.000000
vn -0.678819 0.000000 0.734306
vn -0.678819 0.000000 0.734306
vn -0.814269 0.000000 0.580488
vn -0.814269 0.000000 0.580488
vn 0.000000 -1.000000 0.000000
vn 0.000000 -1.000000 0.000000
vn 0.000000 -1.000000 0.000000
vn 0.000000 -1.000000 0.000000
vn 0.678819 0.000000 -0.734306
vn 0.678819 0.000000 -0.734306
vn 0.814269 0.000000 -0.580488
vn 0.814269 0.000000 -0.580488
vn 0.000000 1.000000 0.000000
vn 0.000000 1.000000 0.000000
vn 0.000000 1.000000 0.000000
vn 0.000000 1.000000 0.000000
vn 0.000000 -1.000000 0.000000
vn 0.000000 -1.000000 0.000000
vn 0.000000 -1.000000 0.000000
vn 0.000000 -1.000000 0.000000
vn 0.000000 0.000000 1.000000
vn 0.000000 0.000000 1.000000
vn 0.000000 0.000000 1.000000
vn 0.000000 0.000000 1.000000
vn 0.000000 1.000000 0.000000
vn 0.000000 1.000000 0.000000
vn 0.000000 1.000000 0.000000
vn 0.000000 1.000000 0.000000
vn 0.000000 0.000000 -1.000000
vn 0.000000 0.000000 -1.000000
vn 0.000000 0.000000 -1.000000
vn 0.000000 0.000000 -1.000000
vn 0.819210 0.000000 0.573494
vn 0.819210 0.000000 0.573494
vn 0.688810 0.000000 0.724942
vn 0.688810 0.000000 0.724942
vn -0.819210 0.000000 -0.573494
vn -0.819210 0.000000 -0.573494
vn -0.688810 0.000000 -0.724942
vn -0.688810 0.000000 -0.724942
vn -0.814269 0.000000 0.580488
vn -0.814269 0.000000 0.580488
vn -0.819210 0.000000 -0.573494
vn -0.819210 0.000000 -0.573494
vn 0.000000 -1.000000 0.000000
vn 0.000000 -1.000000 0.000000
vn 0.000000 -1.000000 0.000000
vn 0.000000 -1.000000 0.000000
vn 0.814269 0.000000 -0.580488
vn 0.814269 0.000000 -0.580488
vn 0.819210 0.000000 0.573494
vn 0.819210 0.000000 0.573494
vn 0.000000 1.000000 0.000000
vn 0.000000 1.000000 0.000000
vn 0.000000 1.000000 0.000000
vn 0.000000 1.000000 0.000000
vn -0.678819 0.000000 0.734306
vn -0.678819 0.000000 0.734306
vn -0.814269 0.000000 0.580488
vn -0.814269 0.000000 0.580488
vn 0.000000 -1.000000 0.000000
vn 0.000000 -1.000000 0.000000
vn 0.000000 -1.000000 0.000000
vn 0.000000 -1.000000 0.000000
vn 0.678819 0.000000 -0.734306
vn 0.678819 0.000000 -0.734306
vn 0.814269 0.000000 -0.580488
vn 0.814269 0.000000 -0.580488
vn 0.000000 1.000000 0.000000
vn 0.000000 1.000000 0.000000
vn 0.000000 1.000000 0.000000
vn 0.000000 1.000000 0.000000
vn 0.000000 -1.000000 0.000000
vn 0.000000 -1.000000 0.000000
vn 0.000000 -1.000000 0.000000
vn 0.000000 -1.000000 0.000000
vn 0.000000 0.000000 1.000000
vn 0.000000 0.000000 1.000000
vn 0.000000 0.000000 1.000000
vn 0.000000 0.000000 1.000000
vn 0.000000 1.000000 0.000000
vn 0.000000 1.000000 0.000000
vn 0.000000 1.000000 0.000000
vn 0.000000 1.000000 0.000000
vn 0.000000 0.000000 -1.000000
vn 0.000000 0.000000 -1.000000
vn 0.000000 0.000000 -1.000000
vn 0.000000 0.000000 -1.000000
vn 0.819210 0.000000 0.573494
vn 0.819210 0.000000 0.573494
vn 0.688810 0.000000 0.724942
vn 0.688810 0.000000 0.724942
vn -0.819210 0.000000 -0.573494
vn -0.819210 0.000000 -0.573494
vn -0.688810 0.000000 -0.724942
vn -0.688810 0.000000 -0.724942
vn -0.814269 0.000000 0.580488
vn -0.814269 0.000000 0.580488
vn -0.819210 0.000000 -0.573494
vn -0.819210 0.000000 -0.573494
vn 0.000000 -1.000000 0.000000
vn 0.000000 -1.000000 0.000000
vn 0.000000 -1.000000 0.000000
vn 0.000000 -1.000000 0.000000
vn 0.814269 0.000000 -0.580488
vn 0.814269 0.000000 -0.580488
vn 0.819210 0.000000 0.573494
vn 0.819210 0.000000 0.573494
vn 0.000000 1.000000 0.000000
vn 0.000000 1.000000 0.000000
vn 0.000000 1.000000 0.000000
vn 0.000000 1.000000 0.000000
vn -0.678819 0.000000 0.734306
vn -0.678819 0.000000 0.734306
vn -0.814269 0.000000 0.580488
vn -0.814269 0.000000 0.580488
vn 0.000000 -1.000000 0.000000
vn 0.000000 -1.000000 0.000000
vn 0.000000 -1.000000 0.000000
vn 0.000000 -1.000000 0.000000
vn 0.678819 0.000000 -0.734306
vn 0.678819 0.000000 -0.734306
vn 0.814269 0.000000 -0.580488
vn 0.814269 0.000000 -0.580488
vn 0.000000 1.000000 0.000000
vn 0.000000 1.000000 0.000000
vn 0.000000 1.000000 0.000000
vn 0.000000 1.000000 0.000000
vn 0.000000 0.000000 1.000000
vn 0.000000 0.000000 1.000000
vn 0.000000 0.000000 1.000000
vn 0.000000 0.000000 1.000000
vn 0.000000 1.000000 0.000000
vn 0.000000 1.000000 0.000000
vn 0.000000 1.000000 0.000000
vn 0.000000 1.000000 0.000000
vn 0.000000 0.000000 -1.000000
vn 0.000000 0.000000 -1.000000
vn 0.000000 0.000000 -1.000000
vn 0.000000 0.000000 -1.000000
vn 0.000000 -1.000000 0.000000
vn 0.000000 -1.000000 0.000000
vn 0.000000 -1.000000 0.000000
vn 0.000000 -1.000000 0.000000
vn 1.000000 0.000000 0.000000
vn 1.000000 0.000000 0.000000
vn 1.000000 0.000000 0.000000
vn 1.000000 0.000000 0.000000
vn -1.000000 0.000000 0.000000
vn -1.000000 0.000000 0.000000
vn -1.000000 0.000000 0.000000
vn -1.000000 0.000000 0.000000
vn 0.000000 -1.000000 0.000000
vn 0.000000 -1.000000 0.000000
vn 0.000000 -1.000000 0.000000
vn 0.000000 -1.000000 0.000000
vn 0.000000 0.000000 1.000000
vn 0.000000 0.000000 1.000000
vn 0.000000 0.000000 1.000000
vn 0.000000 0.000000 1.000000
vn 0.000000 1.000000 0.000000
vn 0.000000 1.000000 0.000000
vn 0.000000 1.000000 0.000000
vn 0.000000 1.000000 0.000000
vn 0.000000 0.000000 -1.000000
vn 0.000000 0.000000 -1.000000
vn 0.000000 0.000000 -1.000000
vn 0.000000 0.000000 -1.000000
vn 0.819210 0.000000 0.573494
vn 0.819210 0.000000 0.573494
vn 0.688810 0.000000 0.724942
vn 0.688810 0.000000 0.724942
vn -0.819210 0.000000 -0.573494
vn -0.819210 0.000000 -0.573494
vn -0.688810 0.000000 -0.724942
vn -0.688810 0.000000 -0.724942
vn -0.814269 0.000000 0.580488
vn -0.814269 0.000000 0.580488
vn -0.819210 0.000000 -0.573494
vn -0.819210 0.000000 -0.573494
vn 0.000000 -1.000000 0.000000
vn 0.000000 -1.000000 0.000000
vn 0.000000 -1.000000 0.000000
vn 0.000000 -1.000000 0.000000
vn 0.814269 0.000000 -0.580488
vn 0.814269 0.000000 -0.580488
vn 0.819210 0.000000 0.573494
vn 0.819210 0.000000 0.573494
vn 0.000000 1.000000 0.000000
vn 0.000000 1.000000 0.000000
vn 0.000000 1.000000 0.000000
vn 0.000000 1.000000 0.000000
vn -0.678819 0.000000 0.734306
vn -0.678819 0.000000 0.734306
vn -0.814269 0.000000 0.580488
vn -0.814269 0.000000 0.580488
vn 0.000000 -1.000000 0.000000
vn 0.000000 -1.000000 0.000000
vn 0.000000 -1.000000 0.000000
vn 0.000000 -1.000000 0.000000
vn 0.678819 0.000000 -0.734306
vn 0.678819 0.000000 -0.734306
vn 0.814269 0.000000 -0.580488
vn 0.814269 0.000000 -0.580488
vn 0.000000 1.000000 0.000000
vn 0.000000 1.000000 0.000000
vn 0.000000 1.000000 0.000000
vn 0.000000 1.000000 0.000000
vn 0.000000 -1.000000 0.000000
vn 0.000000 -1.000000 0.000000
vn 0.000000 -1.000000 0.000000
vn 0.000000 -1.000000 0.000000
vn 0.000000 0.000000 1.000000
vn 0.000000 0.000000 1.000000
vn 0.000000 0.000000 1.000000
vn 0.000000 0.000000 1.000000
vn 0.000000 1.000000 0.000000
vn 0.000000 1.000000 0.000000
vn 0.000000 1.000000 0.000000
vn 0.000000 1.000000 0.000000
vn 0.000000 0.000000 -1.000000
vn 0.000000 0.000000 -1.000000
vn 0.000000 0.000000 -1.000000
vn 0.000000 0.000000 -1.000000
vn 0.819210 0.000000 0.573494
vn 0.819210 0.000000 0.573494
vn 0.688810 0.000000 0.724942
vn 0.688810 0.000000 0.724942
vn -0.819210 0.000000 -0.573494
vn -0.819210 0.000000 -0.573494
vn -0.688810 0.000000 -0.724942
vn -0.688810 0.000000 -0.724942
vn -0.814269 0.000000 0.580488
vn -0.814269 0.000000 0.580488
vn -0.819210 0.000000 -0.573494
vn -0.819210 0.000000 -0.573494
vn 0.000000 -1.000000 0.000000
vn 0.000000 -1.000000 0.000000
vn 0.000000 -1.000000 0.000000
vn 0.000000 -1.000000 0.000000
vn 0.814269 0.000000 -0.580488
vn 0.814269 0.000000 -0.580488
vn 0.819210 0.000000 0.573494
vn 0.819210 0.000000 0.573494
vn 0.000000 1.000000 0.000000
vn 0.000000 1.000000 0.000000
vn 0.000000 1.000000 0.000000
vn 0.000000 1.000000 0.000000
vn -0.678819 0.000000 0.734306
vn -0.678819 0.000000 0.734306
vn -0.814269 0.000000 0.580488
vn -0.814269 0.000000 0.580488
vn 0.000000 -1.000000 0.000000
vn 0.000000 -1.000000 0.000000
vn 0.000000 -1.000000 0.000000
vn 0.000000 -1.000000 0.000000
vn 0.678819 0.000000 -0.734306
vn 0.678819 0.000000 -0.734306
vn 0.814269 0.000000 -0.580488
vn 0.814269 0.000000 -0.580488
vn 0.000000 1.000000 0.000000
vn 0.000000 1.000000 0.000000
vn 0.000000 1.000000 0.000000
vn 0.000000 1.000000 0.000000
s off
g BOOST:polySurface1
usemtl BOOST:initialShadingGroup
f 10/17/1 11/18/2 4/4/3 3/3/4
f 3/3/5 4/4/6 6/6/7 5/5/8
f 5/5/9 6/6/10 12/19/11 9/16/12
f 7/7/13 8/8/14 2/10/15 1/9/16
f 11/18/17 12/20/18 6/12/19 4/4/20
f 9/15/21 10/17/22 3/3/23 5/14/24
f 13/21/25 14/23/26 10/17/27 9/15/28
f 14/23/29 15/24/30 11/18/31 10/17/32
f 15/24/33 16/26/34 12/20/35 11/18/36
f 9/16/37 12/19/38 16/25/39 13/22/40
f 7/13/41 1/1/42 14/23/43 13/21/44
f 1/1/45 2/2/46 15/24/47 14/23/48
f 2/2/49 8/11/50 16/26/51 15/24/52
f 13/22/53 16/25/54 8/8/55 7/7/56
f 26/43/57 27/44/58 20/30/59 19/29/60
f 19/29/61 20/30/62 22/32/63 21/31/64
f 21/31/65 22/32/66 28/45/67 25/42/68
f 23/33/69 24/34/70 18/36/71 17/35/72
f 27/44/73 28/46/74 22/38/75 20/30/76
f 25/41/77 26/43/78 19/29/79 21/40/80
f 29/47/81 30/49/82 26/43/83 25/41/84
f 30/49/85 31/50/86 27/44/87 26/43/88
f 31/50/89 32/52/90 28/46/91 27/44/92
f 25/42/93 28/45/94 32/51/95 29/48/96
f 23/39/97 17/27/98 30/49/99 29/47/100
f 17/27/101 18/28/102 31/50/103 30/49/104
f 18/28/105 24/37/106 32/52/107 31/50/108
f 29/48/109 32/51/110 24/34/111 23/33/112
f 42/69/113 43/70/114 36/56/115 35/55/116
f 35/55/117 36/56/118 38/58/119 37/57/120
f 37/57/121 38/58/122 44/71/123 41/68/124
f 39/59/125 40/60/126 34/62/127 33/61/128
f 43/70/129 44/72/130 38/64/131 36/56/132
f 41/67/133 42/69/134 35/55/135 37/66/136
f 45/73/137 46/75/138 42/69/139 41/67/140
f 46/75/141 47/76/142 43/70/143 42/69/144
f 47/76/145 48/78/146 44/72/147 43/70/148
f 41/68/149 44/71/150 48/77/151 45/74/152
f 39/65/153 33/53/154 46/75/155 45/73/156
f 33/53/157 34/54/158 47/76/159 46/75/160
f 34/54/161 40/63/162 48/78/163 47/76/164
f 45/74/165 48/77/166 40/60/167 39/59/168
f 58/95/169 59/96/170 52/82/171 51/81/172
f 51/81/173 52/82/174 54/84/175 53/83/176
f 53/83/177 54/84/178 60/97/179 57/94/180
f 55/85/181 56/86/182 50/88/183 49/87/184
f 59/96/185 60/98/186 54/90/187 52/82/188
f 57/93/189 58/95/190 51/81/191 53/92/192
f 61/99/193 62/101/194 58/95/195 57/93/196
f 62/101/197 63/102/198 59/96/199 58/95/200
f 63/102/201 64/104/202 60/98/203 59/96/204
f 57/94/205 60/97/206 64/103/207 61/100/208
f 55/91/209 49/79/210 62/101/211 61/99/212
f 49/79/213 50/80/214 63/102/215 62/101/216
f 50/80/217 56/89/218 64/104/219 63/102/220
f 61/100/221 64/103/222 56/86/223 55/85/224
f 65/105/225 66/106/226 68/108/227 67/107/228
f 67/107/229 68/108/230 70/110/231 69/109/232
f 69/109/233 70/110/234 72/112/235 71/111/236
f 71/111/237 72/112/238 66/114/239 65/113/240
f 66/106/241 72/115/242 70/116/243 68/108/244
f 71/117/245 65/105/246 67/107/247 69/118/248
f 82/135/249 83/136/250 76/122/251 75/121/252
f 75/121/253 76/122/254 78/124/255 77/123/256
f 77/123/257 78/124/258 84/137/259 81/134/260
f 79/125/261 80/126/262 74/128/263 73/127/264
f 83/136/265 84/138/266 78/130/267 76/122/268
f 81/133/269 82/135/270 75/121/271 77/132/272
f 85/139/273 86/141/274 82/135/275 81/133/276
f 86/141/277 87/142/278 83/136/279 82/135/280
f 87/142/281 88/144/282 84/138/283 83/136/284
f 81/134/285 84/137/286 88/143/287 85/140/288
f 79/131/289 73/119/290 86/141/291 85/139/292
f 73/119/293 74/120/294 87/142/295 86/141/296
f 74/120/297 80/129/298 88/144/299 87/142/300
f 85/140/301 88/143/302 80/126/303 79/125/304
f 98/161/305 99/162/306 92/148/307 91/147/308
f 91/147/309 92/148/310 94/150/311 93/149/312
f 93/149/313 94/150/314 100/163/315 97/160/316
f 95/151/317 96/152/318 90/154/319 89/153/320
f 99/162/321 100/164/322 94/156/323 92/148/324
f 97/159/325 98/161/326 91/147/327 93/158/328
f 101/165/329 102/167/330 98/161/331 97/159/332
f 102/167/333 103/168/334 99/162/335 98/161/336
f 103/168/337 104/170/338 100/164/339 99/162/340
f 97/160/341 100/163/342 104/169/343 101/166/344
f 95/157/345 89/145/346 102/167/347 101/165/348
f 89/145/349 90/146/350 103/168/351 102/167/352
f 90/146/353 96/155/354 104/170/355 103/168/356
f 101/166/357 104/169/358 96/152/359 95/151/360
