# This file uses centimeters as units for non-parametric coordinates.

mtllib SATELLITE.mtl
g default
v -0.571807 -0.571807 0.092917
v 0.571807 -0.571807 0.092917
v -0.571807 0.571807 0.092917
v 0.571807 0.571807 0.092917
v -0.571807 0.571807 -0.212568
v 0.571807 0.571807 -0.212568
v -0.571807 -0.571807 -0.212568
v 0.571807 -0.571807 -0.212568
v -0.006707 0.832263 0.092917
v -0.006707 0.832263 -0.212568
v -0.006707 -0.832263 -0.212568
v -0.006707 -0.832263 0.092917
v 0.832263 -0.004380 0.092917
v -0.006707 -0.004380 0.092917
v -0.832263 -0.004380 0.092917
v -0.832263 -0.004380 -0.212568
v -0.006707 -0.004380 -0.212568
v 0.832263 -0.004380 -0.212568
v -0.689808 0.689808 -0.131085
v -1.004013 -0.005283 -0.131085
v -0.689808 -0.689808 -0.131085
v -0.008091 -1.004013 -0.131085
v 0.689808 -0.689808 -0.131085
v 1.004013 -0.005283 -0.131085
v 0.689808 0.689808 -0.131085
v -0.008091 1.004013 -0.131085
v -0.689808 0.689808 0.137978
v -1.004013 -0.005283 0.137978
v -0.689808 -0.689808 0.137978
v -0.008091 -1.004013 0.137978
v 0.689808 -0.689808 0.137978
v 1.004013 -0.005283 0.137978
v 0.689808 0.689808 0.137978
v -0.008091 1.004013 0.137978
v 0.218794 -3.075836 0.298738
v 0.444629 -0.416624 -0.074021
v -0.218794 -3.075836 0.298738
v -0.444629 -0.416624 -0.074021
v -0.218794 -3.075836 0.191161
v -0.444629 -0.416624 -0.107180
v 0.218794 -3.075836 0.191161
v 0.444629 -0.416624 -0.107180
v -0.444629 -2.729721 0.298738
v -0.444629 -2.729721 0.191161
v 0.444629 -2.729721 0.191161
v 0.444629 -2.729721 0.298738
v 0.218794 3.075836 0.298738
v 0.444629 0.416624 -0.074021
v -0.218794 3.075836 0.298738
v -0.444629 0.416624 -0.074021
v -0.218794 3.075836 0.191161
v -0.444629 0.416624 -0.107180
v 0.218794 3.075836 0.191161
v 0.444629 0.416624 -0.107180
v -0.444629 2.729721 0.298738
v -0.444629 2.729721 0.191161
v 0.444629 2.729721 0.191161
v 0.444629 2.729721 0.298738
v -3.075836 -0.218794 0.298738
v -0.001138 -0.444629 -0.074021
v -3.075836 0.218794 0.298738
v -0.001138 0.444629 -0.074021
v -3.075836 0.218794 0.191161
v -0.001138 0.444629 -0.181598
v -3.075836 -0.218794 0.191161
v -0.001138 -0.444629 -0.181598
v -2.729721 0.444629 0.298738
v -2.729721 0.444629 0.191161
v -2.729721 -0.444629 0.191161
v -2.729721 -0.444629 0.298738
v 3.075836 -0.218794 0.298738
v 0.001137 -0.444629 -0.074021
v 3.075836 0.218794 0.298738
v 0.001137 0.444629 -0.074021
v 3.075836 0.218794 0.191161
v 0.001137 0.444629 -0.181598
v 3.075836 -0.218794 0.191161
v 0.001137 -0.444629 -0.181598
v 2.729721 0.444629 0.298738
v 2.729721 0.444629 0.191161
v 2.729721 -0.444629 0.191161
v 2.729721 -0.444629 0.298738
vt 0.501898 0.889926
vt 0.662908 0.889926
vt 0.662908 0.990906
vt 0.501898 0.990906
vt 0.501898 0.790480
vt 0.662908 0.790480
vt 0.171792 0.889926
vt 0.171792 0.790480
vt 0.332802 0.790480
vt 0.332802 0.889926
vt 0.171792 0.990906
vt 0.332802 0.990906
vt 0.336845 0.990906
vt 0.336845 0.891869
vt 0.497855 0.891869
vt 0.497855 0.990906
vt 0.497855 0.790480
vt 0.336845 0.790480
vt 0.006739 0.891869
vt 0.006739 0.790480
vt 0.167749 0.790480
vt 0.167749 0.891869
vt 0.006739 0.990906
vt 0.167749 0.990906
vt 0.069329 0.558920
vt 0.151425 0.521081
vt 0.151425 0.641354
vt 0.031490 0.641354
vt 0.052186 0.541777
vt 0.151224 0.496130
vt 0.235469 0.558920
vt 0.273308 0.641354
vt 0.151425 0.762898
vt 0.069329 0.725060
vt 0.006539 0.641222
vt 0.252612 0.541777
vt 0.298259 0.641222
vt 0.235469 0.725060
vt 0.151224 0.787850
vt 0.052186 0.742203
vt 0.252612 0.742203
vt 0.328303 0.642626
vt 0.448238 0.642626
vt 0.448238 0.762898
vt 0.366142 0.725060
vt 0.366142 0.558920
vt 0.448238 0.521081
vt 0.570120 0.642626
vt 0.532282 0.725060
vt 0.448036 0.787850
vt 0.348999 0.742203
vt 0.303352 0.642757
vt 0.348999 0.541777
vt 0.448036 0.496130
vt 0.532282 0.558920
vt 0.595072 0.642757
vt 0.549425 0.742203
vt 0.549425 0.541777
vt 0.080415 0.463445
vt 0.008498 0.403881
vt 0.291681 0.403881
vt 0.219764 0.463445
vt 0.986723 0.177607
vt 0.986723 0.233900
vt 0.616910 0.233900
vt 0.616910 0.177607
vt 0.369553 0.463445
vt 0.297636 0.403881
vt 0.580819 0.403881
vt 0.508902 0.463445
vt 0.616910 0.068532
vt 0.616910 0.012239
vt 0.986723 0.012239
vt 0.986723 0.068532
vt 0.615286 0.466400
vt 0.615286 0.244739
vt 0.985098 0.244739
vt 0.985098 0.466400
vt 0.676302 0.749955
vt 0.985296 0.749955
vt 0.985296 0.994511
vt 0.676302 0.994511
vt 0.297636 0.005810
vt 0.580819 0.005810
vt 0.675941 0.737315
vt 0.675941 0.492759
vt 0.984934 0.492759
vt 0.984934 0.737315
vt 0.008498 0.005810
vt 0.291681 0.005810
vt 0.080415 0.463445
vt 0.219764 0.463445
vt 0.291681 0.403881
vt 0.008498 0.403881
vt 0.986723 0.177607
vt 0.616910 0.177607
vt 0.616910 0.233900
vt 0.986723 0.233900
vt 0.369553 0.463445
vt 0.508902 0.463445
vt 0.580819 0.403881
vt 0.297636 0.403881
vt 0.616910 0.068532
vt 0.986723 0.068532
vt 0.986723 0.012239
vt 0.616910 0.012239
vt 0.615286 0.466400
vt 0.985098 0.466400
vt 0.985098 0.244739
vt 0.615286 0.244739
vt 0.676302 0.749955
vt 0.676302 0.994511
vt 0.985296 0.994511
vt 0.985296 0.749955
vt 0.580819 0.005810
vt 0.297636 0.005810
vt 0.675941 0.737315
vt 0.984934 0.737315
vt 0.984934 0.492759
vt 0.675941 0.492759
vt 0.291681 0.005810
vt 0.008498 0.005810
vt 0.080415 0.463445
vt 0.008498 0.403881
vt 0.291681 0.403881
vt 0.219764 0.463445
vt 0.986723 0.177607
vt 0.986723 0.233900
vt 0.616910 0.233900
vt 0.616910 0.177607
vt 0.369553 0.463445
vt 0.297636 0.403881
vt 0.580819 0.403881
vt 0.508902 0.463445
vt 0.616910 0.068532
vt 0.616910 0.012239
vt 0.986723 0.012239
vt 0.986723 0.068532
vt 0.615286 0.466400
vt 0.615286 0.244739
vt 0.985098 0.244739
vt 0.985098 0.466400
vt 0.676302 0.749955
vt 0.985296 0.749955
vt 0.985296 0.994511
vt 0.676302 0.994511
vt 0.297636 0.005810
vt 0.580819 0.005810
vt 0.675941 0.737315
vt 0.675941 0.492759
vt 0.984934 0.492759
vt 0.984934 0.737315
vt 0.008498 0.005810
vt 0.291681 0.005810
vt 0.080415 0.463445
vt 0.219764 0.463445
vt 0.291681 0.403881
vt 0.008498 0.403881
vt 0.986723 0.177607
vt 0.616910 0.177607
vt 0.616910 0.233900
vt 0.986723 0.233900
vt 0.369553 0.463445
vt 0.508902 0.463445
vt 0.580819 0.403881
vt 0.297636 0.403881
vt 0.616910 0.068532
vt 0.986723 0.068532
vt 0.986723 0.012239
vt 0.616910 0.012239
vt 0.615286 0.466400
vt 0.985098 0.466400
vt 0.985098 0.244739
vt 0.615286 0.244739
vt 0.676302 0.749955
vt 0.676302 0.994511
vt 0.985296 0.994511
vt 0.985296 0.749955
vt 0.580819 0.005810
vt 0.297636 0.005810
vt 0.675941 0.737315
vt 0.984934 0.737315
vt 0.984934 0.492759
vt 0.675941 0.492759
vt 0.291681 0.005810
vt 0.008498 0.005810
vn 0.000000 0.000000 1.000000
vn 0.000000 0.000000 1.000000
vn 0.000000 0.000000 1.000000
vn 0.000000 0.000000 1.000000
vn 0.115776 -0.251194 0.960988
vn 0.115776 -0.251194 0.960988
vn 0.115776 -0.251194 0.960988
vn 0.115776 -0.251194 0.960988
vn 0.000000 0.000000 -1.000000
vn 0.000000 0.000000 -1.000000
vn 0.000000 0.000000 -1.000000
vn 0.000000 0.000000 -1.000000
vn 0.115776 0.251194 0.960988
vn 0.115776 0.251194 0.960988
vn 0.115776 0.251194 0.960988
vn 0.115776 0.251194 0.960988
vn -0.251508 0.115445 0.960945
vn -0.251508 0.115445 0.960945
vn -0.251508 0.115445 0.960945
vn -0.251508 0.115445 0.960945
vn 0.251508 0.115445 0.960945
vn 0.251508 0.115445 0.960945
vn 0.251508 0.115445 0.960945
vn 0.251508 0.115445 0.960945
vn -0.113896 -0.252981 0.960744
vn -0.113896 -0.252980 0.960744
vn -0.113896 -0.252981 0.960744
vn -0.113896 -0.252980 0.960744
vn 0.000000 0.000000 -1.000000
vn 0.000000 0.000000 -1.000000
vn 0.000000 0.000000 -1.000000
vn 0.000000 0.000000 -1.000000
vn -0.113896 0.252981 0.960744
vn -0.113896 0.252981 0.960744
vn -0.113896 0.252981 0.960744
vn -0.113896 0.252981 0.960744
vn 0.000000 0.000000 1.000000
vn 0.000000 0.000000 1.000000
vn 0.000000 0.000000 1.000000
vn 0.000000 0.000000 1.000000
vn 0.000000 0.000000 1.000000
vn 0.000000 0.000000 1.000000
vn 0.000000 0.000000 1.000000
vn 0.000000 0.000000 1.000000
vn 0.000000 0.000000 1.000000
vn 0.000000 0.000000 1.000000
vn 0.000000 0.000000 1.000000
vn 0.000000 0.000000 1.000000
vn 0.252675 -0.114218 0.960786
vn 0.252675 -0.114218 0.960786
vn 0.252675 -0.114218 0.960786
vn 0.252675 -0.114218 0.960786
vn -0.000000 0.000000 -1.000000
vn -0.000000 0.000000 -1.000000
vn -0.000000 0.000000 -1.000000
vn -0.000000 0.000000 -1.000000
vn 0.000000 0.000000 -1.000000
vn 0.000000 0.000000 -1.000000
vn 0.000000 0.000000 -1.000000
vn 0.000000 0.000000 -1.000000
vn -0.252675 -0.114218 0.960786
vn -0.252675 -0.114218 0.960786
vn -0.252675 -0.114218 0.960786
vn -0.252675 -0.114218 0.960786
vn -0.421600 0.190578 -0.886529
vn -0.421600 0.190578 -0.886529
vn -0.421600 0.190578 -0.886529
vn -0.421600 0.190578 -0.886529
vn -0.419777 -0.192683 -0.886939
vn -0.419777 -0.192683 -0.886939
vn -0.419777 -0.192683 -0.886939
vn -0.419777 -0.192683 -0.886939
vn -0.193250 -0.419286 -0.887048
vn -0.193250 -0.419286 -0.887048
vn -0.193250 -0.419286 -0.887048
vn -0.193250 -0.419286 -0.887048
vn 0.190026 -0.422077 -0.886421
vn 0.190026 -0.422077 -0.886421
vn 0.190026 -0.422077 -0.886421
vn 0.190026 -0.422077 -0.886421
vn 0.419777 -0.192683 -0.886939
vn 0.419777 -0.192683 -0.886939
vn 0.419777 -0.192683 -0.886939
vn 0.419777 -0.192683 -0.886939
vn 0.421600 0.190578 -0.886529
vn 0.421600 0.190578 -0.886529
vn 0.421600 0.190578 -0.886529
vn 0.421600 0.190578 -0.886529
vn 0.190026 0.422077 -0.886421
vn 0.190026 0.422077 -0.886421
vn 0.190026 0.422077 -0.886421
vn 0.190026 0.422077 -0.886421
vn -0.193250 0.419286 -0.887048
vn -0.193250 0.419286 -0.887048
vn -0.193250 0.419286 -0.887048
vn -0.193250 0.419286 -0.887048
vn -0.911227 0.411906 0.000000
vn -0.911227 0.411906 0.000000
vn -0.911227 0.411906 0.000000
vn -0.911227 0.411906 0.000000
vn -0.908831 -0.417165 0.000000
vn -0.908831 -0.417165 0.000000
vn -0.908831 -0.417165 0.000000
vn -0.908831 -0.417165 0.000000
vn -0.418582 -0.908179 0.000000
vn -0.418582 -0.908179 0.000000
vn -0.418582 -0.908179 0.000000
vn -0.418582 -0.908179 0.000000
vn 0.410529 -0.911848 0.000000
vn 0.410529 -0.911848 0.000000
vn 0.410529 -0.911848 0.000000
vn 0.410529 -0.911848 0.000000
vn 0.908831 -0.417165 0.000000
vn 0.908831 -0.417165 0.000000
vn 0.908831 -0.417165 0.000000
vn 0.908831 -0.417165 0.000000
vn 0.911227 0.411906 0.000000
vn 0.911227 0.411906 0.000000
vn 0.911227 0.411906 0.000000
vn 0.911227 0.411906 0.000000
vn 0.410529 0.911848 0.000000
vn 0.410529 0.911848 0.000000
vn 0.410529 0.911848 0.000000
vn 0.410529 0.911848 0.000000
vn -0.418582 0.908179 0.000000
vn -0.418582 0.908179 0.000000
vn -0.418582 0.908179 0.000000
vn -0.418582 0.908179 0.000000
vn 0.000000 0.000000 1.000000
vn 0.000000 0.000000 1.000000
vn 0.000000 0.000000 1.000000
vn 0.000000 0.000000 1.000000
vn -0.837492 -0.546450 0.000000
vn -0.837492 -0.546450 0.000000
vn -0.837492 -0.546450 0.000000
vn -0.837492 -0.546450 0.000000
vn 0.000000 0.000000 -1.000000
vn 0.000000 0.000000 -1.000000
vn 0.000000 0.000000 -1.000000
vn 0.000000 0.000000 -1.000000
vn 0.837492 -0.546450 0.000000
vn 0.837492 -0.546450 0.000000
vn 0.837492 -0.546450 0.000000
vn 0.837492 -0.546450 0.000000
vn 0.000000 1.000000 0.000000
vn 0.000000 1.000000 0.000000
vn 0.000000 1.000000 0.000000
vn 0.000000 1.000000 0.000000
vn 0.000000 -1.000000 0.000000
vn 0.000000 -1.000000 0.000000
vn 0.000000 -1.000000 0.000000
vn 0.000000 -1.000000 0.000000
vn -1.000000 -0.000000 0.000000
vn -1.000000 -0.000000 0.000000
vn -1.000000 -0.000000 0.000000
vn -1.000000 -0.000000 0.000000
vn 0.000000 -0.127920 -0.991785
vn 0.000000 -0.127920 -0.991785
vn 0.000000 -0.127920 -0.991785
vn 0.000000 -0.127920 -0.991785
vn 1.000000 0.000000 0.000000
vn 1.000000 0.000000 0.000000
vn 1.000000 0.000000 0.000000
vn 1.000000 0.000000 0.000000
vn 0.000000 0.159099 0.987263
vn 0.000000 0.159099 0.987263
vn 0.000000 0.159099 0.987263
vn 0.000000 0.159099 0.987263
vn 0.000000 0.000000 1.000000
vn 0.000000 0.000000 1.000000
vn 0.000000 0.000000 1.000000
vn 0.000000 0.000000 1.000000
vn -0.837492 0.546450 0.000000
vn -0.837492 0.546450 0.000000
vn -0.837492 0.546450 0.000000
vn -0.837492 0.546450 0.000000
vn 0.000000 0.000000 -1.000000
vn 0.000000 0.000000 -1.000000
vn 0.000000 0.000000 -1.000000
vn 0.000000 0.000000 -1.000000
vn 0.837492 0.546450 0.000000
vn 0.837492 0.546450 0.000000
vn 0.837492 0.546450 0.000000
vn 0.837492 0.546450 0.000000
vn 0.000000 -1.000000 0.000000
vn 0.000000 -1.000000 0.000000
vn 0.000000 -1.000000 0.000000
vn 0.000000 -1.000000 0.000000
vn 0.000000 1.000000 0.000000
vn 0.000000 1.000000 0.000000
vn 0.000000 1.000000 0.000000
vn 0.000000 1.000000 0.000000
vn -1.000000 0.000000 0.000000
vn -1.000000 0.000000 0.000000
vn -1.000000 0.000000 0.000000
vn -1.000000 0.000000 0.000000
vn 0.000000 0.127920 -0.991785
vn 0.000000 0.127920 -0.991785
vn 0.000000 0.127920 -0.991785
vn 0.000000 0.127920 -0.991785
vn 1.000000 -0.000000 0.000000
vn 1.000000 -0.000000 0.000000
vn 1.000000 -0.000000 0.000000
vn 1.000000 -0.000000 0.000000
vn 0.000000 -0.159099 0.987263
vn 0.000000 -0.159099 0.987263
vn 0.000000 -0.159099 0.987263
vn 0.000000 -0.159099 0.987263
vn 0.000000 0.000000 1.000000
vn 0.000000 0.000000 1.000000
vn 0.000000 0.000000 1.000000
vn 0.000000 0.000000 1.000000
vn -0.546450 0.837492 0.000000
vn -0.546450 0.837492 0.000000
vn -0.546450 0.837492 0.000000
vn -0.546450 0.837492 0.000000
vn 0.000000 0.000000 -1.000000
vn 0.000000 0.000000 -1.000000
vn 0.000000 0.000000 -1.000000
vn 0.000000 0.000000 -1.000000
vn -0.546450 -0.837492 0.000000
vn -0.546450 -0.837492 0.000000
vn -0.546450 -0.837492 0.000000
vn -0.546450 -0.837492 0.000000
vn 1.000000 0.000000 0.000000
vn 1.000000 0.000000 0.000000
vn 1.000000 0.000000 0.000000
vn 1.000000 0.000000 0.000000
vn -1.000000 0.000000 0.000000
vn -1.000000 0.000000 0.000000
vn -1.000000 0.000000 0.000000
vn -1.000000 0.000000 0.000000
vn 0.000000 1.000000 0.000000
vn 0.000000 1.000000 0.000000
vn 0.000000 1.000000 0.000000
vn 0.000000 1.000000 0.000000
vn -0.135355 0.000000 -0.990797
vn -0.135355 0.000000 -0.990797
vn -0.135355 0.000000 -0.990797
vn -0.135355 0.000000 -0.990797
vn 0.000000 -1.000000 0.000000
vn 0.000000 -1.000000 0.000000
vn 0.000000 -1.000000 0.000000
vn 0.000000 -1.000000 0.000000
vn 0.135355 0.000000 0.990797
vn 0.135355 0.000000 0.990797
vn 0.135355 0.000000 0.990797
vn 0.135355 0.000000 0.990797
vn -0.000000 0.000000 1.000000
vn -0.000000 0.000000 1.000000
vn -0.000000 0.000000 1.000000
vn -0.000000 0.000000 1.000000
vn 0.546449 0.837492 0.000000
vn 0.546449 0.837492 0.000000
vn 0.546449 0.837492 0.000000
vn 0.546449 0.837492 0.000000
vn -0.000000 0.000000 -1.000000
vn -0.000000 0.000000 -1.000000
vn -0.000000 0.000000 -1.000000
vn -0.000000 0.000000 -1.000000
vn 0.546449 -0.837492 0.000000
vn 0.546449 -0.837492 0.000000
vn 0.546449 -0.837492 0.000000
vn 0.546449 -0.837492 0.000000
vn -1.000000 0.000000 0.000000
vn -1.000000 0.000000 0.000000
vn -1.000000 0.000000 0.000000
vn -1.000000 0.000000 0.000000
vn 1.000000 0.000000 0.000000
vn 1.000000 0.000000 0.000000
vn 1.000000 0.000000 0.000000
vn 1.000000 0.000000 0.000000
vn 0.000000 1.000000 0.000000
vn 0.000000 1.000000 0.000000
vn 0.000000 1.000000 0.000000
vn 0.000000 1.000000 0.000000
vn 0.135355 0.000000 -0.990797
vn 0.135355 0.000000 -0.990797
vn 0.135355 0.000000 -0.990797
vn 0.135355 0.000000 -0.990797
vn 0.000000 -1.000000 0.000000
vn 0.000000 -1.000000 0.000000
vn 0.000000 -1.000000 0.000000
vn 0.000000 -1.000000 0.000000
vn -0.135355 0.000000 0.990797
vn -0.135355 0.000000 0.990797
vn -0.135355 0.000000 0.990797
vn -0.135355 0.000000 0.990797
s off
g pCube11
usemtl initialShadingGroup
f 1/25/1 12/26/2 14/27/3 15/28/4
f 3/34/5 9/33/6 34/39/7 27/40/8
f 16/42/9 17/43/10 11/44/11 7/45/12
f 29/29/13 30/30/14 12/26/15 1/25/16
f 2/31/17 31/36/18 32/37/19 13/32/20
f 29/29/21 1/25/22 15/28/23 28/35/24
f 9/33/25 4/38/26 33/41/27 34/39/28
f 11/44/29 17/43/30 18/48/31 8/49/32
f 12/26/33 30/30/34 31/36/35 2/31/36
f 14/27/37 12/26/38 2/31/39 13/32/40
f 9/33/41 14/27/42 13/32/43 4/38/44
f 15/28/45 14/27/46 9/33/47 3/34/48
f 28/35/49 15/28/50 3/34/51 27/40/52
f 5/46/53 10/47/54 17/43/55 16/42/56
f 18/48/57 17/43/58 10/47/59 6/55/60
f 13/32/61 32/37/62 33/41/63 4/38/64
f 16/42/65 20/52/66 19/53/67 5/46/68
f 7/45/69 21/51/70 20/52/71 16/42/72
f 7/45/73 11/44/74 22/50/75 21/51/76
f 23/57/77 22/50/78 11/44/79 8/49/80
f 24/56/81 23/57/82 8/49/83 18/48/84
f 25/58/85 24/56/86 18/48/87 6/55/88
f 26/54/89 25/58/90 6/55/91 10/47/92
f 19/53/93 26/54/94 10/47/95 5/46/96
f 20/1/97 28/2/98 27/3/99 19/4/100
f 21/5/101 29/6/102 28/2/103 20/1/104
f 21/13/105 22/14/106 30/15/107 29/16/108
f 31/17/109 30/15/110 22/14/111 23/18/112
f 32/7/113 31/8/114 23/9/115 24/10/116
f 33/11/117 32/7/118 24/10/119 25/12/120
f 34/19/121 33/20/122 25/21/123 26/22/124
f 27/23/125 34/19/126 26/22/127 19/24/128
f 35/59/129 46/60/130 43/61/131 37/62/132
f 37/63/133 43/64/134 44/65/135 39/66/136
f 39/67/137 44/68/138 45/69/139 41/70/140
f 41/71/141 45/72/142 46/73/143 35/74/144
f 36/75/145 42/76/146 40/77/147 38/78/148
f 41/71/149 35/74/150 37/63/151 39/66/152
f 43/79/153 38/80/154 40/81/155 44/82/156
f 45/69/157 44/68/158 40/83/159 42/84/160
f 46/85/161 45/86/162 42/87/163 36/88/164
f 43/61/165 46/60/166 36/89/167 38/90/168
f 47/91/169 49/92/170 55/93/171 58/94/172
f 49/95/173 51/96/174 56/97/175 55/98/176
f 51/99/177 53/100/178 57/101/179 56/102/180
f 53/103/181 47/104/182 58/105/183 57/106/184
f 48/107/185 50/108/186 52/109/187 54/110/188
f 53/103/189 51/96/190 49/95/191 47/104/192
f 55/111/193 56/112/194 52/113/195 50/114/196
f 57/101/197 54/115/198 52/116/199 56/102/200
f 58/117/201 48/118/202 54/119/203 57/120/204
f 55/93/205 50/121/206 48/122/207 58/94/208
f 59/123/209 70/124/210 67/125/211 61/126/212
f 61/127/213 67/128/214 68/129/215 63/130/216
f 63/131/217 68/132/218 69/133/219 65/134/220
f 65/135/221 69/136/222 70/137/223 59/138/224
f 60/139/225 66/140/226 64/141/227 62/142/228
f 65/135/229 59/138/230 61/127/231 63/130/232
f 67/143/233 62/144/234 64/145/235 68/146/236
f 69/133/237 68/132/238 64/147/239 66/148/240
f 70/149/241 69/150/242 66/151/243 60/152/244
f 67/125/245 70/124/246 60/153/247 62/154/248
f 71/155/249 73/156/250 79/157/251 82/158/252
f 73/159/253 75/160/254 80/161/255 79/162/256
f 75/163/257 77/164/258 81/165/259 80/166/260
f 77/167/261 71/168/262 82/169/263 81/170/264
f 72/171/265 74/172/266 76/173/267 78/174/268
f 77/167/269 75/160/270 73/159/271 71/168/272
f 79/175/273 80/176/274 76/177/275 74/178/276
f 81/165/277 78/179/278 76/180/279 80/166/280
f 82/181/281 72/182/282 78/183/283 81/184/284
f 79/157/285 74/185/286 72/186/287 82/158/288
