# This file uses centimeters as units for non-parametric coordinates.

mtllib LIGHTNINGBOLT.mtl
g default
v 0.075108 -2.538044 -0.024404
v 0.063891 -2.538044 -0.046419
v 0.046419 -2.538044 -0.063891
v 0.024404 -2.538044 -0.075108
v 0.000000 -2.538044 -0.078973
v -0.024404 -2.538044 -0.075108
v -0.046419 -2.538044 -0.063891
v -0.063891 -2.538044 -0.046419
v -0.075108 -2.538044 -0.024404
v -0.078973 -2.538044 0.000000
v -0.075108 -2.538044 0.024404
v -0.063891 -2.538044 0.046419
v -0.046419 -2.538044 0.063891
v -0.024404 -2.538044 0.075108
v -0.000000 -2.538044 0.078973
v 0.024404 -2.538044 0.075108
v 0.046419 -2.538044 0.063891
v 0.063891 -2.538044 0.046419
v 0.075108 -2.538044 0.024404
v 0.078973 -2.538044 0.000000
v 0.075108 -0.538044 -0.024404
v 0.063891 -0.538044 -0.046419
v 0.046419 -0.538044 -0.063891
v 0.024404 -0.538044 -0.075108
v 0.000000 -0.538044 -0.078973
v -0.024404 -0.538044 -0.075108
v -0.046419 -0.538044 -0.063891
v -0.063891 -0.538044 -0.046419
v -0.075108 -0.538044 -0.024404
v -0.078973 -0.538044 0.000000
v -0.075108 -0.538044 0.024404
v -0.063891 -0.538044 0.046419
v -0.046419 -0.538044 0.063891
v -0.024404 -0.538044 0.075108
v -0.000000 -0.538044 0.078973
v 0.024404 -0.538044 0.075108
v 0.046419 -0.538044 0.063891
v 0.063891 -0.538044 0.046419
v 0.075108 -0.538044 0.024404
v 0.078973 -0.538044 0.000000
v 0.000000 -2.538044 0.000000
v 0.000000 -0.538044 0.000000
vt 0.265398 0.401226
vt 0.253986 0.378830
vt 0.236212 0.361056
vt 0.213816 0.349644
vt 0.188989 0.345712
vt 0.164162 0.349645
vt 0.141766 0.361056
vt 0.123992 0.378830
vt 0.112580 0.401226
vt 0.108648 0.426053
vt 0.112580 0.450880
vt 0.123992 0.473276
vt 0.141766 0.491050
vt 0.164162 0.502462
vt 0.188989 0.506394
vt 0.213816 0.502462
vt 0.236212 0.491050
vt 0.253986 0.473276
vt 0.265398 0.450880
vt 0.269330 0.426053
vt 0.124716 0.506394
vt 0.131144 0.506394
vt 0.137571 0.506394
vt 0.143998 0.506394
vt 0.150425 0.506394
vt 0.156853 0.506394
vt 0.163280 0.506394
vt 0.169707 0.506394
vt 0.176134 0.506394
vt 0.182562 0.506394
vt 0.188989 0.506394
vt 0.195416 0.506394
vt 0.201843 0.506394
vt 0.208271 0.506394
vt 0.214698 0.506394
vt 0.221125 0.506394
vt 0.227552 0.506394
vt 0.233980 0.506394
vt 0.240407 0.506394
vt 0.246834 0.506394
vt 0.253261 0.506394
vt 0.124716 0.699695
vt 0.131144 0.699695
vt 0.137571 0.699695
vt 0.143998 0.699695
vt 0.150425 0.699695
vt 0.156853 0.699695
vt 0.163280 0.699695
vt 0.169707 0.699695
vt 0.176134 0.699695
vt 0.182562 0.699695
vt 0.188989 0.699695
vt 0.195416 0.699695
vt 0.201843 0.699695
vt 0.208271 0.699695
vt 0.214698 0.699695
vt 0.221125 0.699695
vt 0.227552 0.699695
vt 0.233980 0.699695
vt 0.240407 0.699695
vt 0.246834 0.699695
vt 0.253261 0.699695
vt 0.265398 0.754726
vt 0.253986 0.732329
vt 0.236212 0.714555
vt 0.213816 0.703144
vt 0.188989 0.699212
vt 0.164162 0.703144
vt 0.141766 0.714555
vt 0.123992 0.732329
vt 0.112580 0.754726
vt 0.108648 0.779552
vt 0.112580 0.804379
vt 0.123992 0.826776
vt 0.141766 0.844550
vt 0.164162 0.855961
vt 0.188989 0.859893
vt 0.213816 0.855961
vt 0.236212 0.844550
vt 0.253986 0.826776
vt 0.265398 0.804379
vt 0.269330 0.779552
vt 0.188989 0.422840
vt 0.188989 0.776339
vn 0.951057 0.000000 -0.309016
vn 0.809017 0.000000 -0.587785
vn 0.809017 0.000000 -0.587785
vn 0.951057 0.000000 -0.309016
vn 0.587785 0.000000 -0.809017
vn 0.587785 0.000000 -0.809017
vn 0.309017 0.000000 -0.951057
vn 0.309017 0.000000 -0.951057
vn -0.000000 0.000000 -1.000000
vn -0.000000 0.000000 -1.000000
vn -0.309017 0.000000 -0.951056
vn -0.309017 0.000000 -0.951056
vn -0.587785 0.000000 -0.809017
vn -0.587785 0.000000 -0.809017
vn -0.809017 0.000000 -0.587785
vn -0.809017 0.000000 -0.587785
vn -0.951056 0.000000 -0.309017
vn -0.951056 0.000000 -0.309017
vn -1.000000 0.000000 0.000000
vn -1.000000 0.000000 0.000000
vn -0.951057 0.000000 0.309017
vn -0.951057 0.000000 0.309017
vn -0.809017 0.000000 0.587785
vn -0.809017 0.000000 0.587785
vn -0.587785 0.000000 0.809017
vn -0.587785 0.000000 0.809017
vn -0.309017 0.000000 0.951057
vn -0.309017 0.000000 0.951057
vn 0.000000 0.000000 1.000000
vn 0.000000 0.000000 1.000000
vn 0.309017 0.000000 0.951057
vn 0.309017 0.000000 0.951057
vn 0.587785 0.000000 0.809017
vn 0.587785 0.000000 0.809017
vn 0.809017 0.000000 0.587785
vn 0.809017 0.000000 0.587785
vn 0.951057 0.000000 0.309017
vn 0.951057 0.000000 0.309017
vn 1.000000 0.000000 0.000001
vn 1.000000 0.000000 0.000001
vn 0.000000 -1.000000 0.000000
vn 0.000000 -1.000000 0.000000
vn 0.000000 -1.000000 0.000000
vn 0.000000 -1.000000 0.000000
vn 0.000000 -1.000000 0.000000
vn 0.000000 -1.000000 0.000000
vn 0.000000 -1.000000 0.000000
vn 0.000000 -1.000000 0.000000
vn 0.000000 -1.000000 0.000000
vn 0.000000 -1.000000 0.000000
vn 0.000000 -1.000000 0.000000
vn 0.000000 -1.000000 0.000000
vn 0.000000 -1.000000 0.000000
vn 0.000000 -1.000000 0.000000
vn 0.000000 -1.000000 0.000000
vn 0.000000 -1.000000 0.000000
vn 0.000000 -1.000000 0.000000
vn 0.000000 -1.000000 0.000000
vn 0.000000 -1.000000 0.000000
vn 0.000000 -1.000000 0.000000
vn 0.000000 -1.000000 0.000000
vn 0.000000 1.000000 0.000000
vn 0.000000 1.000000 0.000000
vn 0.000000 1.000000 0.000000
vn 0.000000 1.000000 0.000000
vn 0.000000 1.000000 0.000000
vn 0.000000 1.000000 0.000000
vn 0.000000 1.000000 0.000000
vn 0.000000 1.000000 0.000000
vn 0.000000 1.000000 0.000000
vn 0.000000 1.000000 0.000000
vn 0.000000 1.000000 0.000000
vn 0.000000 1.000000 0.000000
vn 0.000000 1.000000 0.000000
vn 0.000000 1.000000 0.000000
vn 0.000000 1.000000 0.000000
vn 0.000000 1.000000 0.000000
vn 0.000000 1.000000 0.000000
vn 0.000000 1.000000 0.000000
vn 0.000000 1.000000 0.000000
vn 0.000000 1.000000 0.000000
vn 0.000000 1.000000 0.000000
s 1
g pCylinder5
usemtl initialShadingGroup
f 1/21/1 2/22/2 22/43/3 21/42/4
f 2/22/2 3/23/5 23/44/6 22/43/3
f 3/23/5 4/24/7 24/45/8 23/44/6
f 4/24/7 5/25/9 25/46/10 24/45/8
f 5/25/9 6/26/11 26/47/12 25/46/10
f 6/26/11 7/27/13 27/48/14 26/47/12
f 7/27/13 8/28/15 28/49/16 27/48/14
f 8/28/15 9/29/17 29/50/18 28/49/16
f 9/29/17 10/30/19 30/51/20 29/50/18
f 10/30/19 11/31/21 31/52/22 30/51/20
f 11/31/21 12/32/23 32/53/24 31/52/22
f 12/32/23 13/33/25 33/54/26 32/53/24
f 13/33/25 14/34/27 34/55/28 33/54/26
f 14/34/27 15/35/29 35/56/30 34/55/28
f 15/35/29 16/36/31 36/57/32 35/56/30
f 16/36/31 17/37/33 37/58/34 36/57/32
f 17/37/33 18/38/35 38/59/36 37/58/34
f 18/38/35 19/39/37 39/60/38 38/59/36
f 19/39/37 20/40/39 40/61/40 39/60/38
f 20/40/39 1/41/1 21/62/4 40/61/40
s 2
f 2/2/41 1/1/42 41/83/43
f 3/3/44 2/2/41 41/83/43
f 4/4/45 3/3/44 41/83/43
f 5/5/46 4/4/45 41/83/43
f 6/6/47 5/5/46 41/83/43
f 7/7/48 6/6/47 41/83/43
f 8/8/49 7/7/48 41/83/43
f 9/9/50 8/8/49 41/83/43
f 10/10/51 9/9/50 41/83/43
f 11/11/52 10/10/51 41/83/43
f 12/12/53 11/11/52 41/83/43
f 13/13/54 12/12/53 41/83/43
f 14/14/55 13/13/54 41/83/43
f 15/15/56 14/14/55 41/83/43
f 16/16/57 15/15/56 41/83/43
f 17/17/58 16/16/57 41/83/43
f 18/18/59 17/17/58 41/83/43
f 19/19/60 18/18/59 41/83/43
f 20/20/61 19/19/60 41/83/43
f 1/1/42 20/20/61 41/83/43
s 3
f 21/81/62 22/80/63 42/84/64
f 22/80/63 23/79/65 42/84/64
f 23/79/65 24/78/66 42/84/64
f 24/78/66 25/77/67 42/84/64
f 25/77/67 26/76/68 42/84/64
f 26/76/68 27/75/69 42/84/64
f 27/75/69 28/74/70 42/84/64
f 28/74/70 29/73/71 42/84/64
f 29/73/71 30/72/72 42/84/64
f 30/72/72 31/71/73 42/84/64
f 31/71/73 32/70/74 42/84/64
f 32/70/74 33/69/75 42/84/64
f 33/69/75 34/68/76 42/84/64
f 34/68/76 35/67/77 42/84/64
f 35/67/77 36/66/78 42/84/64
f 36/66/78 37/65/79 42/84/64
f 37/65/79 38/64/80 42/84/64
f 38/64/80 39/63/81 42/84/64
f 39/63/81 40/82/82 42/84/64
f 40/82/82 21/81/62 42/84/64
g default
v -0.583391 -1.905005 0.100803
v 0.949734 0.596357 0.100803
v -0.251050 1.906981 0.100803
v 0.702548 1.906981 0.100803
v -0.251050 1.906981 -0.100803
v 0.702548 1.906981 -0.100803
v -0.583391 -1.905005 -0.100803
v 0.949734 0.596357 -0.100803
v -0.920354 -0.098339 0.100803
v -0.920354 -0.098339 -0.100803
v 0.051706 0.588166 -0.100803
v 0.051706 0.588166 0.100803
v -0.206354 -0.088460 0.100803
v -0.206354 -0.088460 -0.100803
v 0.748548 0.595273 -0.100803
v 0.748548 0.595273 0.100803
vt 0.375000 0.000000
vt 0.625000 0.000000
vt 0.625000 0.003440
vt 0.375000 0.003440
vt 0.375000 0.250000
vt 0.625000 0.250000
vt 0.625000 0.500000
vt 0.375000 0.500000
vt 0.375000 0.746560
vt 0.625000 0.746560
vt 0.625000 0.750000
vt 0.375000 0.750000
vt 0.625000 1.000000
vt 0.375000 1.000000
vt 0.875000 0.000000
vt 0.875000 0.003440
vt 0.125000 0.000000
vt 0.125000 0.003440
vt 0.125000 0.026000
vt 0.375000 0.026000
vt 0.125000 0.250000
vt 0.625000 0.724000
vt 0.375000 0.724000
vt 0.625000 0.026000
vt 0.875000 0.026000
vt 0.875000 0.250000
vn 0.000000 0.000000 1.000000
vn 0.000000 0.000000 1.000000
vn 0.000000 0.000000 1.000000
vn 0.000000 0.000000 1.000000
vn 0.000000 1.000000 0.000000
vn 0.000000 1.000000 0.000000
vn 0.000000 1.000000 0.000000
vn 0.000000 1.000000 0.000000
vn -0.000000 0.000000 -1.000000
vn -0.000000 0.000000 -1.000000
vn -0.000000 0.000000 -1.000000
vn -0.000000 0.000000 -1.000000
vn 0.852597 -0.522570 0.000000
vn 0.852597 -0.522570 0.000000
vn 0.852597 -0.522570 0.000000
vn 0.852597 -0.522570 0.000000
vn -0.005387 0.999986 0.000000
vn -0.005387 0.999986 0.000000
vn -0.009121 0.999958 0.000000
vn -0.009121 0.999958 0.000000
vn -0.979132 0.203226 0.000000
vn -0.979132 0.203226 0.000000
vn -0.983048 -0.183349 0.000000
vn -0.983048 -0.183349 0.000000
vn -0.999749 -0.022393 0.000000
vn -0.999749 -0.022393 0.000000
vn -0.948561 0.316596 0.000000
vn -0.948561 0.316596 0.000000
vn 0.000000 0.000000 -1.000000
vn 0.000000 0.000000 -1.000000
vn -0.000000 0.000000 -1.000000
vn -0.000000 0.000000 -1.000000
vn 0.999386 0.035047 0.000000
vn 0.999386 0.035047 0.000000
vn 0.896745 -0.442548 0.000000
vn 0.896745 -0.442548 0.000000
vn 0.000000 0.000000 1.000000
vn 0.000000 0.000000 1.000000
vn 0.000000 0.000000 1.000000
vn 0.000000 0.000000 1.000000
vn -0.983048 -0.183349 0.000000
vn -0.983048 -0.183349 0.000000
vn -0.999749 -0.022393 0.000000
vn -0.999749 -0.022393 0.000000
vn -0.000000 0.000000 -1.000000
vn -0.000000 0.000000 -1.000000
vn -0.000000 0.000000 -1.000000
vn -0.000000 0.000000 -1.000000
vn -0.009121 0.999958 0.000000
vn -0.009121 0.999958 0.000000
vn 0.999386 0.035047 0.000000
vn 0.999386 0.035047 0.000000
vn 0.000000 0.000000 1.000000
vn 0.000000 0.000000 1.000000
vn 0.000000 0.000000 1.000000
vn 0.000000 0.000000 1.000000
s off
g LIGHTNINGBOLT:LIGHTNING_BOLT
usemtl LIGHTNINGBOLT:initialShadingGroup
f 43/85/83 44/86/84 58/87/85 55/88/86
f 45/89/87 46/90/88 48/91/89 47/92/90
f 56/93/91 57/94/92 50/95/93 49/96/94
f 49/96/95 50/95/96 44/97/97 43/98/98
f 44/86/99 50/99/100 57/100/101 58/87/102
f 49/101/103 43/85/104 55/88/105 56/102/106
f 52/103/107 51/104/108 45/89/109 47/105/110
f 47/92/111 48/91/112 53/106/113 52/107/114
f 54/108/115 53/109/116 48/110/117 46/90/118
f 51/104/119 54/108/120 46/90/121 45/89/122
f 56/102/123 55/88/124 51/104/125 52/103/126
f 52/107/127 53/106/128 57/94/129 56/93/130
f 58/87/131 57/100/132 53/109/133 54/108/134
f 55/88/135 58/87/136 54/108/137 51/104/138
