# This file uses centimeters as units for non-parametric coordinates.

mtllib STOREFRONT_1.mtl
g default
v -5.156778 -0.171138 -2.605203
v -5.156778 -0.171138 2.605203
v -5.156778 0.582926 -2.605203
v -5.156778 0.582926 2.605203
v 4.983481 0.582926 -2.605203
v 4.983481 0.582926 2.605203
v 4.983481 -0.171138 -2.605203
v 4.983481 -0.171138 2.605203
v 2.026763 0.582926 3.463223
v 2.026763 0.582926 -3.226425
v 2.026763 -0.171138 -3.226425
v 2.026763 -0.171138 3.463223
v -1.998880 0.582926 3.463223
v -1.998880 0.582926 -3.226425
v -1.998880 -0.171138 -3.226425
v -1.998880 -0.171138 3.463223
v 3.850030 0.104237 -2.705208
v 3.850030 0.104237 -2.179439
v 3.850030 5.030935 -2.705208
v 3.850030 5.030935 -2.179439
v 4.431732 5.030935 -2.705208
v 4.431732 5.030935 -2.179439
v 4.431732 0.104237 -2.705208
v 4.431732 0.104237 -2.179439
v -4.023326 0.104237 -2.705208
v -4.023326 0.104237 -2.179439
v -4.023326 5.030935 -2.705208
v -4.023326 5.030935 -2.179439
v -4.605029 5.030935 -2.705208
v -4.605029 5.030935 -2.179439
v -4.605029 0.104237 -2.705208
v -4.605029 0.104237 -2.179439
v 3.850030 0.104237 2.210172
v 3.850030 0.104237 2.735941
v 3.850030 5.030935 2.210172
v 3.850030 5.030935 2.735941
v 4.431732 5.030935 2.210172
v 4.431732 5.030935 2.735941
v 4.431732 0.104237 2.210172
v 4.431732 0.104237 2.735941
v -4.023326 0.104237 2.210172
v -4.023326 0.104237 2.735941
v -4.023326 5.030935 2.210172
v -4.023326 5.030935 2.735941
v -4.605029 5.030935 2.210172
v -4.605029 5.030935 2.735941
v -4.605029 0.104237 2.210172
v -4.605029 0.104237 2.735941
v -5.156778 4.383599 -2.605203
v -5.156778 4.383599 2.605203
v -5.156778 5.137663 -2.605203
v -5.156778 5.137663 2.605203
v 4.983481 5.137663 -2.605203
v 4.983481 5.137663 2.605203
v 4.983481 4.383599 -2.605203
v 4.983481 4.383599 2.605203
v 2.026763 5.137663 3.463223
v 2.026763 5.137663 -3.463223
v 2.026763 4.383599 -3.463223
v 2.026763 4.383599 3.463223
v -1.998880 5.137663 3.463223
v -1.998880 5.137663 -3.463223
v -1.998880 4.383599 -3.463223
v -1.998880 4.383599 3.463223
v -4.362226 0.104237 -2.680563
v -4.362226 0.104237 2.680563
v -4.362226 5.030935 -2.680563
v -4.362226 5.030935 2.680563
v 4.188929 5.030935 -2.680563
v 4.188929 5.030935 2.680563
v 4.188929 0.104237 -2.680563
v 4.188929 0.104237 2.680563
v 2.029964 5.030935 -3.127315
v 2.029964 0.104237 -3.127315
v 2.029964 0.104237 2.680563
v 2.029964 5.030935 2.680563
v -1.997055 5.030935 -3.127315
v -1.997054 0.104237 -3.127315
v -1.997054 0.104237 2.680563
v -1.997055 5.030935 2.680563
vt 0.046568 0.001264
vt 0.056131 0.001264
vt 0.046568 0.010827
vt 0.056131 0.010827
vt 0.046568 0.020389
vt 0.056131 0.020389
vt 0.046568 0.029952
vt 0.056131 0.029952
vt 0.046568 0.039515
vt 0.056131 0.039515
vt 0.065693 0.001264
vt 0.065693 0.010827
vt 0.037005 0.001264
vt 0.037005 0.010827
vt 0.056131 0.017845
vt 0.063149 0.010827
vt 0.039549 0.010827
vt 0.046568 0.017845
vt 0.039549 0.001264
vt 0.046568 0.032497
vt 0.056131 0.032497
vt 0.063149 0.001264
vt 0.056131 0.013584
vt 0.058888 0.010827
vt 0.043810 0.010827
vt 0.046568 0.013584
vt 0.043810 0.001264
vt 0.046568 0.036758
vt 0.056131 0.036758
vt 0.058888 0.001264
vt 0.079036 0.001264
vt 0.088598 0.001264
vt 0.088598 0.010827
vt 0.079036 0.010827
vt 0.088598 0.020389
vt 0.079036 0.020389
vt 0.088598 0.029952
vt 0.079036 0.029952
vt 0.088598 0.039515
vt 0.079036 0.039515
vt 0.098161 0.001264
vt 0.098161 0.010827
vt 0.069473 0.001264
vt 0.069473 0.010827
vt 0.046290 0.042612
vt 0.046290 0.052174
vt 0.055853 0.052174
vt 0.055853 0.042612
vt 0.046290 0.061737
vt 0.055853 0.061737
vt 0.046290 0.071300
vt 0.055853 0.071300
vt 0.046290 0.080863
vt 0.055853 0.080863
vt 0.065416 0.052174
vt 0.065416 0.042612
vt 0.036727 0.042612
vt 0.036727 0.052174
vt 0.077648 0.042334
vt 0.087211 0.042334
vt 0.087211 0.051897
vt 0.077648 0.051897
vt 0.087211 0.061460
vt 0.077648 0.061460
vt 0.087211 0.071023
vt 0.077648 0.071023
vt 0.087211 0.080586
vt 0.077648 0.080586
vt 0.096774 0.042334
vt 0.096774 0.051897
vt 0.068085 0.042334
vt 0.068085 0.051897
vt 0.013267 0.001264
vt 0.013267 0.010827
vt 0.022830 0.010827
vt 0.022830 0.001264
vt 0.013267 0.020389
vt 0.022830 0.020389
vt 0.013267 0.029952
vt 0.022830 0.029952
vt 0.013267 0.039515
vt 0.022830 0.039515
vt 0.032393 0.010827
vt 0.032393 0.001264
vt 0.003705 0.001264
vt 0.003705 0.010827
vt 0.013267 0.042612
vt 0.022830 0.042612
vt 0.022830 0.052174
vt 0.013267 0.052174
vt 0.022830 0.054932
vt 0.013267 0.054932
vt 0.013267 0.061737
vt 0.022830 0.061737
vt 0.022830 0.071300
vt 0.013267 0.071300
vt 0.013267 0.078106
vt 0.022830 0.078106
vt 0.022830 0.080863
vt 0.013267 0.080863
vt 0.025588 0.042612
vt 0.025588 0.052174
vt 0.010510 0.042612
vt 0.010510 0.052174
vt 0.013267 0.059193
vt 0.022830 0.059193
vt 0.003705 0.042612
vt 0.006249 0.042612
vt 0.006249 0.052174
vt 0.003705 0.052174
vt 0.022830 0.073845
vt 0.013267 0.073845
vt 0.029849 0.052174
vt 0.029849 0.042612
vt 0.032393 0.042612
vt 0.032393 0.052174
vt 0.375000 0.000000
vt 0.625000 0.000000
vt 0.625000 0.250000
vt 0.375000 0.250000
vt 0.625000 0.500000
vt 0.375000 0.500000
vt 0.625000 0.750000
vt 0.375000 0.750000
vt 0.625000 1.000000
vt 0.375000 1.000000
vt 0.875000 0.000000
vt 0.875000 0.250000
vt 0.125000 0.000000
vt 0.125000 0.250000
vt 0.188119 0.250000
vt 0.375000 0.436881
vt 0.188119 0.000000
vt 0.375000 0.813119
vt 0.625000 0.813119
vt 0.811881 0.000000
vt 0.625000 0.436881
vt 0.811881 0.250000
vt 0.305852 0.250000
vt 0.375000 0.319148
vt 0.305852 0.000000
vt 0.375000 0.930852
vt 0.625000 0.930852
vt 0.694148 0.000000
vt 0.625000 0.319148
vt 0.694148 0.250000
vn -1.000000 0.000000 0.000000
vn -1.000000 0.000000 0.000000
vn -1.000000 0.000000 0.000000
vn -1.000000 0.000000 0.000000
vn 0.000000 1.000000 0.000000
vn 0.000000 1.000000 0.000000
vn 0.000000 1.000000 0.000000
vn 0.000000 1.000000 0.000000
vn 1.000000 0.000000 0.000000
vn 1.000000 0.000000 0.000000
vn 1.000000 0.000000 0.000000
vn 1.000000 0.000000 0.000000
vn 0.000000 -1.000000 0.000000
vn 0.000000 -1.000000 0.000000
vn 0.000000 -1.000000 0.000000
vn 0.000000 -1.000000 0.000000
vn -0.262200 0.000000 0.965014
vn -0.118600 0.000000 0.992942
vn -0.118600 0.000000 0.992942
vn -0.262200 0.000000 0.965014
vn -0.086157 0.000000 -0.996282
vn -0.193021 0.000000 -0.981195
vn -0.193021 0.000000 -0.981195
vn -0.086157 0.000000 -0.996282
vn 0.000000 1.000000 0.000000
vn 0.000000 1.000000 0.000000
vn 0.000000 1.000000 0.000000
vn 0.000000 1.000000 0.000000
vn 0.205616 0.000000 -0.978633
vn 0.088620 0.000000 -0.996066
vn 0.088620 0.000000 -0.996066
vn 0.205616 0.000000 -0.978633
vn 0.000000 -1.000000 0.000000
vn 0.000000 -1.000000 0.000000
vn 0.000000 -1.000000 0.000000
vn 0.000000 -1.000000 0.000000
vn 0.121967 0.000000 0.992534
vn 0.121967 0.000000 0.992534
vn 0.278696 0.000000 0.960379
vn 0.278696 0.000000 0.960379
vn -1.000000 0.000000 0.000000
vn -1.000000 0.000000 0.000000
vn -1.000000 0.000000 0.000000
vn -1.000000 0.000000 0.000000
vn 0.000000 1.000000 0.000000
vn 0.000000 1.000000 0.000000
vn 0.000000 1.000000 0.000000
vn 0.000000 1.000000 0.000000
vn 1.000000 0.000000 0.000000
vn 1.000000 0.000000 0.000000
vn 1.000000 0.000000 0.000000
vn 1.000000 0.000000 0.000000
vn 0.000000 -1.000000 0.000000
vn 0.000000 -1.000000 0.000000
vn 0.000000 -1.000000 0.000000
vn 0.000000 -1.000000 0.000000
vn 0.000000 0.000000 1.000000
vn 0.000000 0.000000 1.000000
vn 0.000000 0.000000 1.000000
vn 0.000000 0.000000 1.000000
vn 0.000000 0.000000 -1.000000
vn 0.000000 0.000000 -1.000000
vn 0.000000 0.000000 -1.000000
vn 0.000000 0.000000 -1.000000
vn 1.000000 0.000000 0.000000
vn 1.000000 0.000000 0.000000
vn 1.000000 0.000000 0.000000
vn 1.000000 0.000000 0.000000
vn 0.000000 1.000000 0.000000
vn 0.000000 1.000000 0.000000
vn 0.000000 1.000000 0.000000
vn 0.000000 1.000000 0.000000
vn -1.000000 0.000000 0.000000
vn -1.000000 0.000000 0.000000
vn -1.000000 0.000000 0.000000
vn -1.000000 0.000000 0.000000
vn 0.000000 -1.000000 0.000000
vn 0.000000 -1.000000 0.000000
vn 0.000000 -1.000000 0.000000
vn 0.000000 -1.000000 0.000000
vn 0.000000 0.000000 1.000000
vn 0.000000 0.000000 1.000000
vn 0.000000 0.000000 1.000000
vn 0.000000 0.000000 1.000000
vn 0.000000 0.000000 -1.000000
vn 0.000000 0.000000 -1.000000
vn 0.000000 0.000000 -1.000000
vn 0.000000 0.000000 -1.000000
vn -1.000000 0.000000 0.000000
vn -1.000000 0.000000 0.000000
vn -1.000000 0.000000 0.000000
vn -1.000000 0.000000 0.000000
vn 0.000000 1.000000 0.000000
vn 0.000000 1.000000 0.000000
vn 0.000000 1.000000 0.000000
vn 0.000000 1.000000 0.000000
vn 1.000000 0.000000 0.000000
vn 1.000000 0.000000 0.000000
vn 1.000000 0.000000 0.000000
vn 1.000000 0.000000 0.000000
vn 0.000000 -1.000000 0.000000
vn 0.000000 -1.000000 0.000000
vn 0.000000 -1.000000 0.000000
vn 0.000000 -1.000000 0.000000
vn 0.000000 0.000000 1.000000
vn 0.000000 0.000000 1.000000
vn 0.000000 0.000000 1.000000
vn 0.000000 0.000000 1.000000
vn 0.000000 0.000000 -1.000000
vn 0.000000 0.000000 -1.000000
vn 0.000000 0.000000 -1.000000
vn 0.000000 0.000000 -1.000000
vn 1.000000 0.000000 0.000000
vn 1.000000 0.000000 0.000000
vn 1.000000 0.000000 0.000000
vn 1.000000 0.000000 0.000000
vn 0.000000 1.000000 0.000000
vn 0.000000 1.000000 0.000000
vn 0.000000 1.000000 0.000000
vn 0.000000 1.000000 0.000000
vn -1.000000 0.000000 0.000000
vn -1.000000 0.000000 0.000000
vn -1.000000 0.000000 0.000000
vn -1.000000 0.000000 0.000000
vn 0.000000 -1.000000 0.000000
vn 0.000000 -1.000000 0.000000
vn 0.000000 -1.000000 0.000000
vn 0.000000 -1.000000 0.000000
vn 0.000000 0.000000 1.000000
vn 0.000000 0.000000 1.000000
vn 0.000000 0.000000 1.000000
vn 0.000000 0.000000 1.000000
vn 0.000000 0.000000 -1.000000
vn 0.000000 0.000000 -1.000000
vn 0.000000 0.000000 -1.000000
vn 0.000000 0.000000 -1.000000
vn -1.000000 0.000000 0.000000
vn -1.000000 0.000000 0.000000
vn -1.000000 0.000000 0.000000
vn -1.000000 0.000000 0.000000
vn 0.000000 1.000000 0.000000
vn 0.000000 1.000000 0.000000
vn 0.000000 1.000000 0.000000
vn 0.000000 1.000000 0.000000
vn 1.000000 0.000000 0.000000
vn 1.000000 0.000000 0.000000
vn 1.000000 0.000000 0.000000
vn 1.000000 0.000000 0.000000
vn 0.000000 -1.000000 0.000000
vn 0.000000 -1.000000 0.000000
vn 0.000000 -1.000000 0.000000
vn 0.000000 -1.000000 0.000000
vn -0.262200 0.000000 0.965014
vn -0.118600 0.000000 0.992942
vn -0.118600 0.000000 0.992942
vn -0.262200 0.000000 0.965014
vn -0.118600 0.000000 -0.992942
vn -0.262200 0.000000 -0.965014
vn -0.262200 0.000000 -0.965014
vn -0.118600 0.000000 -0.992942
vn 0.000000 1.000000 0.000000
vn 0.000000 1.000000 0.000000
vn 0.000000 1.000000 0.000000
vn 0.000000 1.000000 0.000000
vn 0.278696 0.000000 -0.960379
vn 0.121967 0.000000 -0.992534
vn 0.121967 0.000000 -0.992534
vn 0.278696 0.000000 -0.960379
vn 0.000000 -1.000000 0.000000
vn 0.000000 -1.000000 0.000000
vn 0.000000 -1.000000 0.000000
vn 0.000000 -1.000000 0.000000
vn 0.121967 0.000000 0.992534
vn 0.121967 0.000000 0.992534
vn 0.278696 0.000000 0.960379
vn 0.278696 0.000000 0.960379
vn -1.000000 0.000000 0.000000
vn -1.000000 0.000000 0.000000
vn -1.000000 0.000000 0.000000
vn -1.000000 0.000000 0.000000
vn 0.000000 1.000000 0.000000
vn 0.000000 1.000000 0.000000
vn 0.000000 1.000000 0.000000
vn 0.000000 1.000000 0.000000
vn 1.000000 0.000000 0.000000
vn 1.000000 0.000000 0.000000
vn 1.000000 0.000000 0.000000
vn 1.000000 0.000000 0.000000
vn 0.000000 -1.000000 0.000000
vn 0.000000 -1.000000 0.000000
vn 0.000000 -1.000000 0.000000
vn 0.000000 -1.000000 0.000000
vn 0.000000 0.000000 1.000000
vn 0.000000 0.000000 1.000000
vn 0.000000 0.000000 1.000000
vn 0.000000 0.000000 1.000000
vn -0.069720 0.000000 -0.997567
vn -0.185606 0.000000 -0.982624
vn -0.185606 0.000000 -0.982624
vn -0.069720 0.000000 -0.997567
vn 0.202636 0.000000 -0.979254
vn 0.072032 0.000000 -0.997402
vn 0.072032 0.000000 -0.997402
vn 0.202636 0.000000 -0.979254
vn 0.000000 -1.000000 0.000000
vn 0.000000 -1.000000 0.000000
vn 0.000000 -1.000000 0.000000
vn 0.000000 -1.000000 0.000000
vn 0.000000 0.000000 1.000000
vn 0.000000 0.000000 1.000000
vn 0.000000 0.000000 1.000000
vn 0.000000 0.000000 1.000000
vn 0.000000 1.000000 0.000000
vn 0.000000 1.000000 0.000000
vn 0.000000 1.000000 0.000000
vn 0.000000 1.000000 0.000000
s off
g pCube6
usemtl initialShadingGroup
f 1/1/1 2/2/2 4/4/3 3/3/4
s 1
f 3/3/5 4/4/6 13/23/7 14/26/8
s off
f 5/5/9 6/6/10 8/8/11 7/7/12
s 2
f 15/28/13 16/29/14 2/10/15 1/9/16
s 3
f 2/2/17 16/30/18 13/24/19 4/4/20
s 4
f 15/27/21 1/1/22 3/3/23 14/25/24
s 1
f 10/18/25 9/15/26 6/6/27 5/5/28
s 4
f 7/13/29 11/19/30 10/17/31 5/14/32
s 2
f 7/7/33 8/8/34 12/21/35 11/20/36
s 3
f 9/16/37 12/22/38 8/11/39 6/12/40
s 1
f 14/26/8 13/23/7 9/15/26 10/18/25
s 4
f 11/19/30 15/27/21 14/25/24 10/17/31
s 2
f 11/20/36 12/21/35 16/29/14 15/28/13
s 3
f 13/24/19 16/30/18 12/22/38 9/16/37
s off
f 17/31/41 18/32/42 20/33/43 19/34/44
f 19/34/45 20/33/46 22/35/47 21/36/48
f 21/36/49 22/35/50 24/37/51 23/38/52
f 23/38/53 24/37/54 18/39/55 17/40/56
f 18/32/57 24/41/58 22/42/59 20/33/60
f 23/43/61 17/31/62 19/34/63 21/44/64
f 25/45/65 27/46/66 28/47/67 26/48/68
f 27/46/69 29/49/70 30/50/71 28/47/72
f 29/49/73 31/51/74 32/52/75 30/50/76
f 31/51/77 25/53/78 26/54/79 32/52/80
f 26/48/81 28/47/82 30/55/83 32/56/84
f 31/57/85 29/58/86 27/46/87 25/45/88
f 33/59/89 34/60/90 36/61/91 35/62/92
f 35/62/93 36/61/94 38/63/95 37/64/96
f 37/64/97 38/63/98 40/65/99 39/66/100
f 39/66/101 40/65/102 34/67/103 33/68/104
f 34/60/105 40/69/106 38/70/107 36/61/108
f 39/71/109 33/59/110 35/62/111 37/72/112
f 41/73/113 43/74/114 44/75/115 42/76/116
f 43/74/117 45/77/118 46/78/119 44/75/120
f 45/77/121 47/79/122 48/80/123 46/78/124
f 47/79/125 41/81/126 42/82/127 48/80/128
f 42/76/129 44/75/130 46/83/131 48/84/132
f 47/85/133 45/86/134 43/74/135 41/73/136
f 49/87/137 50/88/138 52/89/139 51/90/140
s 5
f 51/90/141 52/89/142 61/91/143 62/92/144
s off
f 53/93/145 54/94/146 56/95/147 55/96/148
s 6
f 63/97/149 64/98/150 50/99/151 49/100/152
s 7
f 50/88/153 64/101/154 61/102/155 52/89/156
s 8
f 63/103/157 49/87/158 51/90/159 62/104/160
s 5
f 58/105/161 57/106/162 54/94/163 53/93/164
s 8
f 55/107/165 59/108/166 58/109/167 53/110/168
s 6
f 55/96/169 56/95/170 60/111/171 59/112/172
s 7
f 57/113/173 60/114/174 56/115/175 54/116/176
s 5
f 62/92/144 61/91/143 57/106/162 58/105/161
s 8
f 59/108/166 63/103/157 62/104/160 58/109/167
s 6
f 59/112/172 60/111/171 64/98/150 63/97/149
s 7
f 61/102/155 64/101/154 60/114/174 57/113/173
s off
f 65/117/177 66/118/178 68/119/179 67/120/180
s 9
f 67/120/181 68/119/182 80/145/183 77/140/184
s off
f 69/122/185 70/121/186 72/123/187 71/124/188
s 10
f 78/142/189 79/143/190 66/125/191 65/126/192
s 11
f 66/118/193 79/144/194 80/146/195 68/119/196
s 12
f 78/141/197 65/117/198 67/120/199 77/139/200
f 71/129/201 74/133/202 73/131/203 69/130/204
s 10
f 71/124/205 72/123/206 75/135/207 74/134/208
s 11
f 76/138/209 75/136/210 72/127/211 70/128/212
s 9
f 73/132/213 76/137/214 70/121/215 69/122/216
s 12
f 74/133/202 78/141/197 77/139/200 73/131/203
s 10
f 74/134/208 75/135/207 79/143/190 78/142/189
s 11
f 80/146/195 79/144/194 75/136/210 76/138/209
s 9
f 77/140/184 80/145/183 76/137/214 73/132/213
