# This file uses centimeters as units for non-parametric coordinates.

mtllib ROAD.mtl
g default
v 3.030987 -0.113437 24.866220
v 3.366171 -0.113437 24.866220
v 3.030987 0.622706 24.866220
v 3.366171 0.622706 24.866220
v 3.030987 0.622706 -24.866220
v 3.366171 0.622706 -24.866220
v 3.030987 -0.113437 -24.866220
v 3.366171 -0.113437 -24.866220
v -3.029992 -0.113437 24.866220
v -3.365177 -0.113437 24.866220
v -3.029992 0.622706 24.866220
v -3.365177 0.622706 24.866220
v -3.029992 0.622706 -24.866220
v -3.365177 0.622706 -24.866220
v -3.029992 -0.113437 -24.866220
v -3.365177 -0.113437 -24.866220
v -3.351891 -0.182876 24.866220
v 3.351891 -0.182876 24.866220
v -3.351891 0.182876 24.866220
v 3.351891 0.182876 24.866220
v -3.351891 0.182876 -24.866220
v 3.351891 0.182876 -24.866220
v -3.351891 -0.182876 -24.866220
v 3.351891 -0.182876 -24.866220
vt 0.713332 0.011431
vt 0.849561 0.011431
vt 0.849561 0.398032
vt 0.713332 0.398032
vt 0.852595 0.011435
vt 0.988823 0.011435
vt 0.988823 0.398036
vt 0.852595 0.398036
vt 0.563870 0.396918
vt 0.563870 0.010315
vt 0.700098 0.010315
vt 0.700098 0.396918
vt 0.714177 0.906536
vt 0.714177 0.519935
vt 0.850405 0.519935
vt 0.850405 0.906536
vt 0.424607 0.010314
vt 0.560836 0.010314
vt 0.560836 0.396915
vt 0.424607 0.396915
vt 0.852813 0.519936
vt 0.989042 0.519936
vt 0.989042 0.906539
vt 0.852813 0.906539
vt 0.424607 0.010314
vt 0.560836 0.010314
vt 0.560836 0.396915
vt 0.424607 0.396915
vt 0.563870 0.396918
vt 0.563870 0.010315
vt 0.700098 0.010315
vt 0.700098 0.396918
vt 0.852813 0.519936
vt 0.989042 0.519936
vt 0.989042 0.906539
vt 0.852813 0.906539
vt 0.714177 0.906536
vt 0.714177 0.519935
vt 0.850405 0.519935
vt 0.850405 0.906536
vt 0.713332 0.011431
vt 0.849561 0.011431
vt 0.849561 0.398032
vt 0.713332 0.398032
vt 0.852595 0.011435
vt 0.988823 0.011435
vt 0.988823 0.398036
vt 0.852595 0.398036
vt 0.007081 0.008069
vt 0.174769 0.008069
vt 0.174769 0.474698
vt 0.007081 0.474698
vt 0.178503 0.474701
vt 0.178503 0.008069
vt 0.346190 0.008069
vt 0.346190 0.474701
vt 0.179148 0.524407
vt 0.346836 0.524407
vt 0.346836 0.991039
vt 0.179148 0.991039
vt 0.008497 0.991035
vt 0.008497 0.524406
vt 0.176184 0.524406
vt 0.176184 0.991035
vt 0.361794 0.525298
vt 0.529481 0.525298
vt 0.529481 0.991927
vt 0.361794 0.991927
vt 0.533216 0.525302
vt 0.700903 0.525302
vt 0.700903 0.991932
vt 0.533216 0.991932
vn 0.000000 0.000000 1.000000
vn 0.000000 0.000000 1.000000
vn 0.000000 0.000000 1.000000
vn 0.000000 0.000000 1.000000
vn 0.000000 1.000000 0.000000
vn 0.000000 1.000000 0.000000
vn 0.000000 1.000000 0.000000
vn 0.000000 1.000000 0.000000
vn 0.000000 0.000000 -1.000000
vn 0.000000 0.000000 -1.000000
vn 0.000000 0.000000 -1.000000
vn 0.000000 0.000000 -1.000000
vn 0.000000 -1.000000 0.000000
vn 0.000000 -1.000000 0.000000
vn 0.000000 -1.000000 0.000000
vn 0.000000 -1.000000 0.000000
vn 1.000000 0.000000 0.000000
vn 1.000000 0.000000 0.000000
vn 1.000000 0.000000 0.000000
vn 1.000000 0.000000 0.000000
vn -1.000000 0.000000 0.000000
vn -1.000000 0.000000 0.000000
vn -1.000000 0.000000 0.000000
vn -1.000000 0.000000 0.000000
vn 0.000000 0.000000 1.000000
vn 0.000000 0.000000 1.000000
vn 0.000000 0.000000 1.000000
vn 0.000000 0.000000 1.000000
vn 0.000000 1.000000 0.000000
vn 0.000000 1.000000 0.000000
vn 0.000000 1.000000 0.000000
vn 0.000000 1.000000 0.000000
vn 0.000000 0.000000 -1.000000
vn 0.000000 0.000000 -1.000000
vn 0.000000 0.000000 -1.000000
vn 0.000000 0.000000 -1.000000
vn 0.000000 -1.000000 0.000000
vn 0.000000 -1.000000 0.000000
vn 0.000000 -1.000000 0.000000
vn 0.000000 -1.000000 0.000000
vn -1.000000 0.000000 0.000000
vn -1.000000 0.000000 0.000000
vn -1.000000 0.000000 0.000000
vn -1.000000 0.000000 0.000000
vn 1.000000 0.000000 0.000000
vn 1.000000 0.000000 0.000000
vn 1.000000 0.000000 0.000000
vn 1.000000 0.000000 0.000000
vn 0.000000 0.000000 1.000000
vn 0.000000 0.000000 1.000000
vn 0.000000 0.000000 1.000000
vn 0.000000 0.000000 1.000000
vn 0.000000 1.000000 0.000000
vn 0.000000 1.000000 0.000000
vn 0.000000 1.000000 0.000000
vn 0.000000 1.000000 0.000000
vn 0.000000 0.000000 -1.000000
vn 0.000000 0.000000 -1.000000
vn 0.000000 0.000000 -1.000000
vn 0.000000 0.000000 -1.000000
vn 0.000000 -1.000000 0.000000
vn 0.000000 -1.000000 0.000000
vn 0.000000 -1.000000 0.000000
vn 0.000000 -1.000000 0.000000
vn 1.000000 0.000000 0.000000
vn 1.000000 0.000000 0.000000
vn 1.000000 0.000000 0.000000
vn 1.000000 0.000000 0.000000
vn -1.000000 0.000000 0.000000
vn -1.000000 0.000000 0.000000
vn -1.000000 0.000000 0.000000
vn -1.000000 0.000000 0.000000
s off
g Road
usemtl initialShadingGroup
f 1/17/1 2/18/2 4/19/3 3/20/4
f 3/9/5 4/10/6 6/11/7 5/12/8
f 5/21/9 6/22/10 8/23/11 7/24/12
f 7/13/13 8/14/14 2/15/15 1/16/16
f 2/1/17 8/2/18 6/3/19 4/4/20
f 7/5/21 1/6/22 3/7/23 5/8/24
f 9/25/25 11/28/26 12/27/27 10/26/28
f 11/29/29 13/32/30 14/31/31 12/30/32
f 13/33/33 15/36/34 16/35/35 14/34/36
f 15/37/37 9/40/38 10/39/39 16/38/40
f 10/41/41 12/44/42 14/43/43 16/42/44
f 15/45/45 13/48/46 11/47/47 9/46/48
f 17/49/49 18/50/50 20/51/51 19/52/52
f 19/53/53 20/54/54 22/55/55 21/56/56
f 21/57/57 22/58/58 24/59/59 23/60/60
f 23/61/61 24/62/62 18/63/63 17/64/64
f 18/65/65 24/66/66 22/67/67 20/68/68
f 23/69/69 17/70/70 19/71/71 21/72/72
