# This file uses centimeters as units for non-parametric coordinates.

mtllib TOXIC WASTE.mtl
g default
v -0.500000 0.014203 0.500000
v 0.500000 0.014203 0.500000
v -0.500000 1.718834 0.500000
v 0.500000 1.718834 0.500000
v -0.500000 1.718834 -0.500000
v 0.500000 1.718834 -0.500000
v -0.500000 0.014203 -0.500000
v 0.500000 0.014203 -0.500000
v 0.004459 1.718834 -0.652380
v 0.004459 0.014203 -0.652380
v 0.004459 0.014203 0.652380
v 0.004459 1.718834 0.652380
v 0.652380 1.718834 0.007760
v 0.003417 1.718834 0.005947
v -0.652380 1.718834 0.007760
v -0.652380 0.014203 0.007760
v 0.003417 0.014203 0.005947
v 0.652380 0.014203 0.007760
v -0.523744 1.652619 0.523744
v 0.523744 1.652619 0.523744
v -0.523744 1.729363 0.523744
v 0.523744 1.729363 0.523744
v -0.523744 1.729363 -0.523744
v 0.523744 1.729363 -0.523744
v -0.523744 1.652619 -0.523744
v 0.523744 1.652619 -0.523744
v 0.004671 1.729363 -0.683360
v 0.004671 1.652619 -0.683360
v 0.004671 1.652619 0.683360
v 0.004671 1.729363 0.683360
v 0.683360 1.729363 0.008128
v 0.003580 1.729363 0.006230
v -0.683360 1.729363 0.008128
v -0.683360 1.652619 0.008128
v 0.003580 1.652619 0.006230
v 0.683360 1.652619 0.008128
v -0.523744 -0.038372 0.523744
v 0.523744 -0.038372 0.523744
v -0.523744 0.038372 0.523744
v 0.523744 0.038372 0.523744
v -0.523744 0.038372 -0.523744
v 0.523744 0.038372 -0.523744
v -0.523744 -0.038372 -0.523744
v 0.523744 -0.038372 -0.523744
v 0.004671 0.038372 -0.683360
v 0.004671 -0.038372 -0.683360
v 0.004671 -0.038372 0.683360
v 0.004671 0.038372 0.683360
v 0.683360 0.038372 0.008128
v 0.003580 0.038372 0.006230
v -0.683360 0.038372 0.008128
v -0.683360 -0.038372 0.008128
v 0.003580 -0.038372 0.006230
v 0.683360 -0.038372 0.008128
vt 0.458196 0.576408
vt 0.545031 0.576408
vt 0.545031 0.995848
vt 0.458196 0.995848
vt 0.634604 0.576408
vt 0.634604 0.995848
vt 0.353875 0.409882
vt 0.353875 0.298805
vt 0.927348 0.298805
vt 0.927348 0.409882
vt 0.353875 0.524461
vt 0.927348 0.524461
vt 0.764788 0.044487
vt 0.800986 0.033553
vt 0.800911 0.079938
vt 0.753854 0.079808
vt 0.836544 0.044487
vt 0.847478 0.079808
vt 0.800986 0.127177
vt 0.764788 0.116243
vt 0.836544 0.116243
vt 0.896432 0.127177
vt 0.896302 0.080120
vt 0.942688 0.080045
vt 0.931754 0.116243
vt 0.859998 0.116243
vt 0.849063 0.080045
vt 0.896432 0.033553
vt 0.931754 0.044487
vt 0.859998 0.044487
vt 0.817896 0.576408
vt 0.906887 0.576408
vt 0.906887 0.995848
vt 0.817896 0.995848
vt 0.994304 0.576408
vt 0.994304 0.995848
vt 0.638046 0.576408
vt 0.727037 0.576408
vt 0.727037 0.995848
vt 0.638046 0.995848
vt 0.814454 0.576408
vt 0.814454 0.995848
vt 0.020511 0.377126
vt 0.118853 0.377126
vt 0.118853 0.572072
vt 0.020511 0.572072
vt 0.057481 0.052636
vt 0.155823 0.022930
vt 0.155620 0.148949
vt 0.027775 0.148596
vt 0.221289 0.585283
vt 0.319631 0.585283
vt 0.319631 0.780229
vt 0.221289 0.780229
vt 0.286439 0.151621
vt 0.414284 0.151268
vt 0.414487 0.277288
vt 0.316145 0.247582
vt 0.022539 0.780229
vt 0.022539 0.684269
vt 0.217485 0.684269
vt 0.217485 0.780229
vt 0.123403 0.796133
vt 0.219364 0.796133
vt 0.219364 0.991079
vt 0.123403 0.991079
vt 0.416235 0.585283
vt 0.416235 0.780229
vt 0.540797 0.151621
vt 0.511091 0.247582
vt 0.215457 0.377126
vt 0.215457 0.572072
vt 0.252427 0.052636
vt 0.282133 0.148596
vt 0.155823 0.277288
vt 0.252427 0.247582
vt 0.057481 0.247582
vt 0.024417 0.796133
vt 0.024417 0.991079
vt 0.316145 0.052636
vt 0.414487 0.022930
vt 0.511091 0.052636
vt 0.022539 0.585283
vt 0.217485 0.585283
vt 0.020511 0.377126
vt 0.118853 0.377126
vt 0.118853 0.572072
vt 0.020511 0.572072
vt 0.057481 0.052636
vt 0.155823 0.022930
vt 0.155620 0.148949
vt 0.027775 0.148596
vt 0.221289 0.585283
vt 0.319631 0.585283
vt 0.319631 0.780229
vt 0.221289 0.780229
vt 0.286439 0.151621
vt 0.414284 0.151268
vt 0.414487 0.277288
vt 0.316145 0.247582
vt 0.022539 0.780229
vt 0.022539 0.684269
vt 0.217485 0.684269
vt 0.217485 0.780229
vt 0.123403 0.796133
vt 0.219364 0.796133
vt 0.219364 0.991079
vt 0.123403 0.991079
vt 0.416235 0.585283
vt 0.416235 0.780229
vt 0.540797 0.151621
vt 0.511091 0.247582
vt 0.215457 0.377126
vt 0.215457 0.572072
vt 0.252427 0.052636
vt 0.282133 0.148596
vt 0.155823 0.277288
vt 0.252427 0.247582
vt 0.057481 0.247582
vt 0.024417 0.796133
vt 0.024417 0.991079
vt 0.316145 0.052636
vt 0.414487 0.022930
vt 0.511091 0.052636
vt 0.022539 0.585283
vt 0.217485 0.585283
vn -0.289162 0.000000 0.957280
vn 0.000000 0.000000 1.000000
vn 0.000000 0.000000 1.000000
vn -0.289162 0.000000 0.957280
vn 0.000000 1.000000 -0.000000
vn 0.000000 1.000000 -0.000000
vn 0.000000 1.000000 -0.000000
vn 0.000000 1.000000 -0.000000
vn -0.289162 0.000000 -0.957280
vn 0.000000 0.000000 -1.000000
vn 0.000000 0.000000 -1.000000
vn -0.289162 0.000000 -0.957280
vn 0.000000 -1.000000 -0.000000
vn 0.000000 -1.000000 -0.000000
vn 0.000000 -1.000000 0.000000
vn 0.000000 -1.000000 -0.000000
vn 0.955275 0.000000 0.295719
vn 1.000000 0.000000 0.000000
vn 1.000000 0.000000 0.000000
vn 0.955275 0.000000 0.295719
vn -1.000000 0.000000 0.000000
vn -0.955275 0.000000 0.295719
vn -0.955275 0.000000 0.295719
vn -1.000000 0.000000 0.000000
vn 0.293920 0.000000 -0.955830
vn 0.293920 0.000000 -0.955830
vn 0.000000 -1.000000 0.000000
vn 0.000000 -1.000000 0.000000
vn 0.293920 0.000000 0.955830
vn 0.293920 0.000000 0.955830
vn 0.000000 1.000000 0.000000
vn 0.000000 1.000000 0.000000
vn 0.000000 1.000000 0.000000
vn 0.000000 1.000000 0.000000
vn 0.000000 1.000000 0.000000
vn -0.957799 0.000000 -0.287438
vn -0.957799 0.000000 -0.287438
vn 0.000000 -1.000000 -0.000000
vn 0.000000 -1.000000 -0.000000
vn 0.000000 -1.000000 -0.000000
vn 0.957799 0.000000 -0.287438
vn 0.957799 0.000000 -0.287438
vn -0.289162 0.000000 0.957280
vn 0.000000 0.000000 1.000000
vn 0.000000 0.000000 1.000000
vn -0.289162 0.000000 0.957280
vn 0.000000 1.000000 -0.000000
vn 0.000000 1.000000 -0.000000
vn 0.000000 1.000000 -0.000000
vn 0.000000 1.000000 0.000000
vn -0.289162 0.000000 -0.957280
vn 0.000000 0.000000 -1.000000
vn 0.000000 0.000000 -1.000000
vn -0.289162 0.000000 -0.957280
vn 0.000000 -1.000000 0.000000
vn 0.000000 -1.000000 0.000000
vn 0.000000 -1.000000 -0.000000
vn 0.000000 -1.000000 0.000000
vn 0.955275 0.000000 0.295719
vn 1.000000 0.000000 0.000000
vn 1.000000 0.000000 -0.000000
vn 0.955275 0.000000 0.295719
vn -1.000000 0.000000 0.000000
vn -0.955275 0.000000 0.295719
vn -0.955275 0.000000 0.295719
vn -1.000000 0.000000 -0.000000
vn 0.293920 0.000000 -0.955830
vn 0.293920 0.000000 -0.955830
vn 0.000000 -1.000000 0.000000
vn 0.000000 -1.000000 -0.000000
vn 0.293920 0.000000 0.955830
vn 0.293920 0.000000 0.955830
vn 0.000000 1.000000 0.000000
vn 0.000000 1.000000 -0.000000
vn 0.000000 1.000000 0.000000
vn 0.000000 1.000000 -0.000000
vn 0.000000 1.000000 0.000000
vn -0.957799 0.000000 -0.287438
vn -0.957799 0.000000 -0.287438
vn 0.000000 -1.000000 0.000000
vn 0.000000 -1.000000 0.000000
vn 0.000000 -1.000000 0.000000
vn 0.957799 0.000000 -0.287438
vn 0.957799 0.000000 -0.287438
vn -0.289162 0.000000 0.957280
vn 0.000000 0.000000 1.000000
vn 0.000000 0.000000 1.000000
vn -0.289162 0.000000 0.957280
vn 0.000000 1.000000 0.000000
vn 0.000000 1.000000 0.000000
vn 0.000000 1.000000 -0.000000
vn 0.000000 1.000000 -0.000000
vn -0.289162 0.000000 -0.957280
vn 0.000000 0.000000 -1.000000
vn 0.000000 0.000000 -1.000000
vn -0.289162 0.000000 -0.957280
vn 0.000000 -1.000000 -0.000000
vn 0.000000 -1.000000 -0.000000
vn 0.000000 -1.000000 0.000000
vn 0.000000 -1.000000 0.000000
vn 0.955275 0.000000 0.295719
vn 1.000000 0.000000 0.000000
vn 1.000000 0.000000 -0.000000
vn 0.955275 0.000000 0.295719
vn -1.000000 0.000000 0.000000
vn -0.955275 0.000000 0.295719
vn -0.955275 0.000000 0.295719
vn -1.000000 0.000000 -0.000000
vn 0.293920 0.000000 -0.955830
vn 0.293920 0.000000 -0.955830
vn 0.000000 -1.000000 -0.000000
vn 0.000000 -1.000000 0.000000
vn 0.293920 0.000000 0.955830
vn 0.293920 0.000000 0.955830
vn 0.000000 1.000000 0.000000
vn 0.000000 1.000000 0.000000
vn 0.000000 1.000000 -0.000000
vn 0.000000 1.000000 0.000000
vn 0.000000 1.000000 -0.000000
vn -0.957799 0.000000 -0.287438
vn -0.957799 0.000000 -0.287438
vn 0.000000 -1.000000 -0.000000
vn 0.000000 -1.000000 -0.000000
vn 0.000000 -1.000000 -0.000000
vn 0.957799 0.000000 -0.287438
vn 0.957799 0.000000 -0.287438
s 1
g TOXIC_WASTE
usemtl initialShadingGroup
f 1/31/1 11/32/2 12/33/3 3/34/4
s 2
f 3/13/5 12/14/6 14/15/7 15/16/8
s 3
f 5/37/9 9/38/10 10/39/11 7/40/12
s 4
f 16/22/13 17/23/14 11/24/15 1/25/16
s 5
f 2/1/17 18/2/18 13/3/19 4/4/20
s 6
f 16/7/21 1/8/22 3/9/23 15/10/24
s 3
f 9/38/10 6/41/25 8/42/26 10/39/11
s 4
f 11/24/15 17/23/14 18/28/27 2/29/28
s 1
f 12/33/3 11/32/2 2/35/29 4/36/30
s 2
f 14/15/7 12/14/6 4/17/31 13/18/32
f 9/19/33 14/15/7 13/18/32 6/21/34
f 15/16/8 14/15/7 9/19/33 5/20/35
s 6
f 7/11/36 16/7/21 15/10/24 5/12/37
s 4
f 7/26/38 10/27/39 17/23/14 16/22/13
f 18/28/27 17/23/14 10/27/39 8/30/40
s 5
f 13/3/19 18/2/18 8/5/41 6/6/42
s 7
f 19/43/43 29/44/44 30/45/45 21/46/46
s 8
f 21/47/47 30/48/48 32/49/49 33/50/50
s 9
f 23/51/51 27/52/52 28/53/53 25/54/54
s 10
f 34/55/55 35/56/56 29/57/57 19/58/58
s 11
f 20/59/59 36/60/60 31/61/61 22/62/62
s 12
f 34/63/63 19/64/64 21/65/65 33/66/66
s 9
f 27/52/52 24/67/67 26/68/68 28/53/53
s 10
f 29/57/57 35/56/56 36/69/69 20/70/70
s 7
f 30/45/45 29/44/44 20/71/71 22/72/72
s 8
f 32/49/49 30/48/48 22/73/73 31/74/74
f 27/75/75 32/49/49 31/74/74 24/76/76
f 33/50/50 32/49/49 27/75/75 23/77/77
s 12
f 25/78/78 34/63/63 33/66/66 23/79/79
s 10
f 25/80/80 28/81/81 35/56/56 34/55/55
f 36/69/69 35/56/56 28/81/81 26/82/82
s 11
f 31/61/61 36/60/60 26/83/83 24/84/84
s 13
f 37/85/85 47/86/86 48/87/87 39/88/88
s 14
f 39/89/89 48/90/90 50/91/91 51/92/92
s 15
f 41/93/93 45/94/94 46/95/95 43/96/96
s 16
f 52/97/97 53/98/98 47/99/99 37/100/100
s 17
f 38/101/101 54/102/102 49/103/103 40/104/104
s 18
f 52/105/105 37/106/106 39/107/107 51/108/108
s 15
f 45/94/94 42/109/109 44/110/110 46/95/95
s 16
f 47/99/99 53/98/98 54/111/111 38/112/112
s 13
f 48/87/87 47/86/86 38/113/113 40/114/114
s 14
f 50/91/91 48/90/90 40/115/115 49/116/116
f 45/117/117 50/91/91 49/116/116 42/118/118
f 51/92/92 50/91/91 45/117/117 41/119/119
s 18
f 43/120/120 52/105/105 51/108/108 41/121/121
s 16
f 43/122/122 46/123/123 53/98/98 52/97/97
f 54/111/111 53/98/98 46/123/123 44/124/124
s 17
f 49/103/103 54/102/102 44/125/125 42/126/126
