# This file uses centimeters as units for non-parametric coordinates.

mtllib PIPE.mtl
g default
v -0.500000 -0.500000 3.521629
v 0.500000 -0.500000 3.521629
v -0.500000 0.500000 3.521629
v 0.500000 0.500000 3.521629
v -0.500000 0.500000 3.292764
v 0.500000 0.500000 3.292764
v -0.500000 -0.500000 3.292764
v 0.500000 -0.500000 3.292764
v -0.003641 0.659829 3.521629
v -0.003641 0.659829 3.292764
v -0.003641 -0.659829 3.292764
v -0.003641 -0.659829 3.521629
v 0.659829 0.005050 3.521629
v -0.002759 0.003826 3.521629
v -0.659829 0.005050 3.521629
v -0.659829 0.005050 3.292764
v -0.002759 0.003826 3.292764
v 0.659829 0.005050 3.292764
v -0.500000 -0.500000 -3.336862
v 0.500000 -0.500000 -3.336862
v -0.500000 0.500000 -3.336862
v 0.500000 0.500000 -3.336862
v -0.500000 0.500000 -3.565727
v 0.500000 0.500000 -3.565727
v -0.500000 -0.500000 -3.565727
v 0.500000 -0.500000 -3.565727
v -0.003641 0.659829 -3.336862
v -0.003641 0.659829 -3.565727
v -0.003641 -0.659829 -3.565727
v -0.003641 -0.659829 -3.336862
v 0.659829 0.005050 -3.336862
v -0.002759 0.003826 -3.336862
v -0.659829 0.005050 -3.336862
v -0.659829 0.005050 -3.565727
v -0.002759 0.003826 -3.565727
v 0.659829 0.005050 -3.565727
v -0.476391 -0.476391 3.444946
v 0.476391 -0.476391 3.444946
v -0.476391 0.476391 3.444946
v 0.476391 0.476391 3.444946
v -0.476391 0.476391 -3.535597
v 0.476391 0.476391 -3.535597
v -0.476391 -0.476391 -3.535597
v 0.476391 -0.476391 -3.535597
v -0.003469 0.628674 3.444946
v -0.003469 0.628674 -3.535597
v -0.003469 -0.628674 -3.535597
v -0.003469 -0.628674 3.444946
v 0.628674 0.004811 3.444946
v -0.002629 0.003646 3.444946
v -0.628674 0.004811 3.444946
v -0.628674 0.004811 -3.535597
v -0.002629 0.003646 -3.535597
v 0.628674 0.004811 -3.535597
vt 0.005568 0.571903
vt 0.213966 0.571903
vt 0.213966 0.677154
vt 0.005568 0.677154
vt 0.213966 0.780301
vt 0.005568 0.780301
vt 0.003072 0.782958
vt 0.211471 0.782958
vt 0.211471 0.888210
vt 0.003072 0.888210
vt 0.211471 0.991357
vt 0.003072 0.991357
vt 0.430534 0.571903
vt 0.533974 0.571903
vt 0.533974 0.780301
vt 0.430534 0.780301
vt 0.638932 0.571903
vt 0.638932 0.780301
vt 0.218051 0.571903
vt 0.321491 0.571903
vt 0.321491 0.780301
vt 0.218051 0.780301
vt 0.426449 0.571903
vt 0.426449 0.780301
vt 0.053607 0.327539
vt 0.157047 0.294230
vt 0.157231 0.432535
vt 0.020298 0.432790
vt 0.262005 0.327539
vt 0.295313 0.432790
vt 0.157047 0.569245
vt 0.053607 0.535937
vt 0.262005 0.535937
vt 0.299409 0.430686
vt 0.436342 0.430940
vt 0.436158 0.569245
vt 0.332717 0.535937
vt 0.332717 0.327539
vt 0.436158 0.294231
vt 0.574424 0.430686
vt 0.541116 0.535937
vt 0.541116 0.327539
vt 0.053607 0.327539
vt 0.157047 0.294230
vt 0.157231 0.432535
vt 0.020298 0.432790
vt 0.430534 0.571903
vt 0.533974 0.571903
vt 0.533974 0.780301
vt 0.430534 0.780301
vt 0.299409 0.430686
vt 0.436342 0.430940
vt 0.436158 0.569245
vt 0.332717 0.535937
vt 0.218051 0.571903
vt 0.321491 0.571903
vt 0.321491 0.780301
vt 0.218051 0.780301
vt 0.005568 0.571903
vt 0.213966 0.571903
vt 0.213966 0.677154
vt 0.005568 0.677154
vt 0.003072 0.782958
vt 0.211471 0.782958
vt 0.211471 0.888210
vt 0.003072 0.888210
vt 0.638932 0.571903
vt 0.638932 0.780301
vt 0.574424 0.430686
vt 0.541116 0.535937
vt 0.426449 0.571903
vt 0.426449 0.780301
vt 0.262005 0.327539
vt 0.295313 0.432790
vt 0.157047 0.569245
vt 0.262005 0.535937
vt 0.053607 0.535937
vt 0.211471 0.991357
vt 0.003072 0.991357
vt 0.332717 0.327539
vt 0.436158 0.294230
vt 0.541116 0.327539
vt 0.213966 0.780301
vt 0.005568 0.780301
vt 0.053053 0.041221
vt 0.157778 0.007499
vt 0.157964 0.147520
vt 0.019332 0.147779
vt 0.808265 0.026104
vt 0.891547 0.026104
vt 0.891547 0.477678
vt 0.808265 0.477678
vt 0.301907 0.145648
vt 0.440538 0.145906
vt 0.440352 0.285927
vt 0.335628 0.252205
vt 0.637192 0.026104
vt 0.720473 0.026104
vt 0.720473 0.477678
vt 0.637192 0.477678
vt 0.972707 0.494571
vt 0.972540 0.974741
vt 0.887528 0.974500
vt 0.887695 0.494330
vt 0.802259 0.495362
vt 0.802092 0.975531
vt 0.717080 0.975291
vt 0.717247 0.495122
vt 0.976050 0.026104
vt 0.976050 0.477678
vt 0.580334 0.145648
vt 0.546613 0.252205
vt 0.804977 0.026104
vt 0.804977 0.477678
vt 0.264038 0.041221
vt 0.297760 0.147779
vt 0.157778 0.285927
vt 0.264038 0.252205
vt 0.053053 0.252205
vt 0.633767 0.975055
vt 0.633934 0.494886
vt 0.335628 0.041221
vt 0.440352 0.007499
vt 0.546613 0.041221
vt 0.804215 0.974264
vt 0.804382 0.494095
vn 0.000000 0.000000 1.000000
vn 0.000000 0.000000 1.000000
vn 0.000000 0.000000 1.000000
vn -0.000000 0.000000 1.000000
vn -0.306505 0.951869 0.000000
vn 0.000000 1.000000 0.000000
vn 0.000000 1.000000 0.000000
vn -0.306505 0.951869 0.000000
vn 0.000000 0.000000 -1.000000
vn 0.000000 0.000000 -1.000000
vn 0.000000 0.000000 -1.000000
vn 0.000000 0.000000 -1.000000
vn -0.306505 -0.951869 0.000000
vn 0.000000 -1.000000 0.000000
vn 0.000000 -1.000000 0.000000
vn -0.306505 -0.951869 0.000000
vn 0.953398 -0.301715 0.000000
vn 0.953398 -0.301715 0.000000
vn 1.000000 0.000000 0.000000
vn 1.000000 0.000000 0.000000
vn -0.953398 -0.301715 0.000000
vn -0.953398 -0.301715 0.000000
vn -1.000000 0.000000 0.000000
vn -1.000000 0.000000 0.000000
vn 0.302482 0.953155 0.000000
vn 0.302482 0.953155 0.000000
vn 0.000000 0.000000 -1.000000
vn 0.000000 0.000000 -1.000000
vn 0.302482 -0.953155 0.000000
vn 0.302482 -0.953155 0.000000
vn 0.000000 0.000000 1.000000
vn 0.000000 0.000000 1.000000
vn -0.000000 0.000000 1.000000
vn 0.000000 0.000000 1.000000
vn -0.000000 0.000000 1.000000
vn -0.951614 0.307295 0.000000
vn -0.951614 0.307295 0.000000
vn 0.000000 0.000000 -1.000000
vn 0.000000 0.000000 -1.000000
vn 0.000000 0.000000 -1.000000
vn 0.951614 0.307295 0.000000
vn 0.951614 0.307295 0.000000
vn 0.000000 0.000000 1.000000
vn 0.000000 0.000000 1.000000
vn 0.000000 0.000000 1.000000
vn 0.000000 0.000000 1.000000
vn -0.306505 0.951869 0.000000
vn 0.000000 1.000000 0.000000
vn 0.000000 1.000000 0.000000
vn -0.306505 0.951869 0.000000
vn 0.000000 0.000000 -1.000000
vn 0.000000 0.000000 -1.000000
vn 0.000000 0.000000 -1.000000
vn 0.000000 0.000000 -1.000000
vn -0.306505 -0.951869 0.000000
vn 0.000000 -1.000000 0.000000
vn 0.000000 -1.000000 0.000000
vn -0.306505 -0.951869 0.000000
vn 0.953398 -0.301715 0.000000
vn 0.953398 -0.301715 0.000000
vn 1.000000 0.000000 0.000000
vn 1.000000 0.000000 0.000000
vn -0.953398 -0.301715 0.000000
vn -0.953398 -0.301715 0.000000
vn -1.000000 0.000000 0.000000
vn -1.000000 0.000000 0.000000
vn 0.302482 0.953155 0.000000
vn 0.302482 0.953155 0.000000
vn -0.000000 0.000000 -1.000000
vn 0.000000 0.000000 -1.000000
vn 0.302482 -0.953155 0.000000
vn 0.302482 -0.953155 0.000000
vn -0.000000 0.000000 1.000000
vn 0.000000 0.000000 1.000000
vn 0.000000 0.000000 1.000000
vn 0.000000 0.000000 1.000000
vn -0.000000 0.000000 1.000000
vn -0.951614 0.307295 0.000000
vn -0.951614 0.307295 0.000000
vn 0.000000 0.000000 -1.000000
vn -0.000000 0.000000 -1.000000
vn -0.000000 0.000000 -1.000000
vn 0.951614 0.307295 0.000000
vn 0.951614 0.307295 0.000000
vn -0.000001 0.000000 1.000000
vn -0.000000 0.000000 1.000000
vn -0.000000 0.000000 1.000000
vn -0.000001 0.000000 1.000000
vn -0.306505 0.951869 0.000000
vn -0.000000 1.000000 0.000000
vn -0.000000 1.000000 0.000000
vn -0.306505 0.951869 0.000000
vn 0.000000 0.000000 -1.000000
vn 0.000000 0.000000 -1.000000
vn 0.000000 0.000000 -1.000000
vn 0.000000 0.000000 -1.000000
vn -0.306505 -0.951869 0.000000
vn -0.000000 -1.000000 0.000000
vn -0.000000 -1.000000 0.000000
vn -0.306505 -0.951869 0.000000
vn 0.953398 -0.301715 0.000000
vn 0.953398 -0.301715 0.000000
vn 1.000000 0.000000 0.000000
vn 1.000000 0.000000 0.000000
vn -0.953398 -0.301715 0.000000
vn -0.953398 -0.301715 0.000000
vn -1.000000 0.000000 0.000000
vn -1.000000 0.000000 0.000000
vn 0.302482 0.953155 0.000000
vn 0.302482 0.953155 0.000000
vn -0.000000 0.000000 -1.000000
vn 0.000000 0.000000 -1.000000
vn 0.302482 -0.953155 0.000000
vn 0.302482 -0.953155 0.000000
vn 0.000000 0.000000 1.000000
vn 0.000000 0.000000 1.000000
vn -0.000000 0.000000 1.000000
vn 0.000000 0.000000 1.000000
vn -0.000001 0.000000 1.000000
vn -0.951614 0.307295 0.000000
vn -0.951614 0.307295 0.000000
vn 0.000001 0.000000 -1.000000
vn -0.000000 0.000000 -1.000000
vn -0.000001 0.000000 -1.000000
vn 0.951614 0.307295 0.000000
vn 0.951614 0.307295 0.000000
s 1
g Pipe
usemtl initialShadingGroup
f 1/25/1 12/26/2 14/27/3 15/28/4
s 2
f 3/13/5 9/14/6 10/15/7 5/16/8
s 3
f 16/34/9 17/35/10 11/36/11 7/37/12
s 4
f 7/19/13 11/20/14 12/21/15 1/22/16
s 5
f 2/1/17 8/2/18 18/3/19 13/4/20
s 6
f 7/7/21 1/8/22 15/9/23 16/10/24
s 2
f 9/14/6 4/17/25 6/18/26 10/15/7
s 3
f 11/36/11 17/35/10 18/40/27 8/41/28
s 4
f 12/21/15 11/20/14 8/23/29 2/24/30
s 1
f 14/27/3 12/26/2 2/29/31 13/30/32
f 9/31/33 14/27/3 13/30/32 4/33/34
f 15/28/4 14/27/3 9/31/33 3/32/35
s 6
f 16/10/24 15/9/23 3/11/36 5/12/37
s 3
f 5/38/38 10/39/39 17/35/10 16/34/9
f 18/40/27 17/35/10 10/39/39 6/42/40
s 5
f 13/4/20 18/3/19 6/5/41 4/6/42
s 7
f 19/43/43 30/44/44 32/45/45 33/46/46
s 8
f 21/47/47 27/48/48 28/49/49 23/50/50
s 9
f 34/51/51 35/52/52 29/53/53 25/54/54
s 10
f 25/55/55 29/56/56 30/57/57 19/58/58
s 11
f 20/59/59 26/60/60 36/61/61 31/62/62
s 12
f 25/63/63 19/64/64 33/65/65 34/66/66
s 8
f 27/48/48 22/67/67 24/68/68 28/49/49
s 9
f 29/53/53 35/52/52 36/69/69 26/70/70
s 10
f 30/57/57 29/56/56 26/71/71 20/72/72
s 7
f 32/45/45 30/44/44 20/73/73 31/74/74
f 27/75/75 32/45/45 31/74/74 22/76/76
f 33/46/46 32/45/45 27/75/75 21/77/77
s 12
f 34/66/66 33/65/65 21/78/78 23/79/79
s 9
f 23/80/80 28/81/81 35/52/52 34/51/51
f 36/69/69 35/52/52 28/81/81 24/82/82
s 11
f 31/62/62 36/61/61 24/83/83 22/84/84
s 13
f 37/85/85 48/86/86 50/87/87 51/88/88
s 14
f 39/89/89 45/90/90 46/91/91 41/92/92
s 15
f 52/93/93 53/94/94 47/95/95 43/96/96
s 16
f 43/97/97 47/98/98 48/99/99 37/100/100
s 17
f 38/101/101 44/102/102 54/103/103 49/104/104
s 18
f 43/105/105 37/106/106 51/107/107 52/108/108
s 14
f 45/90/90 40/109/109 42/110/110 46/91/91
s 15
f 47/95/95 53/94/94 54/111/111 44/112/112
s 16
f 48/99/99 47/98/98 44/113/113 38/114/114
s 13
f 50/87/87 48/86/86 38/115/115 49/116/116
f 45/117/117 50/87/87 49/116/116 40/118/118
f 51/88/88 50/87/87 45/117/117 39/119/119
s 18
f 52/108/108 51/107/107 39/120/120 41/121/121
s 15
f 41/122/122 46/123/123 53/94/94 52/93/93
f 54/111/111 53/94/94 46/123/123 42/124/124
s 17
f 49/104/104 54/103/103 42/125/125 40/126/126
