# This file uses centimeters as units for non-parametric coordinates.

mtllib BOOST.mtl
g default
v -3.144721 -1.810835 0.500000
v -2.144721 -1.810835 0.500000
v -3.144721 1.752814 0.500000
v -2.144721 1.752814 0.500000
v -3.144721 1.752814 -0.500000
v -2.144721 1.752814 -0.500000
v -3.144721 -1.810835 -0.500000
v -2.144721 -1.810835 -0.500000
v -1.799045 0.313719 -0.500000
v -1.799045 0.313719 0.500000
v -0.799045 0.313719 0.500000
v -0.799045 0.313719 -0.500000
v -1.799045 -0.410700 -0.500000
v -1.799045 -0.410700 0.500000
v -0.799045 -0.410700 0.500000
v -0.799045 -0.410700 -0.500000
v -2.494814 -1.238728 0.650000
v -1.815952 -1.238728 0.650000
v -2.494814 1.180499 0.650000
v -1.815952 1.180499 0.650000
v -2.494814 1.180499 -0.650000
v -1.815952 1.180499 -0.650000
v -2.494814 -1.238728 -0.650000
v -1.815952 -1.238728 -0.650000
v -1.581285 0.203552 -0.650000
v -1.581285 0.203552 0.650000
v -0.902423 0.203552 0.650000
v -0.902423 0.203552 -0.650000
v -1.581285 -0.288229 -0.650000
v -1.581285 -0.288229 0.650000
v -0.902423 -0.288229 0.650000
v -0.902423 -0.288229 -0.650000
v 0.855279 -1.810835 0.500000
v 1.855279 -1.810835 0.500000
v 0.855279 1.752814 0.500000
v 1.855279 1.752814 0.500000
v 0.855279 1.752814 -0.500000
v 1.855279 1.752814 -0.500000
v 0.855279 -1.810835 -0.500000
v 1.855279 -1.810835 -0.500000
v 2.200955 0.313719 -0.500000
v 2.200955 0.313719 0.500000
v 3.200955 0.313719 0.500000
v 3.200955 0.313719 -0.500000
v 2.200955 -0.410700 -0.500000
v 2.200955 -0.410700 0.500000
v 3.200955 -0.410700 0.500000
v 3.200955 -0.410700 -0.500000
v -1.144721 -1.810835 0.500000
v -0.144721 -1.810835 0.500000
v -1.144721 1.752814 0.500000
v -0.144721 1.752814 0.500000
v -1.144721 1.752814 -0.500000
v -0.144721 1.752814 -0.500000
v -1.144721 -1.810835 -0.500000
v -0.144721 -1.810835 -0.500000
v 0.200955 0.313719 -0.500000
v 0.200955 0.313719 0.500000
v 1.200955 0.313719 0.500000
v 1.200955 0.313719 -0.500000
v 0.200955 -0.410700 -0.500000
v 0.200955 -0.410700 0.500000
v 1.200955 -0.410700 0.500000
v 1.200955 -0.410700 -0.500000
v 1.504995 -1.238728 0.650000
v 2.183857 -1.238728 0.650000
v 1.504995 1.180499 0.650000
v 2.183857 1.180499 0.650000
v 1.504995 1.180499 -0.650000
v 2.183857 1.180499 -0.650000
v 1.504995 -1.238728 -0.650000
v 2.183857 -1.238728 -0.650000
v 2.418524 0.203552 -0.650000
v 2.418524 0.203552 0.650000
v 3.097386 0.203552 0.650000
v 3.097386 0.203552 -0.650000
v 2.418524 -0.288229 -0.650000
v 2.418524 -0.288229 0.650000
v 3.097386 -0.288229 0.650000
v 3.097386 -0.288229 -0.650000
v -0.495005 -1.238728 0.650000
v 0.183857 -1.238728 0.650000
v -0.495005 1.180499 0.650000
v 0.183857 1.180499 0.650000
v -0.495005 1.180499 -0.650000
v 0.183857 1.180499 -0.650000
v -0.495005 -1.238728 -0.650000
v 0.183857 -1.238728 -0.650000
v 0.418524 0.203552 -0.650000
v 0.418524 0.203552 0.650000
v 1.097386 0.203552 0.650000
v 1.097386 0.203552 -0.650000
v 0.418524 -0.288229 -0.650000
v 0.418524 -0.288229 0.650000
v 1.097386 -0.288229 0.650000
v 1.097386 -0.288229 -0.650000
vt 0.774762 0.559344
vt 0.879095 0.559344
vt 0.774762 0.663677
vt 0.879095 0.663677
vt 0.774762 0.768009
vt 0.879095 0.768009
vt 0.774762 0.872342
vt 0.879095 0.872342
vt 0.774762 0.976674
vt 0.879095 0.976674
vt 0.983427 0.559344
vt 0.983427 0.663677
vt 0.670430 0.559344
vt 0.670430 0.663677
vt 0.670430 0.647302
vt 0.774762 0.784384
vt 0.774762 0.647302
vt 0.879095 0.647302
vt 0.879095 0.784384
vt 0.983427 0.647302
vt 0.670430 0.571722
vt 0.774762 0.859964
vt 0.774762 0.571722
vt 0.879095 0.571722
vt 0.879095 0.859964
vt 0.983427 0.571722
vt 0.445501 0.060871
vt 0.550795 0.060871
vt 0.445501 0.166166
vt 0.550795 0.166166
vt 0.445501 0.271461
vt 0.550795 0.271461
vt 0.445501 0.376756
vt 0.550795 0.376756
vt 0.445501 0.482051
vt 0.550795 0.482051
vt 0.656091 0.060871
vt 0.656091 0.166166
vt 0.340206 0.060871
vt 0.340206 0.166166
vt 0.340206 0.149640
vt 0.445501 0.287987
vt 0.445501 0.149640
vt 0.550795 0.149640
vt 0.550795 0.287987
vt 0.656091 0.149640
vt 0.340206 0.073363
vt 0.445501 0.364264
vt 0.445501 0.073363
vt 0.550795 0.073363
vt 0.550795 0.364264
vt 0.656091 0.073363
vt 0.453171 0.559344
vt 0.557504 0.559344
vt 0.453171 0.663677
vt 0.557504 0.663677
vt 0.453171 0.768009
vt 0.557504 0.768009
vt 0.453171 0.872342
vt 0.557504 0.872342
vt 0.453171 0.976674
vt 0.557504 0.976674
vt 0.661836 0.559344
vt 0.661836 0.663677
vt 0.348839 0.559344
vt 0.348839 0.663677
vt 0.348839 0.647302
vt 0.453171 0.784384
vt 0.453171 0.647302
vt 0.557504 0.647302
vt 0.557504 0.784384
vt 0.661836 0.647302
vt 0.348839 0.571722
vt 0.453171 0.859964
vt 0.453171 0.571722
vt 0.557504 0.571722
vt 0.557504 0.859964
vt 0.661836 0.571722
vt 0.127175 0.559344
vt 0.231507 0.559344
vt 0.127175 0.663677
vt 0.231507 0.663677
vt 0.127175 0.768009
vt 0.231507 0.768009
vt 0.127175 0.872342
vt 0.231507 0.872342
vt 0.127175 0.976674
vt 0.231507 0.976674
vt 0.335840 0.559344
vt 0.335840 0.663677
vt 0.022842 0.559344
vt 0.022842 0.663677
vt 0.022842 0.647302
vt 0.127175 0.784384
vt 0.127175 0.647302
vt 0.231507 0.647302
vt 0.231507 0.784384
vt 0.335840 0.647302
vt 0.022842 0.571722
vt 0.127175 0.859964
vt 0.127175 0.571722
vt 0.231507 0.571722
vt 0.231507 0.859964
vt 0.335840 0.571722
vt 0.775986 0.060871
vt 0.881282 0.060871
vt 0.775986 0.166166
vt 0.881282 0.166166
vt 0.775986 0.271461
vt 0.881282 0.271461
vt 0.775986 0.376756
vt 0.881282 0.376756
vt 0.775986 0.482051
vt 0.881282 0.482051
vt 0.986576 0.060871
vt 0.986576 0.166166
vt 0.670691 0.060871
vt 0.670691 0.166166
vt 0.670691 0.149640
vt 0.775986 0.287987
vt 0.775986 0.149640
vt 0.881282 0.149640
vt 0.881282 0.287987
vt 0.986576 0.149640
vt 0.670691 0.073363
vt 0.775986 0.364264
vt 0.775986 0.073363
vt 0.881282 0.073363
vt 0.881282 0.364264
vt 0.986576 0.073363
vt 0.116497 0.060871
vt 0.221792 0.060871
vt 0.116497 0.166166
vt 0.221792 0.166166
vt 0.116497 0.271461
vt 0.221792 0.271461
vt 0.116497 0.376756
vt 0.221792 0.376756
vt 0.116497 0.482051
vt 0.221792 0.482051
vt 0.327087 0.060871
vt 0.327087 0.166166
vt 0.011202 0.060871
vt 0.011202 0.166166
vt 0.011202 0.149640
vt 0.116497 0.287987
vt 0.116497 0.149640
vt 0.221792 0.149640
vt 0.221792 0.287987
vt 0.327087 0.149640
vt 0.011202 0.073363
vt 0.116497 0.364264
vt 0.116497 0.073363
vt 0.221792 0.073363
vt 0.221792 0.364264
vt 0.327087 0.073363
vn 0.000000 0.000000 1.000000
vn 0.000000 0.000000 1.000000
vn 0.000000 0.000000 1.000000
vn 0.000000 0.000000 1.000000
vn 0.000000 1.000000 0.000000
vn 0.000000 1.000000 0.000000
vn 0.000000 1.000000 0.000000
vn 0.000000 1.000000 0.000000
vn 0.000000 0.000000 -1.000000
vn 0.000000 0.000000 -1.000000
vn 0.000000 0.000000 -1.000000
vn 0.000000 0.000000 -1.000000
vn 0.000000 -1.000000 0.000000
vn 0.000000 -1.000000 0.000000
vn 0.000000 -1.000000 0.000000
vn 0.000000 -1.000000 0.000000
vn 0.849146 0.528158 0.000000
vn 0.849146 0.528158 0.000000
vn 0.730417 0.683002 0.000000
vn 0.730417 0.683002 0.000000
vn -0.849146 -0.528158 0.000000
vn -0.849146 -0.528158 0.000000
vn -0.730417 -0.683002 0.000000
vn -0.730417 -0.683002 0.000000
vn -0.844797 0.535088 0.000000
vn -0.844797 0.535088 0.000000
vn -0.849146 -0.528158 0.000000
vn -0.849146 -0.528158 0.000000
vn 0.000000 0.000000 1.000000
vn 0.000000 0.000000 1.000000
vn 0.000000 0.000000 1.000000
vn 0.000000 0.000000 1.000000
vn 0.844797 -0.535088 0.000000
vn 0.844797 -0.535088 0.000000
vn 0.849146 0.528158 0.000000
vn 0.849146 0.528158 0.000000
vn 0.000000 0.000000 -1.000000
vn 0.000000 0.000000 -1.000000
vn 0.000000 0.000000 -1.000000
vn 0.000000 0.000000 -1.000000
vn -0.720989 0.692946 0.000000
vn -0.720989 0.692946 0.000000
vn -0.844797 0.535088 0.000000
vn -0.844797 0.535088 0.000000
vn 0.000000 0.000000 1.000000
vn 0.000000 0.000000 1.000000
vn 0.000000 0.000000 1.000000
vn 0.000000 0.000000 1.000000
vn 0.720989 -0.692946 0.000000
vn 0.720989 -0.692946 0.000000
vn 0.844797 -0.535088 0.000000
vn 0.844797 -0.535088 0.000000
vn 0.000000 0.000000 -1.000000
vn 0.000000 0.000000 -1.000000
vn 0.000000 0.000000 -1.000000
vn 0.000000 0.000000 -1.000000
vn 0.000000 0.000000 1.000000
vn 0.000000 0.000000 1.000000
vn 0.000000 0.000000 1.000000
vn 0.000000 0.000000 1.000000
vn 0.000000 1.000000 0.000000
vn 0.000000 1.000000 0.000000
vn 0.000000 1.000000 0.000000
vn 0.000000 1.000000 0.000000
vn 0.000000 0.000000 -1.000000
vn 0.000000 0.000000 -1.000000
vn 0.000000 0.000000 -1.000000
vn 0.000000 0.000000 -1.000000
vn 0.000000 -1.000000 0.000000
vn 0.000000 -1.000000 0.000000
vn 0.000000 -1.000000 0.000000
vn 0.000000 -1.000000 0.000000
vn 0.849146 0.528158 0.000000
vn 0.849146 0.528158 0.000000
vn 0.730417 0.683002 0.000000
vn 0.730417 0.683002 0.000000
vn -0.849146 -0.528158 0.000000
vn -0.849146 -0.528158 0.000000
vn -0.730417 -0.683002 0.000000
vn -0.730417 -0.683002 0.000000
vn -0.844797 0.535088 0.000000
vn -0.844797 0.535088 0.000000
vn -0.849146 -0.528158 0.000000
vn -0.849146 -0.528158 0.000000
vn 0.000000 0.000000 1.000000
vn 0.000000 0.000000 1.000000
vn 0.000000 0.000000 1.000000
vn 0.000000 0.000000 1.000000
vn 0.844797 -0.535088 0.000000
vn 0.844797 -0.535088 0.000000
vn 0.849146 0.528158 0.000000
vn 0.849146 0.528158 0.000000
vn 0.000000 0.000000 -1.000000
vn 0.000000 0.000000 -1.000000
vn 0.000000 0.000000 -1.000000
vn 0.000000 0.000000 -1.000000
vn -0.720989 0.692946 0.000000
vn -0.720989 0.692946 0.000000
vn -0.844797 0.535088 0.000000
vn -0.844797 0.535088 0.000000
vn 0.000000 0.000000 1.000000
vn 0.000000 0.000000 1.000000
vn 0.000000 0.000000 1.000000
vn 0.000000 0.000000 1.000000
vn 0.720989 -0.692946 0.000000
vn 0.720989 -0.692946 0.000000
vn 0.844797 -0.535088 0.000000
vn 0.844797 -0.535088 0.000000
vn 0.000000 0.000000 -1.000000
vn 0.000000 0.000000 -1.000000
vn 0.000000 0.000000 -1.000000
vn 0.000000 0.000000 -1.000000
vn 0.000000 0.000000 1.000000
vn 0.000000 0.000000 1.000000
vn 0.000000 0.000000 1.000000
vn 0.000000 0.000000 1.000000
vn 0.000000 1.000000 0.000000
vn 0.000000 1.000000 0.000000
vn 0.000000 1.000000 0.000000
vn 0.000000 1.000000 0.000000
vn 0.000000 0.000000 -1.000000
vn 0.000000 0.000000 -1.000000
vn 0.000000 0.000000 -1.000000
vn 0.000000 0.000000 -1.000000
vn 0.000000 -1.000000 0.000000
vn 0.000000 -1.000000 0.000000
vn 0.000000 -1.000000 0.000000
vn 0.000000 -1.000000 0.000000
vn 0.849146 0.528158 0.000000
vn 0.849146 0.528158 0.000000
vn 0.730417 0.683002 0.000000
vn 0.730417 0.683002 0.000000
vn -0.849146 -0.528158 0.000000
vn -0.849146 -0.528158 0.000000
vn -0.730417 -0.683002 0.000000
vn -0.730417 -0.683002 0.000000
vn -0.844797 0.535088 0.000000
vn -0.844797 0.535088 0.000000
vn -0.849146 -0.528158 0.000000
vn -0.849146 -0.528158 0.000000
vn 0.000000 0.000000 1.000000
vn 0.000000 0.000000 1.000000
vn 0.000000 0.000000 1.000000
vn 0.000000 0.000000 1.000000
vn 0.844797 -0.535088 0.000000
vn 0.844797 -0.535088 0.000000
vn 0.849146 0.528158 0.000000
vn 0.849146 0.528158 0.000000
vn 0.000000 0.000000 -1.000000
vn 0.000000 0.000000 -1.000000
vn 0.000000 0.000000 -1.000000
vn 0.000000 0.000000 -1.000000
vn -0.720989 0.692946 0.000000
vn -0.720989 0.692946 0.000000
vn -0.844797 0.535088 0.000000
vn -0.844797 0.535088 0.000000
vn 0.000000 0.000000 1.000000
vn 0.000000 0.000000 1.000000
vn 0.000000 0.000000 1.000000
vn 0.000000 0.000000 1.000000
vn 0.720989 -0.692946 0.000000
vn 0.720989 -0.692946 0.000000
vn 0.844797 -0.535088 0.000000
vn 0.844797 -0.535088 0.000000
vn 0.000000 0.000000 -1.000000
vn 0.000000 0.000000 -1.000000
vn 0.000000 0.000000 -1.000000
vn 0.000000 0.000000 -1.000000
vn 0.000000 0.000000 1.000000
vn 0.000000 0.000000 1.000000
vn 0.000000 0.000000 1.000000
vn 0.000000 0.000000 1.000000
vn 0.000000 1.000000 0.000000
vn 0.000000 1.000000 0.000000
vn 0.000000 1.000000 0.000000
vn 0.000000 1.000000 0.000000
vn 0.000000 0.000000 -1.000000
vn 0.000000 0.000000 -1.000000
vn 0.000000 0.000000 -1.000000
vn 0.000000 0.000000 -1.000000
vn 0.000000 -1.000000 0.000000
vn 0.000000 -1.000000 0.000000
vn 0.000000 -1.000000 0.000000
vn 0.000000 -1.000000 0.000000
vn 0.849146 0.528158 0.000000
vn 0.849146 0.528158 0.000000
vn 0.730417 0.683002 0.000000
vn 0.730417 0.683002 0.000000
vn -0.849146 -0.528158 0.000000
vn -0.849146 -0.528158 0.000000
vn -0.730417 -0.683002 0.000000
vn -0.730417 -0.683002 0.000000
vn -0.844797 0.535088 0.000000
vn -0.844797 0.535088 0.000000
vn -0.849146 -0.528158 0.000000
vn -0.849146 -0.528158 0.000000
vn 0.000000 0.000000 1.000000
vn 0.000000 0.000000 1.000000
vn 0.000000 0.000000 1.000000
vn 0.000000 0.000000 1.000000
vn 0.844797 -0.535088 0.000000
vn 0.844797 -0.535088 0.000000
vn 0.849146 0.528158 0.000000
vn 0.849146 0.528158 0.000000
vn 0.000000 0.000000 -1.000000
vn 0.000000 0.000000 -1.000000
vn 0.000000 0.000000 -1.000000
vn 0.000000 0.000000 -1.000000
vn -0.720989 0.692946 0.000000
vn -0.720989 0.692946 0.000000
vn -0.844797 0.535088 0.000000
vn -0.844797 0.535088 0.000000
vn 0.000000 0.000000 1.000000
vn 0.000000 0.000000 1.000000
vn 0.000000 0.000000 1.000000
vn 0.000000 0.000000 1.000000
vn 0.720989 -0.692946 0.000000
vn 0.720989 -0.692946 0.000000
vn 0.844797 -0.535088 0.000000
vn 0.844797 -0.535088 0.000000
vn 0.000000 0.000000 -1.000000
vn 0.000000 0.000000 -1.000000
vn 0.000000 0.000000 -1.000000
vn 0.000000 0.000000 -1.000000
vn 0.000000 0.000000 1.000000
vn 0.000000 0.000000 1.000000
vn 0.000000 0.000000 1.000000
vn 0.000000 0.000000 1.000000
vn 0.000000 1.000000 0.000000
vn 0.000000 1.000000 0.000000
vn 0.000000 1.000000 0.000000
vn 0.000000 1.000000 0.000000
vn 0.000000 0.000000 -1.000000
vn 0.000000 0.000000 -1.000000
vn 0.000000 0.000000 -1.000000
vn 0.000000 0.000000 -1.000000
vn 0.000000 -1.000000 0.000000
vn 0.000000 -1.000000 0.000000
vn 0.000000 -1.000000 0.000000
vn 0.000000 -1.000000 0.000000
vn 0.849146 0.528158 0.000000
vn 0.849146 0.528158 0.000000
vn 0.730417 0.683002 0.000000
vn 0.730417 0.683002 0.000000
vn -0.849146 -0.528158 0.000000
vn -0.849146 -0.528158 0.000000
vn -0.730417 -0.683002 0.000000
vn -0.730417 -0.683002 0.000000
vn -0.844797 0.535088 0.000000
vn -0.844797 0.535088 0.000000
vn -0.849146 -0.528158 0.000000
vn -0.849146 -0.528158 0.000000
vn 0.000000 0.000000 1.000000
vn 0.000000 0.000000 1.000000
vn 0.000000 0.000000 1.000000
vn 0.000000 0.000000 1.000000
vn 0.844797 -0.535088 0.000000
vn 0.844797 -0.535088 0.000000
vn 0.849146 0.528158 0.000000
vn 0.849146 0.528158 0.000000
vn 0.000000 0.000000 -1.000000
vn 0.000000 0.000000 -1.000000
vn 0.000000 0.000000 -1.000000
vn 0.000000 0.000000 -1.000000
vn -0.720989 0.692946 0.000000
vn -0.720989 0.692946 0.000000
vn -0.844797 0.535088 0.000000
vn -0.844797 0.535088 0.000000
vn 0.000000 0.000000 1.000000
vn 0.000000 0.000000 1.000000
vn 0.000000 0.000000 1.000000
vn 0.000000 0.000000 1.000000
vn 0.720989 -0.692946 0.000000
vn 0.720989 -0.692946 0.000000
vn 0.844797 -0.535088 0.000000
vn 0.844797 -0.535088 0.000000
vn 0.000000 0.000000 -1.000000
vn 0.000000 0.000000 -1.000000
vn 0.000000 0.000000 -1.000000
vn 0.000000 0.000000 -1.000000
vn 0.000000 0.000000 1.000000
vn 0.000000 0.000000 1.000000
vn 0.000000 0.000000 1.000000
vn 0.000000 0.000000 1.000000
vn 0.000000 1.000000 0.000000
vn 0.000000 1.000000 0.000000
vn 0.000000 1.000000 0.000000
vn 0.000000 1.000000 0.000000
vn 0.000000 0.000000 -1.000000
vn 0.000000 0.000000 -1.000000
vn 0.000000 0.000000 -1.000000
vn 0.000000 0.000000 -1.000000
vn 0.000000 -1.000000 0.000000
vn 0.000000 -1.000000 0.000000
vn 0.000000 -1.000000 0.000000
vn 0.000000 -1.000000 0.000000
vn 0.849146 0.528158 0.000000
vn 0.849146 0.528158 0.000000
vn 0.730417 0.683002 0.000000
vn 0.730417 0.683002 0.000000
vn -0.849146 -0.528158 0.000000
vn -0.849146 -0.528158 0.000000
vn -0.730417 -0.683002 0.000000
vn -0.730417 -0.683002 0.000000
vn -0.844797 0.535088 0.000000
vn -0.844797 0.535088 0.000000
vn -0.849146 -0.528158 0.000000
vn -0.849146 -0.528158 0.000000
vn 0.000000 0.000000 1.000000
vn 0.000000 0.000000 1.000000
vn 0.000000 0.000000 1.000000
vn 0.000000 0.000000 1.000000
vn 0.844797 -0.535088 0.000000
vn 0.844797 -0.535088 0.000000
vn 0.849146 0.528158 0.000000
vn 0.849146 0.528158 0.000000
vn 0.000000 0.000000 -1.000000
vn 0.000000 0.000000 -1.000000
vn 0.000000 0.000000 -1.000000
vn 0.000000 0.000000 -1.000000
vn -0.720989 0.692946 0.000000
vn -0.720989 0.692946 0.000000
vn -0.844797 0.535088 0.000000
vn -0.844797 0.535088 0.000000
vn 0.000000 0.000000 1.000000
vn 0.000000 0.000000 1.000000
vn 0.000000 0.000000 1.000000
vn 0.000000 0.000000 1.000000
vn 0.720989 -0.692946 0.000000
vn 0.720989 -0.692946 0.000000
vn 0.844797 -0.535088 0.000000
vn 0.844797 -0.535088 0.000000
vn 0.000000 0.000000 -1.000000
vn 0.000000 0.000000 -1.000000
vn 0.000000 0.000000 -1.000000
vn 0.000000 0.000000 -1.000000
s off
g SpeedBoost:polySurface1
usemtl SpeedBoost:initialShadingGroup
f 10/17/1 11/18/2 4/4/3 3/3/4
f 3/3/5 4/4/6 6/6/7 5/5/8
f 5/5/9 6/6/10 12/19/11 9/16/12
f 7/7/13 8/8/14 2/10/15 1/9/16
f 11/18/17 12/20/18 6/12/19 4/4/20
f 9/15/21 10/17/22 3/3/23 5/14/24
f 13/21/25 14/23/26 10/17/27 9/15/28
f 14/23/29 15/24/30 11/18/31 10/17/32
f 15/24/33 16/26/34 12/20/35 11/18/36
f 9/16/37 12/19/38 16/25/39 13/22/40
f 7/13/41 1/1/42 14/23/43 13/21/44
f 1/1/45 2/2/46 15/24/47 14/23/48
f 2/2/49 8/11/50 16/26/51 15/24/52
f 13/22/53 16/25/54 8/8/55 7/7/56
f 26/43/57 27/44/58 20/30/59 19/29/60
f 19/29/61 20/30/62 22/32/63 21/31/64
f 21/31/65 22/32/66 28/45/67 25/42/68
f 23/33/69 24/34/70 18/36/71 17/35/72
f 27/44/73 28/46/74 22/38/75 20/30/76
f 25/41/77 26/43/78 19/29/79 21/40/80
f 29/47/81 30/49/82 26/43/83 25/41/84
f 30/49/85 31/50/86 27/44/87 26/43/88
f 31/50/89 32/52/90 28/46/91 27/44/92
f 25/42/93 28/45/94 32/51/95 29/48/96
f 23/39/97 17/27/98 30/49/99 29/47/100
f 17/27/101 18/28/102 31/50/103 30/49/104
f 18/28/105 24/37/106 32/52/107 31/50/108
f 29/48/109 32/51/110 24/34/111 23/33/112
f 42/69/113 43/70/114 36/56/115 35/55/116
f 35/55/117 36/56/118 38/58/119 37/57/120
f 37/57/121 38/58/122 44/71/123 41/68/124
f 39/59/125 40/60/126 34/62/127 33/61/128
f 43/70/129 44/72/130 38/64/131 36/56/132
f 41/67/133 42/69/134 35/55/135 37/66/136
f 45/73/137 46/75/138 42/69/139 41/67/140
f 46/75/141 47/76/142 43/70/143 42/69/144
f 47/76/145 48/78/146 44/72/147 43/70/148
f 41/68/149 44/71/150 48/77/151 45/74/152
f 39/65/153 33/53/154 46/75/155 45/73/156
f 33/53/157 34/54/158 47/76/159 46/75/160
f 34/54/161 40/63/162 48/78/163 47/76/164
f 45/74/165 48/77/166 40/60/167 39/59/168
f 58/95/169 59/96/170 52/82/171 51/81/172
f 51/81/173 52/82/174 54/84/175 53/83/176
f 53/83/177 54/84/178 60/97/179 57/94/180
f 55/85/181 56/86/182 50/88/183 49/87/184
f 59/96/185 60/98/186 54/90/187 52/82/188
f 57/93/189 58/95/190 51/81/191 53/92/192
f 61/99/193 62/101/194 58/95/195 57/93/196
f 62/101/197 63/102/198 59/96/199 58/95/200
f 63/102/201 64/104/202 60/98/203 59/96/204
f 57/94/205 60/97/206 64/103/207 61/100/208
f 55/91/209 49/79/210 62/101/211 61/99/212
f 49/79/213 50/80/214 63/102/215 62/101/216
f 50/80/217 56/89/218 64/104/219 63/102/220
f 61/100/221 64/103/222 56/86/223 55/85/224
f 74/121/225 75/122/226 68/108/227 67/107/228
f 67/107/229 68/108/230 70/110/231 69/109/232
f 69/109/233 70/110/234 76/123/235 73/120/236
f 71/111/237 72/112/238 66/114/239 65/113/240
f 75/122/241 76/124/242 70/116/243 68/108/244
f 73/119/245 74/121/246 67/107/247 69/118/248
f 77/125/249 78/127/250 74/121/251 73/119/252
f 78/127/253 79/128/254 75/122/255 74/121/256
f 79/128/257 80/130/258 76/124/259 75/122/260
f 73/120/261 76/123/262 80/129/263 77/126/264
f 71/117/265 65/105/266 78/127/267 77/125/268
f 65/105/269 66/106/270 79/128/271 78/127/272
f 66/106/273 72/115/274 80/130/275 79/128/276
f 77/126/277 80/129/278 72/112/279 71/111/280
f 90/147/281 91/148/282 84/134/283 83/133/284
f 83/133/285 84/134/286 86/136/287 85/135/288
f 85/135/289 86/136/290 92/149/291 89/146/292
f 87/137/293 88/138/294 82/140/295 81/139/296
f 91/148/297 92/150/298 86/142/299 84/134/300
f 89/145/301 90/147/302 83/133/303 85/144/304
f 93/151/305 94/153/306 90/147/307 89/145/308
f 94/153/309 95/154/310 91/148/311 90/147/312
f 95/154/313 96/156/314 92/150/315 91/148/316
f 89/146/317 92/149/318 96/155/319 93/152/320
f 87/143/321 81/131/322 94/153/323 93/151/324
f 81/131/325 82/132/326 95/154/327 94/153/328
f 82/132/329 88/141/330 96/156/331 95/154/332
f 93/152/333 96/155/334 88/138/335 87/137/336
