# This file uses centimeters as units for non-parametric coordinates.

mtllib BEACH.mtl
g default
v -15.364164 -0.080140 19.979616
v 15.364164 -0.080140 19.979616
v -15.364164 0.080140 19.979616
v 15.364164 0.080140 19.979616
v -15.364164 0.080140 -19.979616
v 15.364164 0.080140 -19.979616
v -15.364164 -0.080140 -19.979616
v 15.364164 -0.080140 -19.979616
vt 0.038591 0.734978
vt 0.038663 0.770174
vt 0.003467 0.770247
vt 0.003394 0.735051
vt 0.049239 0.023970
vt 0.990670 0.023970
vt 0.990670 0.982337
vt 0.049239 0.982337
vt 0.040736 0.689596
vt 0.006201 0.689729
vt 0.006068 0.655194
vt 0.040603 0.655061
vt 0.005935 0.620659
vt 0.040470 0.620527
vt 0.038736 0.805370
vt 0.003539 0.805443
vt 0.038518 0.699782
vt 0.003322 0.699855
vn 0.000000 0.000000 1.000000
vn 0.000000 0.000000 1.000000
vn 0.000000 0.000000 1.000000
vn 0.000000 0.000000 1.000000
vn 0.000000 1.000000 0.000000
vn 0.000000 1.000000 0.000000
vn 0.000000 1.000000 0.000000
vn 0.000000 1.000000 0.000000
vn 0.000000 0.000000 -1.000000
vn 0.000000 0.000000 -1.000000
vn 0.000000 0.000000 -1.000000
vn 0.000000 0.000000 -1.000000
vn 0.000000 -1.000000 0.000000
vn 0.000000 -1.000000 0.000000
vn 0.000000 -1.000000 0.000000
vn 0.000000 -1.000000 0.000000
vn 1.000000 0.000000 0.000000
vn 1.000000 0.000000 0.000000
vn 1.000000 0.000000 0.000000
vn 1.000000 0.000000 0.000000
vn -1.000000 0.000000 0.000000
vn -1.000000 0.000000 0.000000
vn -1.000000 0.000000 0.000000
vn -1.000000 0.000000 0.000000
s off
g polySurface1 pCube4
usemtl initialShadingGroup
f 1/1/1 2/2/2 4/3/3 3/4/4
f 3/5/5 4/6/6 6/7/7 5/8/8
f 5/9/9 6/10/10 8/11/11 7/12/12
f 7/12/13 8/11/14 2/13/15 1/14/16
f 2/2/17 8/15/18 6/16/19 4/3/20
f 7/17/21 1/1/22 3/4/23 5/18/24
