# This file uses centimeters as units for non-parametric coordinates.

mtllib MOUNTAIN.mtl
g default
v -26.159576 -0.000000 20.927662
v -20.927662 0.183038 20.927662
v -15.695746 0.183038 20.927662
v -10.463830 0.206051 20.927662
v -5.231915 0.206051 20.927662
v 0.000000 0.221769 20.927662
v 5.231916 0.221769 20.927662
v 10.463830 -0.000000 20.927662
v 15.695746 0.249230 20.927662
v 20.927664 0.249230 20.927662
v 26.159576 -0.000000 20.927662
v -26.159576 -0.000000 15.695746
v -20.927662 50.653522 15.695746
v -15.695746 50.653522 15.695746
v -10.463830 45.200821 15.695746
v -5.231915 37.052628 15.695746
v 0.000000 37.068344 15.695746
v 5.231916 28.100710 15.695746
v 10.463830 27.878941 15.695746
v 15.695746 19.995317 15.695746
v 20.927664 19.995317 15.695746
v 26.159576 -0.000000 15.695746
v -26.159576 -0.000000 10.463830
v -20.927662 50.470486 10.463830
v -15.695746 50.470486 10.463830
v -10.463830 44.994766 10.463830
v -5.231915 36.846573 10.463830
v 0.000000 36.846573 10.463830
v 5.231916 28.143602 10.463830
v 10.463830 28.143602 10.463830
v 15.695746 19.746088 10.463830
v 20.927664 19.746088 10.463830
v 26.159576 -0.000000 10.463830
v -26.159576 -0.000000 5.231915
v -20.927662 44.994774 5.231915
v -15.695746 45.163387 5.231915
v -10.463830 26.496012 5.231915
v -5.231915 26.610168 5.231915
v 0.000000 14.290697 5.231915
v 5.231916 14.272587 5.231915
v 10.463830 0.264662 5.231915
v 15.695746 7.116979 5.231915
v 20.927664 7.116979 5.231915
v 26.159576 -0.000000 5.231915
v -26.159576 0.000000 0.000000
v -20.927662 0.187760 0.000000
v -15.695746 0.356375 0.000000
v -10.463830 26.496012 0.000000
v -5.231915 26.610168 0.000000
v 0.000000 14.290697 0.000000
v 5.231916 14.007925 0.000000
v 10.463830 0.000000 0.000000
v 15.695746 7.116979 0.000000
v 20.927664 7.116979 0.000000
v 26.159576 0.000000 0.000000
v -26.159576 0.000000 -5.231916
v -20.927662 38.662918 -5.231916
v -15.695746 38.662918 -5.231916
v -10.463830 0.000000 -5.231916
v -5.231915 15.611884 -5.231916
v 0.000000 15.611884 -5.231916
v 5.231916 9.755587 -5.231916
v 10.463830 9.755587 -5.231916
v 15.695746 3.893740 -5.231916
v 20.927664 3.893740 -5.231916
v 26.159576 0.000000 -5.231916
v -26.159576 0.000000 -10.463830
v -20.927662 38.753960 -10.463830
v -15.695746 38.753960 -10.463830
v -10.463830 0.000000 -10.463830
v -5.231915 15.611884 -10.463830
v 0.000000 15.611884 -10.463830
v 5.231916 9.755587 -10.463830
v 10.463830 9.755587 -10.463830
v 15.695746 3.893740 -10.463830
v 20.927664 3.893740 -10.463830
v 26.159576 0.000000 -10.463830
v -26.159576 0.000000 -15.695746
v -20.927662 0.278791 -15.695746
v -15.695746 19.582438 -15.695746
v -10.463830 19.699497 -15.695746
v -5.231915 0.395852 -15.695746
v 0.000000 6.761786 -15.695746
v 5.231916 7.115896 -15.695746
v 10.463830 0.354110 -15.695746
v 15.695746 1.179365 -15.695746
v 20.927664 1.179365 -15.695746
v 26.159576 0.000000 -15.695746
v -26.159576 0.000000 -20.927664
v -20.927662 0.000000 -20.927664
v -15.695746 19.303646 -20.927664
v -10.463830 19.699497 -20.927664
v -5.231915 0.395852 -20.927664
v 0.000000 6.761786 -20.927664
v 5.231916 7.115896 -20.927664
v 10.463830 0.354110 -20.927664
v 15.695746 1.179365 -20.927664
v 20.927664 1.179365 -20.927664
v 26.159576 0.000000 -20.927664
v -26.159576 0.000000 -26.159576
v -20.927662 0.000000 -26.159576
v -15.695746 0.000000 -26.159576
v -10.463830 0.000000 -26.159576
v -5.231915 0.000000 -26.159576
v 0.000000 0.000000 -26.159576
v 5.231916 0.000000 -26.159576
v 10.463830 0.000000 -26.159576
v 15.695746 0.000000 -26.159576
v 20.927664 0.000000 -26.159576
v 26.159576 0.000000 -26.159576
vt 0.000000 0.100000
vt 0.100000 0.100000
vt 0.200000 0.100000
vt 0.300000 0.100000
vt 0.400000 0.100000
vt 0.500000 0.100000
vt 0.600000 0.100000
vt 0.700000 0.100000
vt 0.800000 0.100000
vt 0.900000 0.100000
vt 1.000000 0.100000
vt 0.000000 0.200000
vt 0.100000 0.200000
vt 0.200000 0.200000
vt 0.300000 0.200000
vt 0.400000 0.200000
vt 0.500000 0.200000
vt 0.600000 0.200000
vt 0.700000 0.200000
vt 0.800000 0.200000
vt 0.900000 0.200000
vt 1.000000 0.200000
vt 0.000000 0.300000
vt 0.100000 0.300000
vt 0.200000 0.300000
vt 0.300000 0.300000
vt 0.400000 0.300000
vt 0.500000 0.300000
vt 0.600000 0.300000
vt 0.700000 0.300000
vt 0.800000 0.300000
vt 0.900000 0.300000
vt 1.000000 0.300000
vt 0.000000 0.400000
vt 0.100000 0.400000
vt 0.200000 0.400000
vt 0.300000 0.400000
vt 0.400000 0.400000
vt 0.500000 0.400000
vt 0.600000 0.400000
vt 0.700000 0.400000
vt 0.800000 0.400000
vt 0.900000 0.400000
vt 1.000000 0.400000
vt 0.000000 0.500000
vt 0.100000 0.500000
vt 0.200000 0.500000
vt 0.300000 0.500000
vt 0.400000 0.500000
vt 0.500000 0.500000
vt 0.600000 0.500000
vt 0.700000 0.500000
vt 0.800000 0.500000
vt 0.900000 0.500000
vt 1.000000 0.500000
vt 0.000000 0.600000
vt 0.100000 0.600000
vt 0.200000 0.600000
vt 0.300000 0.600000
vt 0.400000 0.600000
vt 0.500000 0.600000
vt 0.600000 0.600000
vt 0.700000 0.600000
vt 0.800000 0.600000
vt 0.900000 0.600000
vt 1.000000 0.600000
vt 0.000000 0.700000
vt 0.100000 0.700000
vt 0.200000 0.700000
vt 0.300000 0.700000
vt 0.400000 0.700000
vt 0.500000 0.700000
vt 0.600000 0.700000
vt 0.700000 0.700000
vt 0.800000 0.700000
vt 0.900000 0.700000
vt 1.000000 0.700000
vt 0.000000 0.800000
vt 0.100000 0.800000
vt 0.200000 0.800000
vt 0.300000 0.800000
vt 0.400000 0.800000
vt 0.500000 0.800000
vt 0.600000 0.800000
vt 0.700000 0.800000
vt 0.800000 0.800000
vt 0.900000 0.800000
vt 1.000000 0.800000
vt 0.000000 0.900000
vt 0.100000 0.900000
vt 0.200000 0.900000
vt 0.300000 0.900000
vt 0.400000 0.900000
vt 0.500000 0.900000
vt 0.600000 0.900000
vt 0.700000 0.900000
vt 0.800000 0.900000
vt 0.900000 0.900000
vt 1.000000 0.900000
vt 0.000000 1.000000
vt 0.100000 1.000000
vt 0.200000 1.000000
vt 0.300000 1.000000
vt 0.400000 1.000000
vt 0.500000 1.000000
vt 0.600000 1.000000
vt 0.700000 1.000000
vt 0.800000 1.000000
vt 0.900000 1.000000
vt 1.000000 1.000000
vn -0.702206 0.144537 0.697149
vn -0.702206 0.144537 0.697149
vn -0.702206 0.144537 0.697149
vn -0.702206 0.144537 0.697149
vn 0.000000 0.103110 0.994670
vn 0.000000 0.103110 0.994670
vn 0.000000 0.103110 0.994670
vn 0.000000 0.103110 0.994670
vn 0.056447 0.108783 0.992462
vn 0.056447 0.108783 0.992462
vn 0.056447 0.108783 0.992462
vn 0.056447 0.108783 0.992462
vn 0.098279 0.126209 0.987123
vn 0.098279 0.126209 0.987123
vn 0.098279 0.126209 0.987123
vn 0.098279 0.126209 0.987123
vn -0.000422 0.140582 0.990069
vn -0.000422 0.140582 0.990069
vn -0.000422 0.140582 0.990069
vn -0.000422 0.140582 0.990069
vn 0.135511 0.158121 0.978077
vn 0.135511 0.158121 0.978077
vn 0.135511 0.158121 0.978077
vn 0.135511 0.158120 0.978077
vn 0.007818 0.184440 0.982813
vn 0.007818 0.184440 0.982813
vn 0.007818 0.184440 0.982813
vn 0.007818 0.184440 0.982813
vn 0.154683 0.212011 0.964948
vn 0.154683 0.212011 0.964948
vn 0.154683 0.212011 0.964948
vn 0.154683 0.212011 0.964948
vn 0.000000 0.256122 0.966645
vn 0.000000 0.256122 0.966645
vn 0.000000 0.256122 0.966645
vn 0.000000 0.256122 0.966645
vn 0.671380 0.347017 0.654849
vn 0.671380 0.347017 0.654849
vn 0.671380 0.347017 0.654849
vn 0.671380 0.347017 0.654849
vn -0.994687 0.102926 -0.001800
vn -0.994687 0.102926 -0.001800
vn -0.994687 0.102926 -0.001800
vn -0.994687 0.102926 -0.001800
vn 0.000000 0.999389 -0.034964
vn 0.000000 0.999389 -0.034964
vn 0.000000 0.999389 -0.034964
vn 0.000000 0.999389 -0.034964
vn 0.722054 0.691359 -0.025707
vn 0.722054 0.691359 -0.025707
vn 0.722054 0.691359 -0.025707
vn 0.722054 0.691359 -0.025707
vn 0.841280 0.540181 -0.021275
vn 0.841280 0.540181 -0.021275
vn 0.841280 0.540181 -0.021275
vn 0.841280 0.540181 -0.021275
vn -0.001501 0.999164 -0.040852
vn -0.001501 0.999164 -0.040852
vn -0.001501 0.999164 -0.040852
vn -0.001501 0.999164 -0.040852
vn 0.860422 0.509508 -0.008710
vn 0.860422 0.509508 -0.008710
vn 0.860422 0.509508 -0.008710
vn 0.860422 0.509508 -0.008710
vn 0.021180 0.999344 0.029372
vn 0.021180 0.999344 0.029372
vn 0.021180 0.999344 0.029372
vn 0.021180 0.999344 0.029372
vn 0.841240 0.540662 0.000797
vn 0.841240 0.540662 0.000797
vn 0.841240 0.540662 0.000797
vn 0.841240 0.540662 0.000797
vn 0.000000 0.998867 -0.047582
vn 0.000000 0.998867 -0.047582
vn 0.000000 0.998867 -0.047582
vn 0.000000 0.998867 -0.047582
vn 0.967024 0.254615 -0.006064
vn 0.967024 0.254615 -0.006064
vn 0.967024 0.254615 -0.006064
vn 0.967024 0.254615 -0.006064
vn -0.992435 0.108780 -0.056924
vn -0.992435 0.108780 -0.056924
vn -0.992435 0.108780 -0.056924
vn -0.992435 0.108780 -0.056924
vn -0.011221 0.696368 -0.717597
vn -0.011221 0.696368 -0.717597
vn -0.011221 0.696368 -0.717597
vn -0.011221 0.696368 -0.717597
vn 0.680398 0.294890 -0.670894
vn 0.680398 0.294890 -0.670894
vn 0.680398 0.294890 -0.670894
vn 0.680398 0.294890 -0.670894
vn 0.254091 0.330937 -0.908801
vn 0.254091 0.330937 -0.908801
vn 0.254091 0.330937 -0.908801
vn 0.254091 0.330937 -0.908801
vn 0.336971 0.286214 -0.896957
vn 0.336971 0.286214 -0.896957
vn 0.336971 0.286214 -0.896957
vn 0.336971 0.286214 -0.896957
vn 0.224247 0.269059 -0.936654
vn 0.224247 0.269059 -0.936654
vn 0.224247 0.269059 -0.936654
vn 0.224247 0.269059 -0.936654
vn 0.309476 0.231177 -0.922378
vn 0.309476 0.231177 -0.922378
vn 0.309476 0.231177 -0.922378
vn 0.309476 0.231177 -0.922378
vn 0.036908 0.249935 -0.967559
vn 0.036908 0.249935 -0.967559
vn 0.036908 0.249935 -0.967559
vn 0.036908 0.249935 -0.967559
vn 0.000000 0.382731 -0.923860
vn 0.000000 0.382731 -0.923860
vn 0.000000 0.382731 -0.923860
vn 0.000000 0.382731 -0.923860
vn 0.853501 0.332460 -0.401256
vn 0.853501 0.332460 -0.401256
vn 0.853501 0.332460 -0.401256
vn 0.853501 0.332460 -0.401256
vn -0.700642 0.162262 -0.694818
vn -0.700642 0.162262 -0.694818
vn -0.700642 0.162262 -0.694818
vn -0.700642 0.162262 -0.694818
vn -0.003738 0.115977 -0.993245
vn -0.003738 0.115977 -0.993245
vn -0.003738 0.115977 -0.993245
vn -0.003738 0.115977 -0.993245
vn -0.160296 0.224472 -0.961206
vn -0.160296 0.224472 -0.961206
vn -0.160296 0.224472 -0.961206
vn -0.160296 0.224472 -0.961206
vn -0.021814 0.999762 0.000000
vn -0.021814 0.999762 0.000000
vn -0.021814 0.999762 0.000000
vn -0.021814 0.999762 0.000000
vn 0.920435 0.390896 0.000000
vn 0.920435 0.390896 0.000000
vn 0.920435 0.390896 0.000000
vn 0.920435 0.390896 0.000000
vn 0.028733 0.999268 -0.025275
vn 0.028733 0.999268 -0.025275
vn 0.028733 0.999268 -0.025275
vn 0.028733 0.999268 -0.025275
vn 0.936645 0.349834 -0.017697
vn 0.936645 0.349834 -0.017697
vn 0.936645 0.349834 -0.017697
vn 0.936645 0.349834 -0.017697
vn -0.800269 0.599449 -0.015162
vn -0.800269 0.599449 -0.015162
vn -0.800269 0.599449 -0.015162
vn -0.800269 0.599449 -0.015162
vn 0.000000 1.000000 0.000000
vn 0.000000 1.000000 0.000000
vn 0.000000 1.000000 0.000000
vn 0.000000 1.000000 0.000000
vn 0.805714 0.592305 0.000000
vn 0.805714 0.592305 0.000000
vn 0.805714 0.592305 0.000000
vn 0.805714 0.592305 0.000000
vn -0.697868 0.187960 0.691123
vn -0.697868 0.187960 0.691123
vn -0.697868 0.187960 0.691123
vn -0.697868 0.187960 0.691123
vn -0.002176 0.135032 0.990839
vn -0.002176 0.135032 0.990839
vn -0.002176 0.135032 0.990839
vn -0.002176 0.135032 0.990839
vn 0.621663 0.519431 0.586282
vn 0.621663 0.519431 0.586282
vn 0.621663 0.519431 0.586282
vn 0.621663 0.519431 0.586282
vn -0.374576 0.249236 -0.893070
vn -0.374576 0.249236 -0.893070
vn -0.374576 0.249236 -0.893070
vn -0.374576 0.249236 -0.893070
vn 0.653935 0.555435 -0.513674
vn 0.653935 0.555435 -0.513674
vn 0.653935 0.555435 -0.513674
vn 0.653935 0.555435 -0.513674
vn 0.491879 0.838391 -0.234852
vn 0.491879 0.838391 -0.234852
vn 0.491879 0.838391 -0.234852
vn 0.491879 0.838391 -0.234852
vn 0.764196 0.570849 0.300227
vn 0.764196 0.570849 0.300227
vn 0.764196 0.570849 0.300227
vn 0.764196 0.570849 0.300227
vn -0.101227 0.843916 0.526839
vn -0.101227 0.843916 0.526839
vn -0.101227 0.843916 0.526839
vn -0.101227 0.843916 0.526839
vn 0.000000 0.851397 -0.524522
vn 0.000000 0.851397 -0.524522
vn 0.000000 0.851397 -0.524522
vn 0.000000 0.851397 -0.524522
vn 0.709091 0.673871 -0.207577
vn 0.709091 0.673871 -0.207577
vn 0.709091 0.673871 -0.207577
vn 0.709091 0.673871 -0.207577
vn -0.990988 0.133944 0.001165
vn -0.990988 0.133944 0.001165
vn -0.990988 0.133944 0.001165
vn -0.990988 0.133944 0.001165
vn 0.000000 0.999849 0.017399
vn 0.000000 0.999849 0.017399
vn 0.000000 0.999849 0.017399
vn 0.000000 0.999849 0.017399
vn 0.990988 0.133944 0.001165
vn 0.990988 0.133944 0.001165
vn 0.990988 0.133944 0.001165
vn 0.990988 0.133944 0.001165
vn -0.948173 0.317755 0.000000
vn -0.948173 0.317755 0.000000
vn -0.948173 0.317755 0.000000
vn -0.948173 0.317755 0.000000
vn 0.000000 1.000000 0.000000
vn 0.000000 1.000000 0.000000
vn 0.000000 1.000000 0.000000
vn 0.000000 1.000000 0.000000
vn 0.745743 0.666234 0.000000
vn 0.745743 0.666234 0.000000
vn 0.745743 0.666234 0.000000
vn 0.745743 0.666234 0.000000
vn 0.000000 1.000000 0.000000
vn 0.000000 1.000000 0.000000
vn 0.000000 1.000000 0.000000
vn 0.000000 1.000000 0.000000
vn 0.746056 0.665883 0.000000
vn 0.746056 0.665883 0.000000
vn 0.746056 0.665883 0.000000
vn 0.746056 0.665883 0.000000
vn 0.000000 1.000000 0.000000
vn 0.000000 1.000000 0.000000
vn 0.000000 1.000000 0.000000
vn 0.000000 1.000000 0.000000
vn 0.597033 0.802217 0.000000
vn 0.597033 0.802217 0.000000
vn 0.597033 0.802217 0.000000
vn 0.597033 0.802217 0.000000
vn -0.699540 0.187532 -0.689547
vn -0.699540 0.187532 -0.689547
vn -0.699540 0.187531 -0.689547
vn -0.699540 0.187532 -0.689547
vn -0.312930 0.169628 -0.934506
vn -0.312930 0.169628 -0.934506
vn -0.312930 0.169628 -0.934506
vn -0.312930 0.169628 -0.934506
vn 0.965145 0.261385 0.013189
vn 0.965145 0.261385 0.013189
vn 0.965145 0.261385 0.013189
vn 0.965145 0.261385 0.013189
vn 0.308481 0.874350 0.374635
vn 0.308481 0.874350 0.374635
vn 0.308481 0.874350 0.374635
vn 0.308481 0.874350 0.374635
vn -0.235744 0.387497 -0.891219
vn -0.235744 0.387497 -0.891219
vn -0.235744 0.387497 -0.891219
vn -0.235744 0.387497 -0.891219
vn 0.333753 0.634718 -0.696951
vn 0.333753 0.634718 -0.696951
vn 0.333753 0.634719 -0.696951
vn 0.333753 0.634718 -0.696951
vn 0.390260 0.603925 -0.694962
vn 0.390260 0.603925 -0.694962
vn 0.390260 0.603925 -0.694962
vn 0.390260 0.603925 -0.694962
vn 0.300109 0.623496 -0.721933
vn 0.300109 0.623496 -0.721933
vn 0.300109 0.623496 -0.721933
vn 0.300109 0.623496 -0.721933
vn 0.000000 0.887648 -0.460522
vn 0.000000 0.887648 -0.460522
vn 0.000000 0.887648 -0.460522
vn 0.000000 0.887648 -0.460522
vn 0.424835 0.876268 -0.227309
vn 0.424835 0.876268 -0.227309
vn 0.424835 0.876268 -0.227309
vn 0.424835 0.876268 -0.227309
vn -0.026624 0.999291 -0.026624
vn -0.026624 0.999291 -0.026624
vn -0.026624 0.999291 -0.026624
vn -0.026624 0.999291 -0.026624
vn -0.965084 0.261569 -0.013938
vn -0.965084 0.261569 -0.013938
vn -0.965084 0.261569 -0.013938
vn -0.965084 0.261569 -0.013938
vn -0.048941 0.998447 -0.026602
vn -0.048941 0.998447 -0.026602
vn -0.048941 0.998447 -0.026602
vn -0.048941 0.998447 -0.026602
vn 0.965178 0.261595 0.000000
vn 0.965178 0.261595 0.000000
vn 0.965178 0.261595 0.000000
vn 0.965178 0.261595 0.000000
vn -0.772562 0.634939 0.000000
vn -0.772562 0.634939 0.000000
vn -0.772562 0.634939 0.000000
vn -0.772562 0.634939 0.000000
vn -0.067528 0.997717 0.000000
vn -0.067528 0.997717 0.000000
vn -0.067528 0.997717 0.000000
vn -0.067528 0.997717 0.000000
vn 0.790895 0.611953 0.000000
vn 0.790895 0.611953 0.000000
vn 0.790895 0.611953 0.000000
vn 0.790895 0.611953 0.000000
vn -0.155808 0.987787 0.000000
vn -0.155808 0.987787 0.000000
vn -0.155808 0.987787 0.000000
vn -0.155808 0.987787 0.000000
vn 0.000000 1.000000 0.000000
vn 0.000000 1.000000 0.000000
vn 0.000000 1.000000 0.000000
vn 0.000000 1.000000 0.000000
vn 0.219900 0.975523 0.000000
vn 0.219900 0.975523 0.000000
vn 0.219900 0.975523 0.000000
vn 0.219900 0.975523 0.000000
vn 0.000000 1.000000 0.000000
vn 0.000000 1.000000 0.000000
vn 0.000000 1.000000 0.000000
vn 0.000000 1.000000 0.000000
vn -0.660266 0.357907 -0.660266
vn -0.660266 0.357907 -0.660266
vn -0.660266 0.357907 -0.660266
vn -0.660266 0.357907 -0.660266
vn -0.009802 0.259106 -0.965799
vn -0.009802 0.259106 -0.965799
vn -0.009802 0.259106 -0.965799
vn -0.009802 0.259106 -0.965799
vn 0.648538 0.351550 -0.675138
vn 0.648538 0.351550 -0.675138
vn 0.648538 0.351550 -0.675138
vn 0.648538 0.351550 -0.675138
vn -0.448741 0.737606 -0.504549
vn -0.448741 0.737606 -0.504549
vn -0.448741 0.737606 -0.504549
vn -0.448741 0.737606 -0.504549
vn -0.020370 0.601919 -0.798297
vn -0.020370 0.601919 -0.798297
vn -0.020370 0.601919 -0.798297
vn -0.020370 0.601919 -0.798297
vn 0.465485 0.720335 -0.514239
vn 0.465485 0.720335 -0.514239
vn 0.465485 0.720335 -0.514239
vn 0.465485 0.720335 -0.514239
vn -0.077797 0.986433 -0.144562
vn -0.077797 0.986433 -0.144562
vn -0.077797 0.986433 -0.144562
vn -0.077797 0.986433 -0.144562
vn 0.000000 0.975522 -0.219900
vn 0.000000 0.975522 -0.219900
vn 0.000000 0.975522 -0.219900
vn 0.000000 0.975522 -0.219900
vn 0.111304 0.987534 -0.111304
vn 0.111304 0.987534 -0.111304
vn 0.111304 0.987534 -0.111304
vn 0.111304 0.987534 -0.111304
s off
g pPlane1
usemtl initialShadingGroup
f 1/1/1 2/2/2 13/13/3 12/12/4
f 2/2/5 3/3/6 14/14/7 13/13/8
f 3/3/9 4/4/10 15/15/11 14/14/12
f 4/4/13 5/5/14 16/16/15 15/15/16
f 5/5/17 6/6/18 17/17/19 16/16/20
f 6/6/21 7/7/22 18/18/23 17/17/24
f 7/7/25 8/8/26 19/19/27 18/18/28
f 8/8/29 9/9/30 20/20/31 19/19/32
f 9/9/33 10/10/34 21/21/35 20/20/36
f 10/10/37 11/11/38 22/22/39 21/21/40
f 12/12/41 13/13/42 24/24/43 23/23/44
f 13/13/45 14/14/46 25/25/47 24/24/48
f 14/14/49 15/15/50 26/26/51 25/25/52
f 15/15/53 16/16/54 27/27/55 26/26/56
f 16/16/57 17/17/58 28/28/59 27/27/60
f 17/17/61 18/18/62 29/29/63 28/28/64
f 18/18/65 19/19/66 30/30/67 29/29/68
f 19/19/69 20/20/70 31/31/71 30/30/72
f 20/20/73 21/21/74 32/32/75 31/31/76
f 21/21/77 22/22/78 33/33/79 32/32/80
f 23/23/81 24/24/82 35/35/83 34/34/84
f 24/24/85 25/25/86 36/36/87 35/35/88
f 25/25/89 26/26/90 37/37/91 36/36/92
f 26/26/93 27/27/94 38/38/95 37/37/96
f 27/27/97 28/28/98 39/39/99 38/38/100
f 28/28/101 29/29/102 40/40/103 39/39/104
f 29/29/105 30/30/106 41/41/107 40/40/108
f 30/30/109 31/31/110 42/42/111 41/41/112
f 31/31/113 32/32/114 43/43/115 42/42/116
f 32/32/117 33/33/118 44/44/119 43/43/120
f 34/34/121 35/35/122 46/46/123 45/45/124
f 35/35/125 36/36/126 47/47/127 46/46/128
f 36/36/129 37/37/130 48/48/131 47/47/132
f 37/37/133 38/38/134 49/49/135 48/48/136
f 38/38/137 39/39/138 50/50/139 49/49/140
f 39/39/141 40/40/142 51/51/143 50/50/144
f 40/40/145 41/41/146 52/52/147 51/51/148
f 41/41/149 42/42/150 53/53/151 52/52/152
f 42/42/153 43/43/154 54/54/155 53/53/156
f 43/43/157 44/44/158 55/55/159 54/54/160
f 45/45/161 46/46/162 57/57/163 56/56/164
f 46/46/165 47/47/166 58/58/167 57/57/168
f 47/47/169 48/48/170 59/59/171 58/58/172
f 48/48/173 49/49/174 60/60/175 59/59/176
f 49/49/177 50/50/178 61/61/179 60/60/180
f 50/50/181 51/51/182 62/62/183 61/61/184
f 51/51/185 52/52/186 63/63/187 62/62/188
f 52/52/189 53/53/190 64/64/191 63/63/192
f 53/53/193 54/54/194 65/65/195 64/64/196
f 54/54/197 55/55/198 66/66/199 65/65/200
f 56/56/201 57/57/202 68/68/203 67/67/204
f 57/57/205 58/58/206 69/69/207 68/68/208
f 58/58/209 59/59/210 70/70/211 69/69/212
f 59/59/213 60/60/214 71/71/215 70/70/216
f 60/60/217 61/61/218 72/72/219 71/71/220
f 61/61/221 62/62/222 73/73/223 72/72/224
f 62/62/225 63/63/226 74/74/227 73/73/228
f 63/63/229 64/64/230 75/75/231 74/74/232
f 64/64/233 65/65/234 76/76/235 75/75/236
f 65/65/237 66/66/238 77/77/239 76/76/240
f 67/67/241 68/68/242 79/79/243 78/78/244
f 68/68/245 69/69/246 80/80/247 79/79/248
f 69/69/249 70/70/250 81/81/251 80/80/252
f 70/70/253 71/71/254 82/82/255 81/81/256
f 71/71/257 72/72/258 83/83/259 82/82/260
f 72/72/261 73/73/262 84/84/263 83/83/264
f 73/73/265 74/74/266 85/85/267 84/84/268
f 74/74/269 75/75/270 86/86/271 85/85/272
f 75/75/273 76/76/274 87/87/275 86/86/276
f 76/76/277 77/77/278 88/88/279 87/87/280
f 78/78/281 79/79/282 90/90/283 89/89/284
f 79/79/285 80/80/286 91/91/287 90/90/288
f 80/80/289 81/81/290 92/92/291 91/91/292
f 81/81/293 82/82/294 93/93/295 92/92/296
f 82/82/297 83/83/298 94/94/299 93/93/300
f 83/83/301 84/84/302 95/95/303 94/94/304
f 84/84/305 85/85/306 96/96/307 95/95/308
f 85/85/309 86/86/310 97/97/311 96/96/312
f 86/86/313 87/87/314 98/98/315 97/97/316
f 87/87/317 88/88/318 99/99/319 98/98/320
f 89/89/321 90/90/322 101/101/323 100/100/324
f 90/90/325 91/91/326 102/102/327 101/101/328
f 91/91/329 92/92/330 103/103/331 102/102/332
f 92/92/333 93/93/334 104/104/335 103/103/336
f 93/93/337 94/94/338 105/105/339 104/104/340
f 94/94/341 95/95/342 106/106/343 105/105/344
f 95/95/345 96/96/346 107/107/347 106/106/348
f 96/96/349 97/97/350 108/108/351 107/107/352
f 97/97/353 98/98/354 109/109/355 108/108/356
f 98/98/357 99/99/358 110/110/359 109/109/360
